roboto-mono_bold.sfdir
StartChar: exclam
Encoding: 33 33 1040
Width: 1229
Flags: W
LayerCount: 2
Back
Fore
SplineSet
735 509 m 1,0,-1
 482 509 l 1,1,-1
 466 1456 l 1,2,-1
 751 1456 l 1,3,-1
 735 509 l 1,0,-1
446 136 m 0,4,5
 446 169 446 169 457 197 c 128,-1,6
 468 225 468 225 489 246 c 128,-1,7
 510 267 510 267 540 278.5 c 128,-1,8
 570 290 570 290 608 290 c 0,9,10
 645 290 645 290 675 278.5 c 128,-1,11
 705 267 705 267 726 246 c 128,-1,12
 747 225 747 225 758.5 197 c 128,-1,13
 770 169 770 169 770 136 c 0,14,15
 770 104 770 104 758.5 76 c 128,-1,16
 747 48 747 48 726 28 c 128,-1,17
 705 8 705 8 675 -3.5 c 128,-1,18
 645 -15 645 -15 608 -15 c 0,19,20
 570 -15 570 -15 540 -3.5 c 128,-1,21
 510 8 510 8 489 28 c 128,-1,22
 468 48 468 48 457 76 c 128,-1,23
 446 104 446 104 446 136 c 0,4,5
EndSplineSet
EndChar
StartChar: quotedbl
Encoding: 34 34 4
Width: 1229
Flags: W
LayerCount: 2
Back
Fore
SplineSet
487 1428 m 1,0,-1
 458 1008 l 1,1,-1
 281 1008 l 1,2,-1
 281 1536 l 1,3,-1
 487 1536 l 1,4,-1
 487 1428 l 1,0,-1
898 1428 m 1,5,-1
 870 1008 l 1,6,-1
 693 1008 l 1,7,-1
 693 1536 l 1,8,-1
 898 1536 l 1,9,-1
 898 1428 l 1,5,-1
EndSplineSet
EndChar
StartChar: numbersign
Encoding: 35 35 5
Width: 1229
Flags: W
LayerCount: 2
Back
Fore
SplineSet
649 410 m 1,0,-1
 448 410 l 1,1,-1
 375 0 l 1,2,-1
 196 0 l 1,3,-1
 269 410 l 1,4,-1
 41 410 l 1,5,-1
 41 579 l 1,6,-1
 299 579 l 1,7,-1
 351 869 l 1,8,-1
 116 869 l 1,9,-1
 116 1040 l 1,10,-1
 381 1040 l 1,11,-1
 456 1456 l 1,12,-1
 634 1456 l 1,13,-1
 560 1040 l 1,14,-1
 761 1040 l 1,15,-1
 835 1456 l 1,16,-1
 1015 1456 l 1,17,-1
 940 1040 l 1,18,-1
 1157 1040 l 1,19,-1
 1157 869 l 1,20,-1
 910 869 l 1,21,-1
 858 579 l 1,22,-1
 1081 579 l 1,23,-1
 1081 410 l 1,24,-1
 828 410 l 1,25,-1
 755 0 l 1,26,-1
 576 0 l 1,27,-1
 649 410 l 1,0,-1
478 579 m 1,28,-1
 679 579 l 1,29,-1
 730 869 l 1,30,-1
 529 869 l 1,31,-1
 478 579 l 1,28,-1
EndSplineSet
EndChar
StartChar: dollar
Encoding: 36 36 6
Width: 1229
Flags: W
LayerCount: 2
Back
Fore
SplineSet
863 382 m 0,0,1
 863 424 863 424 850.5 456.5 c 128,-1,2
 838 489 838 489 810.5 516 c 128,-1,3
 783 543 783 543 738.5 565.5 c 128,-1,4
 694 588 694 588 631 610 c 0,5,6
 530 646 530 646 447 686 c 128,-1,7
 364 726 364 726 305.5 779 c 128,-1,8
 247 832 247 832 215 902.5 c 128,-1,9
 183 973 183 973 183 1070 c 0,10,11
 183 1155 183 1155 212 1225.5 c 128,-1,12
 241 1296 241 1296 294 1348 c 128,-1,13
 347 1400 347 1400 422 1432 c 128,-1,14
 497 1464 497 1464 589 1473 c 1,15,-1
 589 1688 l 1,16,-1
 749 1688 l 1,17,-1
 749 1471 l 1,18,19
 839 1459 839 1459 911 1422 c 128,-1,20
 983 1385 983 1385 1033.5 1325.5 c 128,-1,21
 1084 1266 1084 1266 1111.5 1185.5 c 128,-1,22
 1139 1105 1139 1105 1139 1005 c 1,23,-1
 861 1005 l 1,24,25
 861 1126 861 1126 806 1188.5 c 128,-1,26
 751 1251 751 1251 657 1251 c 0,27,28
 606 1251 606 1251 568.5 1237.5 c 128,-1,29
 531 1224 531 1224 507 1199.5 c 128,-1,30
 483 1175 483 1175 471.5 1142 c 128,-1,31
 460 1109 460 1109 460 1070 c 256,32,33
 460 1031 460 1031 471.5 1000.5 c 128,-1,34
 483 970 483 970 510.5 944 c 128,-1,35
 538 918 538 918 583 894.5 c 128,-1,36
 628 871 628 871 695 847 c 0,37,38
 796 809 796 809 878 768.5 c 128,-1,39
 960 728 960 728 1018.5 674.5 c 128,-1,40
 1077 621 1077 621 1108.5 550.5 c 128,-1,41
 1140 480 1140 480 1140 384 c 0,42,43
 1140 296 1140 296 1111 225.5 c 128,-1,44
 1082 155 1082 155 1028 104 c 128,-1,45
 974 53 974 53 898 22.5 c 128,-1,46
 822 -8 822 -8 728 -17 c 1,47,-1
 728 -213 l 1,48,-1
 569 -213 l 1,49,-1
 569 -17 l 1,50,51
 484 -9 484 -9 404 20.5 c 128,-1,52
 324 50 324 50 262.5 106 c 128,-1,53
 201 162 201 162 164 247.5 c 128,-1,54
 127 333 127 333 127 453 c 1,55,-1
 406 453 l 1,56,57
 406 381 406 381 427 332.5 c 128,-1,58
 448 284 448 284 481.5 255.5 c 128,-1,59
 515 227 515 227 558 215 c 128,-1,60
 601 203 601 203 646 203 c 0,61,62
 753 203 753 203 808 253 c 128,-1,63
 863 303 863 303 863 382 c 0,0,1
EndSplineSet
EndChar
StartChar: percent
Encoding: 37 37 7
Width: 1229
Flags: W
LayerCount: 2
Back
Fore
SplineSet
35 1196 m 2,0,1
 35 1254 35 1254 52.5 1305 c 128,-1,2
 70 1356 70 1356 105.5 1394 c 128,-1,3
 141 1432 141 1432 194.5 1454.5 c 128,-1,4
 248 1477 248 1477 319 1477 c 0,5,6
 392 1477 392 1477 445.5 1454.5 c 128,-1,7
 499 1432 499 1432 534 1394 c 128,-1,8
 569 1356 569 1356 586.5 1305 c 128,-1,9
 604 1254 604 1254 604 1196 c 2,10,-1
 604 1119 l 2,11,12
 604 1062 604 1062 586.5 1011.5 c 128,-1,13
 569 961 569 961 534 922.5 c 128,-1,14
 499 884 499 884 446 862 c 128,-1,15
 393 840 393 840 321 840 c 256,16,17
 249 840 249 840 195.5 862 c 128,-1,18
 142 884 142 884 106.5 922.5 c 128,-1,19
 71 961 71 961 53 1011.5 c 128,-1,20
 35 1062 35 1062 35 1119 c 2,21,-1
 35 1196 l 2,0,1
223 1119 m 2,22,23
 223 1096 223 1096 228 1074.5 c 128,-1,24
 233 1053 233 1053 244.5 1036.5 c 128,-1,25
 256 1020 256 1020 275 1010.5 c 128,-1,26
 294 1001 294 1001 321 1001 c 256,27,28
 348 1001 348 1001 366.5 1010.5 c 128,-1,29
 385 1020 385 1020 396 1036.5 c 128,-1,30
 407 1053 407 1053 412 1074.5 c 128,-1,31
 417 1096 417 1096 417 1119 c 2,32,-1
 417 1196 l 2,33,34
 417 1219 417 1219 412 1240.5 c 128,-1,35
 407 1262 407 1262 395.5 1278.5 c 128,-1,36
 384 1295 384 1295 365.5 1304.5 c 128,-1,37
 347 1314 347 1314 319 1314 c 0,38,39
 292 1314 292 1314 274 1304.5 c 128,-1,40
 256 1295 256 1295 244.5 1278.5 c 128,-1,41
 233 1262 233 1262 228 1240.5 c 128,-1,42
 223 1219 223 1219 223 1196 c 2,43,-1
 223 1119 l 2,22,23
623 337 m 2,44,45
 623 394 623 394 641 445 c 128,-1,46
 659 496 659 496 694.5 534.5 c 128,-1,47
 730 573 730 573 783.5 595 c 128,-1,48
 837 617 837 617 908 617 c 0,49,50
 981 617 981 617 1034.5 595 c 128,-1,51
 1088 573 1088 573 1123 534.5 c 128,-1,52
 1158 496 1158 496 1175.5 445 c 128,-1,53
 1193 394 1193 394 1193 337 c 2,54,-1
 1193 259 l 2,55,56
 1193 202 1193 202 1176 151 c 128,-1,57
 1159 100 1159 100 1123.5 62 c 128,-1,58
 1088 24 1088 24 1035 2 c 128,-1,59
 982 -20 982 -20 910 -20 c 256,60,61
 838 -20 838 -20 784 2 c 128,-1,62
 730 24 730 24 694.5 62 c 128,-1,63
 659 100 659 100 641 151 c 128,-1,64
 623 202 623 202 623 259 c 2,65,-1
 623 337 l 2,44,45
811 259 m 2,66,67
 811 236 811 236 817 214.5 c 128,-1,68
 823 193 823 193 835.5 176.5 c 128,-1,69
 848 160 848 160 866.5 150.5 c 128,-1,70
 885 141 885 141 910 141 c 0,71,72
 941 141 941 141 960 150.5 c 128,-1,73
 979 160 979 160 989 176.5 c 128,-1,74
 999 193 999 193 1002 214 c 128,-1,75
 1005 235 1005 235 1005 259 c 2,76,-1
 1005 337 l 2,77,78
 1005 360 1005 360 1000 381 c 128,-1,79
 995 402 995 402 983.5 418.5 c 128,-1,80
 972 435 972 435 953.5 444.5 c 128,-1,81
 935 454 935 454 908 454 c 256,82,83
 881 454 881 454 862 444.5 c 128,-1,84
 843 435 843 435 832 418.5 c 128,-1,85
 821 402 821 402 816 381 c 128,-1,86
 811 360 811 360 811 337 c 2,87,-1
 811 259 l 2,66,67
415 198 m 1,88,-1
 279 263 l 1,89,-1
 840 1291 l 1,90,-1
 976 1226 l 1,91,-1
 415 198 l 1,88,-1
EndSplineSet
EndChar
StartChar: ampersand
Encoding: 38 38 8
Width: 1229
Flags: W
LayerCount: 2
Back
Fore
SplineSet
75 371 m 0,0,1
 75 437 75 437 93.5 492 c 128,-1,2
 112 547 112 547 146 594.5 c 128,-1,3
 180 642 180 642 227.5 684 c 128,-1,4
 275 726 275 726 334 767 c 1,5,6
 275 856 275 856 242.5 935.5 c 128,-1,7
 210 1015 210 1015 210 1100 c 0,8,9
 210 1186 210 1186 237.5 1256 c 128,-1,10
 265 1326 265 1326 316 1375 c 128,-1,11
 367 1424 367 1424 439 1450.5 c 128,-1,12
 511 1477 511 1477 600 1477 c 0,13,14
 675 1477 675 1477 736.5 1450 c 128,-1,15
 798 1423 798 1423 841.5 1376.5 c 128,-1,16
 885 1330 885 1330 909 1269 c 128,-1,17
 933 1208 933 1208 933 1140 c 0,18,19
 933 1089 933 1089 917 1044 c 128,-1,20
 901 999 901 999 873 959.5 c 128,-1,21
 845 920 845 920 807.5 885 c 128,-1,22
 770 850 770 850 727 819 c 2,23,-1
 647 754 l 1,24,-1
 894 437 l 1,25,26
 926 494 926 494 943.5 562 c 128,-1,27
 961 630 961 630 961 708 c 1,28,-1
 1199 708 l 1,29,30
 1199 571 1199 571 1162.5 452.5 c 128,-1,31
 1126 334 1126 334 1048 240 c 1,32,-1
 1236 0 l 1,33,-1
 918 0 l 1,34,-1
 853 83 l 1,35,36
 777 32 777 32 695.5 5.5 c 128,-1,37
 614 -21 614 -21 511 -21 c 0,38,39
 410 -21 410 -21 329 8 c 128,-1,40
 248 37 248 37 191.5 89 c 128,-1,41
 135 141 135 141 105 213 c 128,-1,42
 75 285 75 285 75 371 c 0,0,1
523 202 m 0,43,44
 575 202 575 202 625 216 c 128,-1,45
 675 230 675 230 721 256 c 1,46,-1
 458 598 l 1,47,-1
 450 592 l 1,48,49
 420 563 420 563 401 535 c 128,-1,50
 382 507 382 507 371.5 481 c 128,-1,51
 361 455 361 455 357.5 431.5 c 128,-1,52
 354 408 354 408 354 387 c 0,53,54
 354 347 354 347 366 313 c 128,-1,55
 378 279 378 279 400 254.5 c 128,-1,56
 422 230 422 230 453.5 216 c 128,-1,57
 485 202 485 202 523 202 c 0,43,44
462 1100 m 0,58,59
 462 1055 462 1055 480.5 1009.5 c 128,-1,60
 499 964 499 964 531 913 c 1,61,-1
 624 982 l 2,62,63
 655 1002 655 1002 671 1023.5 c 128,-1,64
 687 1045 687 1045 693.5 1064.5 c 128,-1,65
 700 1084 700 1084 700 1099.5 c 128,-1,66
 700 1115 700 1115 700 1124 c 0,67,68
 700 1148 700 1148 693 1171 c 128,-1,69
 686 1194 686 1194 673 1212 c 128,-1,70
 660 1230 660 1230 641.5 1241 c 128,-1,71
 623 1252 623 1252 600 1252 c 0,72,73
 565 1252 565 1252 539 1240 c 128,-1,74
 513 1228 513 1228 496 1207 c 128,-1,75
 479 1186 479 1186 470.5 1158.5 c 128,-1,76
 462 1131 462 1131 462 1100 c 0,58,59
EndSplineSet
EndChar
StartChar: quotesingle
Encoding: 39 39 9
Width: 1229
Flags: W
LayerCount: 2
Back
Fore
SplineSet
671 1394 m 1,0,-1
 643 993 l 1,1,-1
 457 993 l 1,2,-1
 457 1536 l 1,3,-1
 671 1536 l 1,4,-1
 671 1394 l 1,0,-1
EndSplineSet
EndChar
StartChar: parenleft
Encoding: 40 40 10
Width: 1229
Flags: W
LayerCount: 2
Back
Fore
SplineSet
345 592 m 2,0,1
 345 733 345 733 366.5 857.5 c 128,-1,2
 388 982 388 982 425 1087.5 c 128,-1,3
 462 1193 462 1193 511.5 1280 c 128,-1,4
 561 1367 561 1367 616 1434 c 128,-1,5
 671 1501 671 1501 729.5 1547.5 c 128,-1,6
 788 1594 788 1594 843 1619 c 1,7,-1
 897 1467 l 1,8,9
 841 1424 841 1424 785 1351.5 c 128,-1,10
 729 1279 729 1279 684.5 1171.5 c 128,-1,11
 640 1064 640 1064 612 921 c 128,-1,12
 584 778 584 778 584 594 c 2,13,-1
 584 568 l 2,14,15
 584 383 584 383 612 240 c 128,-1,16
 640 97 640 97 684.5 -10.5 c 128,-1,17
 729 -118 729 -118 785 -191 c 128,-1,18
 841 -264 841 -264 897 -307 c 1,19,-1
 843 -457 l 1,20,21
 788 -432 788 -432 729.5 -385 c 128,-1,22
 671 -338 671 -338 616 -271.5 c 128,-1,23
 561 -205 561 -205 511.5 -118 c 128,-1,24
 462 -31 462 -31 425 74.5 c 128,-1,25
 388 180 388 180 366.5 304 c 128,-1,26
 345 428 345 428 345 570 c 2,27,-1
 345 592 l 2,0,1
EndSplineSet
EndChar
StartChar: parenright
Encoding: 41 41 11
Width: 1229
Flags: W
LayerCount: 2
Back
Fore
SplineSet
881 570 m 2,0,1
 881 433 881 433 859 310.5 c 128,-1,2
 837 188 837 188 799 82 c 128,-1,3
 761 -24 761 -24 710.5 -111.5 c 128,-1,4
 660 -199 660 -199 603 -267.5 c 128,-1,5
 546 -336 546 -336 486 -384 c 128,-1,6
 426 -432 426 -432 369 -457 c 1,7,-1
 316 -307 l 1,8,9
 371 -265 371 -265 427 -192 c 128,-1,10
 483 -119 483 -119 528 -12 c 128,-1,11
 573 95 573 95 601 239 c 128,-1,12
 629 383 629 383 629 568 c 2,13,-1
 629 594 l 2,14,15
 629 778 629 778 600 922 c 128,-1,16
 571 1066 571 1066 526 1174 c 128,-1,17
 481 1282 481 1282 425.5 1355 c 128,-1,18
 370 1428 370 1428 316 1470 c 1,19,-1
 369 1619 l 1,20,21
 426 1594 426 1594 486 1546 c 128,-1,22
 546 1498 546 1498 603 1429.5 c 128,-1,23
 660 1361 660 1361 710.5 1273.5 c 128,-1,24
 761 1186 761 1186 799 1080 c 128,-1,25
 837 974 837 974 859 851.5 c 128,-1,26
 881 729 881 729 881 592 c 2,27,-1
 881 570 l 2,0,1
EndSplineSet
EndChar
StartChar: asterisk
Encoding: 42 42 12
Width: 1229
Flags: W
LayerCount: 2
Back
Fore
SplineSet
546 637 m 1,0,-1
 154 733 l 1,1,-1
 220 938 l 1,2,-1
 595 772 l 1,3,-1
 559 1203 l 1,4,-1
 778 1203 l 1,5,-1
 739 765 l 1,6,-1
 1111 928 l 1,7,-1
 1177 719 l 1,8,-1
 779 628 l 1,9,-1
 1047 305 l 1,10,-1
 869 176 l 1,11,-1
 658 548 l 1,12,-1
 447 187 l 1,13,-1
 268 310 l 1,14,-1
 546 637 l 1,0,-1
EndSplineSet
EndChar
StartChar: plus
Encoding: 43 43 13
Width: 1229
Flags: W
LayerCount: 2
Back
Fore
SplineSet
731 812 m 1,0,-1
 1097 812 l 1,1,-1
 1097 558 l 1,2,-1
 731 558 l 1,3,-1
 731 146 l 1,4,-1
 466 146 l 1,5,-1
 466 558 l 1,6,-1
 99 558 l 1,7,-1
 99 812 l 1,8,-1
 466 812 l 1,9,-1
 466 1206 l 1,10,-1
 731 1206 l 1,11,-1
 731 812 l 1,0,-1
EndSplineSet
EndChar
StartChar: comma
Encoding: 44 44 14
Width: 1229
Flags: W
LayerCount: 2
Back
Fore
SplineSet
710 22 m 2,0,1
 710 -35 710 -35 694.5 -95 c 128,-1,2
 679 -155 679 -155 652 -211 c 128,-1,3
 625 -267 625 -267 587.5 -317 c 128,-1,4
 550 -367 550 -367 507 -406 c 1,5,-1
 360 -330 l 1,6,7
 379 -294 379 -294 395.5 -257 c 128,-1,8
 412 -220 412 -220 424 -179 c 128,-1,9
 436 -138 436 -138 443 -92 c 128,-1,10
 450 -46 450 -46 450 9 c 2,11,-1
 450 243 l 1,12,-1
 711 243 l 1,13,-1
 710 22 l 2,0,1
EndSplineSet
EndChar
StartChar: hyphen
Encoding: 45 45 15
Width: 1229
Flags: W
LayerCount: 2
Back
Fore
SplineSet
1115 530 m 1,0,-1
 282 530 l 1,1,-1
 282 755 l 1,2,-1
 1115 755 l 1,3,-1
 1115 530 l 1,0,-1
EndSplineSet
EndChar
StartChar: period
Encoding: 46 46 16
Width: 1229
Flags: W
LayerCount: 2
Back
Fore
SplineSet
422 161 m 0,0,1
 422 200 422 200 435 233.5 c 128,-1,2
 448 267 448 267 473 291.5 c 128,-1,3
 498 316 498 316 534 330.5 c 128,-1,4
 570 345 570 345 615 345 c 256,5,6
 660 345 660 345 696 330.5 c 128,-1,7
 732 316 732 316 756.5 291.5 c 128,-1,8
 781 267 781 267 794.5 233.5 c 128,-1,9
 808 200 808 200 808 161 c 0,10,11
 808 123 808 123 794.5 90 c 128,-1,12
 781 57 781 57 756.5 32.5 c 128,-1,13
 732 8 732 8 696 -6 c 128,-1,14
 660 -20 660 -20 615 -20 c 256,15,16
 570 -20 570 -20 534 -6 c 128,-1,17
 498 8 498 8 473 32.5 c 128,-1,18
 448 57 448 57 435 90 c 128,-1,19
 422 123 422 123 422 161 c 0,0,1
EndSplineSet
EndChar
StartChar: zero
Encoding: 48 48 18
Width: 1229
Flags: W
LayerCount: 2
Back
Fore
SplineSet
1089 554 m 2,0,1
 1089 413 1089 413 1056.5 305.5 c 128,-1,2
 1024 198 1024 198 963 125.5 c 128,-1,3
 902 53 902 53 814 16 c 128,-1,4
 726 -21 726 -21 616 -21 c 0,5,6
 507 -21 507 -21 419 16 c 128,-1,7
 331 53 331 53 269.5 125.5 c 128,-1,8
 208 198 208 198 174.5 305.5 c 128,-1,9
 141 413 141 413 141 554 c 2,10,-1
 141 902 l 2,11,12
 141 1043 141 1043 174 1150.5 c 128,-1,13
 207 1258 207 1258 268.5 1330.5 c 128,-1,14
 330 1403 330 1403 417.5 1440 c 128,-1,15
 505 1477 505 1477 614 1477 c 0,16,17
 724 1477 724 1477 812 1440 c 128,-1,18
 900 1403 900 1403 961.5 1330.5 c 128,-1,19
 1023 1258 1023 1258 1056 1150.5 c 128,-1,20
 1089 1043 1089 1043 1089 902 c 2,21,-1
 1089 554 l 2,0,1
421 674 m 1,22,-1
 809 963 l 1,23,24
 806 1110 806 1110 758 1181 c 128,-1,25
 710 1252 710 1252 614 1252 c 0,26,27
 517 1252 517 1252 469 1177 c 128,-1,28
 421 1102 421 1102 421 946 c 2,29,-1
 421 674 l 1,22,-1
809 774 m 1,30,-1
 421 486 l 1,31,32
 426 342 426 342 474 272.5 c 128,-1,33
 522 203 522 203 616 203 c 0,34,35
 714 203 714 203 761.5 279 c 128,-1,36
 809 355 809 355 809 512 c 2,37,-1
 809 774 l 1,30,-1
EndSplineSet
EndChar
StartChar: one
Encoding: 49 49 19
Width: 1229
Flags: W
LayerCount: 2
Back
Fore
SplineSet
822 0 m 1,0,-1
 541 0 l 1,1,-1
 541 1117 l 1,2,-1
 173 985 l 1,3,-1
 173 1227 l 1,4,-1
 807 1456 l 1,5,-1
 822 1456 l 1,6,-1
 822 0 l 1,0,-1
EndSplineSet
EndChar
StartChar: two
Encoding: 50 50 20
Width: 1229
Flags: W
LayerCount: 2
Back
Fore
SplineSet
1093 0 m 1,0,-1
 100 0 l 1,1,-1
 100 190 l 1,2,-1
 571 696 l 2,3,4
 626 756 626 756 664 805 c 128,-1,5
 702 854 702 854 725.5 894.5 c 128,-1,6
 749 935 749 935 759.5 970 c 128,-1,7
 770 1005 770 1005 770 1038 c 0,8,9
 770 1087 770 1087 756 1125 c 128,-1,10
 742 1163 742 1163 716.5 1189.5 c 128,-1,11
 691 1216 691 1216 655.5 1230 c 128,-1,12
 620 1244 620 1244 577 1244 c 0,13,14
 462 1244 462 1244 405.5 1180 c 128,-1,15
 349 1116 349 1116 349 1001 c 1,16,-1
 70 1001 l 1,17,18
 70 1098 70 1098 107 1184.5 c 128,-1,19
 144 1271 144 1271 211.5 1336 c 128,-1,20
 279 1401 279 1401 374.5 1438.5 c 128,-1,21
 470 1476 470 1476 586 1476 c 0,22,23
 697 1476 697 1476 782.5 1445 c 128,-1,24
 868 1414 868 1414 925.5 1358 c 128,-1,25
 983 1302 983 1302 1013 1223.5 c 128,-1,26
 1043 1145 1043 1145 1043 1050 c 0,27,28
 1043 978 1043 978 1020.5 912.5 c 128,-1,29
 998 847 998 847 956.5 783 c 128,-1,30
 915 719 915 719 857 652.5 c 128,-1,31
 799 586 799 586 728 513 c 2,32,-1
 454 223 l 1,33,-1
 1093 223 l 1,34,-1
 1093 0 l 1,0,-1
EndSplineSet
EndChar
StartChar: three
Encoding: 51 51 21
Width: 1229
Flags: W
LayerCount: 2
Back
Fore
SplineSet
421 850 m 1,0,-1
 572 850 l 2,1,2
 686 850 686 850 741 907.5 c 128,-1,3
 796 965 796 965 796 1058 c 0,4,5
 796 1101 796 1101 783.5 1136.5 c 128,-1,6
 771 1172 771 1172 746 1197.5 c 128,-1,7
 721 1223 721 1223 682.5 1237 c 128,-1,8
 644 1251 644 1251 593 1251 c 0,9,10
 551 1251 551 1251 514.5 1239 c 128,-1,11
 478 1227 478 1227 450.5 1204.5 c 128,-1,12
 423 1182 423 1182 407 1150 c 128,-1,13
 391 1118 391 1118 391 1078 c 1,14,-1
 113 1078 l 1,15,16
 113 1167 113 1167 149.5 1240 c 128,-1,17
 186 1313 186 1313 250 1365.5 c 128,-1,18
 314 1418 314 1418 400.5 1447 c 128,-1,19
 487 1476 487 1476 587 1476 c 0,20,21
 695 1476 695 1476 785 1449.5 c 128,-1,22
 875 1423 875 1423 939 1370.5 c 128,-1,23
 1003 1318 1003 1318 1038.5 1240.5 c 128,-1,24
 1074 1163 1074 1163 1074 1061 c 0,25,26
 1074 1014 1074 1014 1060 968.5 c 128,-1,27
 1046 923 1046 923 1019 882 c 128,-1,28
 992 841 992 841 952 806.5 c 128,-1,29
 912 772 912 772 860 747 c 1,30,31
 921 725 921 725 965.5 691 c 128,-1,32
 1010 657 1010 657 1039 613.5 c 128,-1,33
 1068 570 1068 570 1082 518 c 128,-1,34
 1096 466 1096 466 1096 408 c 0,35,36
 1096 306 1096 306 1057 226 c 128,-1,37
 1018 146 1018 146 950 91.5 c 128,-1,38
 882 37 882 37 788.5 8.5 c 128,-1,39
 695 -20 695 -20 587 -20 c 0,40,41
 494 -20 494 -20 405.5 5.5 c 128,-1,42
 317 31 317 31 248 82.5 c 128,-1,43
 179 134 179 134 137.5 212 c 128,-1,44
 96 290 96 290 96 396 c 1,45,-1
 374 396 l 1,46,47
 374 354 374 354 390 318.5 c 128,-1,48
 406 283 406 283 435.5 257.5 c 128,-1,49
 465 232 465 232 505 217.5 c 128,-1,50
 545 203 545 203 593 203 c 0,51,52
 699 203 699 203 759 259 c 128,-1,53
 819 315 819 315 819 411 c 0,54,55
 819 470 819 470 802 512 c 128,-1,56
 785 554 785 554 752.5 581 c 128,-1,57
 720 608 720 608 674.5 621 c 128,-1,58
 629 634 629 634 572 634 c 2,59,-1
 421 634 l 1,60,-1
 421 850 l 1,0,-1
EndSplineSet
EndChar
StartChar: five
Encoding: 53 53 23
Width: 1229
Flags: W
LayerCount: 2
Back
Fore
SplineSet
155 717 m 1,0,-1
 238 1456 l 1,1,-1
 1046 1456 l 1,2,-1
 1046 1220 l 1,3,-1
 467 1220 l 1,4,-1
 432 900 l 1,5,6
 463 918 463 918 520 937 c 128,-1,7
 577 956 577 956 651 956 c 0,8,9
 756 956 756 956 838.5 922.5 c 128,-1,10
 921 889 921 889 977.5 826 c 128,-1,11
 1034 763 1034 763 1064 672 c 128,-1,12
 1094 581 1094 581 1094 466 c 0,13,14
 1094 368 1094 368 1065 280 c 128,-1,15
 1036 192 1036 192 976 125 c 128,-1,16
 916 58 916 58 825 19 c 128,-1,17
 734 -20 734 -20 610 -20 c 0,18,19
 516 -20 516 -20 428.5 8 c 128,-1,20
 341 36 341 36 273 90 c 128,-1,21
 205 144 205 144 162.5 222.5 c 128,-1,22
 120 301 120 301 117 402 c 1,23,-1
 391 402 l 1,24,25
 401 307 401 307 459.5 255 c 128,-1,26
 518 203 518 203 609 203 c 0,27,28
 665 203 665 203 704.5 224 c 128,-1,29
 744 245 744 245 768.5 282 c 128,-1,30
 793 319 793 319 804.5 370 c 128,-1,31
 816 421 816 421 816 480 c 0,32,33
 816 538 816 538 801.5 586.5 c 128,-1,34
 787 635 787 635 757 670 c 128,-1,35
 727 705 727 705 682 724 c 128,-1,36
 637 743 637 743 576 743 c 0,37,38
 535 743 535 743 505 736 c 128,-1,39
 475 729 475 729 452 718 c 128,-1,40
 429 707 429 707 411 692.5 c 128,-1,41
 393 678 393 678 377 662 c 1,42,-1
 155 717 l 1,0,-1
EndSplineSet
EndChar
StartChar: six
Encoding: 54 54 24
Width: 1229
Flags: W
LayerCount: 2
Back
Fore
SplineSet
879 1468 m 1,0,-1
 879 1237 l 1,1,-1
 863 1237 l 2,2,3
 753 1237 753 1237 668.5 1208 c 128,-1,4
 584 1179 584 1179 524.5 1126 c 128,-1,5
 465 1073 465 1073 430.5 999 c 128,-1,6
 396 925 396 925 387 834 c 1,7,8
 410 859 410 859 440 883.5 c 128,-1,9
 470 908 470 908 507.5 927.5 c 128,-1,10
 545 947 545 947 589 959 c 128,-1,11
 633 971 633 971 684 971 c 0,12,13
 788 971 788 971 865.5 931.5 c 128,-1,14
 943 892 943 892 995 824.5 c 128,-1,15
 1047 757 1047 757 1072.5 667.5 c 128,-1,16
 1098 578 1098 578 1098 479 c 0,17,18
 1098 373 1098 373 1064 282 c 128,-1,19
 1030 191 1030 191 967 124 c 128,-1,20
 904 57 904 57 814 18.5 c 128,-1,21
 724 -20 724 -20 612 -20 c 0,22,23
 495 -20 495 -20 401 23.5 c 128,-1,24
 307 67 307 67 241.5 144 c 128,-1,25
 176 221 176 221 140.5 326.5 c 128,-1,26
 105 432 105 432 105 557 c 2,27,-1
 105 664 l 2,28,29
 105 837 105 837 152 984.5 c 128,-1,30
 199 1132 199 1132 292 1239.5 c 128,-1,31
 385 1347 385 1347 523 1407.5 c 128,-1,32
 661 1468 661 1468 842 1468 c 2,33,-1
 879 1468 l 1,0,-1
603 748 m 0,34,35
 528 748 528 748 470.5 708 c 128,-1,36
 413 668 413 668 384 605 c 1,37,-1
 384 523 l 2,38,39
 384 443 384 443 400.5 383 c 128,-1,40
 417 323 417 323 447 283.5 c 128,-1,41
 477 244 477 244 518 224 c 128,-1,42
 559 204 559 204 607 204 c 0,43,44
 656 204 656 204 696 224.5 c 128,-1,45
 736 245 736 245 764 281 c 128,-1,46
 792 317 792 317 807 366.5 c 128,-1,47
 822 416 822 416 822 475 c 256,48,49
 822 534 822 534 807 584 c 128,-1,50
 792 634 792 634 764 670.5 c 128,-1,51
 736 707 736 707 695.5 727.5 c 128,-1,52
 655 748 655 748 603 748 c 0,34,35
EndSplineSet
EndChar
StartChar: eight
Encoding: 56 56 26
Width: 1229
Flags: W
LayerCount: 2
Back
Fore
SplineSet
1055 1069 m 0,0,1
 1055 963 1055 963 1001.5 880.5 c 128,-1,2
 948 798 948 798 855 749 c 1,3,4
 961 699 961 699 1023.5 609 c 128,-1,5
 1086 519 1086 519 1086 398 c 0,6,7
 1086 295 1086 295 1048.5 217 c 128,-1,8
 1011 139 1011 139 945.5 86.5 c 128,-1,9
 880 34 880 34 791 7 c 128,-1,10
 702 -20 702 -20 599 -20 c 0,11,12
 495 -20 495 -20 405.5 7 c 128,-1,13
 316 34 316 34 250 86.5 c 128,-1,14
 184 139 184 139 146.5 217 c 128,-1,15
 109 295 109 295 109 398 c 0,16,17
 109 458 109 458 125.5 511.5 c 128,-1,18
 142 565 142 565 172 609.5 c 128,-1,19
 202 654 202 654 244.5 689.5 c 128,-1,20
 287 725 287 725 340 750 c 1,21,22
 247 798 247 798 194 880.5 c 128,-1,23
 141 963 141 963 141 1069 c 0,24,25
 141 1168 141 1168 175 1243.5 c 128,-1,26
 209 1319 209 1319 269.5 1371 c 128,-1,27
 330 1423 330 1423 413.5 1449.5 c 128,-1,28
 497 1476 497 1476 596 1476 c 256,29,30
 695 1476 695 1476 779 1449.5 c 128,-1,31
 863 1423 863 1423 924.5 1371 c 128,-1,32
 986 1319 986 1319 1020.5 1243.5 c 128,-1,33
 1055 1168 1055 1168 1055 1069 c 0,0,1
807 417 m 256,34,35
 807 467 807 467 792 507 c 128,-1,36
 777 547 777 547 749.5 575.5 c 128,-1,37
 722 604 722 604 683.5 619 c 128,-1,38
 645 634 645 634 597 634 c 256,39,40
 549 634 549 634 510.5 619 c 128,-1,41
 472 604 472 604 445 575.5 c 128,-1,42
 418 547 418 547 403 507 c 128,-1,43
 388 467 388 467 388 417 c 0,44,45
 388 317 388 317 445 260 c 128,-1,46
 502 203 502 203 599 203 c 0,47,48
 645 203 645 203 683 217.5 c 128,-1,49
 721 232 721 232 748.5 260 c 128,-1,50
 776 288 776 288 791.5 327.5 c 128,-1,51
 807 367 807 367 807 417 c 256,34,35
778 1056 m 256,52,53
 778 1100 778 1100 765 1136 c 128,-1,54
 752 1172 752 1172 728.5 1197.5 c 128,-1,55
 705 1223 705 1223 671.5 1237 c 128,-1,56
 638 1251 638 1251 596 1251 c 0,57,58
 511 1251 511 1251 465 1199 c 128,-1,59
 419 1147 419 1147 419 1056 c 0,60,61
 419 1012 419 1012 431 975.5 c 128,-1,62
 443 939 443 939 466.5 913 c 128,-1,63
 490 887 490 887 523.5 872.5 c 128,-1,64
 557 858 557 858 599 858 c 256,65,66
 641 858 641 858 674 872.5 c 128,-1,67
 707 887 707 887 730 913 c 128,-1,68
 753 939 753 939 765.5 975.5 c 128,-1,69
 778 1012 778 1012 778 1056 c 256,52,53
EndSplineSet
EndChar
StartChar: nine
Encoding: 57 57 27
Width: 1229
Flags: W
LayerCount: 2
Back
Fore
SplineSet
332 221 m 2,0,1
 444 221 444 221 526 245 c 128,-1,2
 608 269 608 269 663.5 314.5 c 128,-1,3
 719 360 719 360 749.5 425.5 c 128,-1,4
 780 491 780 491 789 574 c 1,5,6
 747 532 747 532 681 502 c 128,-1,7
 615 472 615 472 521 472 c 0,8,9
 417 472 417 472 338 510 c 128,-1,10
 259 548 259 548 205.5 614 c 128,-1,11
 152 680 152 680 124.5 769.5 c 128,-1,12
 97 859 97 859 97 962 c 0,13,14
 97 1068 97 1068 130.5 1161.5 c 128,-1,15
 164 1255 164 1255 227 1325 c 128,-1,16
 290 1395 290 1395 379.5 1435.5 c 128,-1,17
 469 1476 469 1476 581 1476 c 0,18,19
 695 1476 695 1476 786 1432 c 128,-1,20
 877 1388 877 1388 940.5 1309 c 128,-1,21
 1004 1230 1004 1230 1037.5 1121 c 128,-1,22
 1071 1012 1071 1012 1071 882 c 2,23,-1
 1071 786 l 2,24,25
 1071 612 1071 612 1028 466 c 128,-1,26
 985 320 985 320 895 213.5 c 128,-1,27
 805 107 805 107 666 47.5 c 128,-1,28
 527 -12 527 -12 334 -12 c 2,29,-1
 313 -12 l 1,30,-1
 313 221 l 1,31,-1
 332 221 l 2,0,1
587 687 m 0,32,33
 625 687 625 687 657.5 698 c 128,-1,34
 690 709 690 709 716.5 728.5 c 128,-1,35
 743 748 743 748 762.5 774.5 c 128,-1,36
 782 801 782 801 794 832 c 1,37,-1
 794 931 l 2,38,39
 794 1011 794 1011 777.5 1071 c 128,-1,40
 761 1131 761 1131 732 1171 c 128,-1,41
 703 1211 703 1211 664 1231 c 128,-1,42
 625 1251 625 1251 580 1251 c 0,43,44
 531 1251 531 1251 492.5 1227.5 c 128,-1,45
 454 1204 454 1204 428 1164.5 c 128,-1,46
 402 1125 402 1125 388 1073.5 c 128,-1,47
 374 1022 374 1022 374 966 c 256,48,49
 374 910 374 910 387 859 c 128,-1,50
 400 808 400 808 426.5 770 c 128,-1,51
 453 732 453 732 493 709.5 c 128,-1,52
 533 687 533 687 587 687 c 0,32,33
EndSplineSet
EndChar
StartChar: less
Encoding: 60 60 30
Width: 1229
Flags: W
LayerCount: 2
Back
Fore
SplineSet
493 647 m 1,0,-1
 425 622 l 1,1,-1
 493 598 l 1,2,-1
 1041 415 l 1,3,-1
 1041 144 l 1,4,-1
 156 511 l 1,5,-1
 156 736 l 1,6,-1
 1041 1103 l 1,7,-1
 1041 833 l 1,8,-1
 493 647 l 1,0,-1
EndSplineSet
EndChar
StartChar: equal
Encoding: 61 61 31
Width: 1229
Flags: W
LayerCount: 2
Back
Fore
SplineSet
1104 717 m 1,0,-1
 158 717 l 1,1,-1
 158 945 l 1,2,-1
 1104 945 l 1,3,-1
 1104 717 l 1,0,-1
1104 286 m 1,4,-1
 158 286 l 1,5,-1
 158 513 l 1,6,-1
 1104 513 l 1,7,-1
 1104 286 l 1,4,-1
EndSplineSet
EndChar
StartChar: greater
Encoding: 62 62 32
Width: 1229
Flags: W
LayerCount: 2
Back
Fore
SplineSet
161 834 m 1,0,-1
 161 1103 l 1,1,-1
 1061 737 l 1,2,-1
 1061 510 l 1,3,-1
 161 143 l 1,4,-1
 161 413 l 1,5,-1
 734 605 l 1,6,-1
 795 625 l 1,7,-1
 735 645 l 1,8,-1
 161 834 l 1,0,-1
EndSplineSet
EndChar
StartChar: question
Encoding: 63 63 33
Width: 1229
Flags: W
LayerCount: 2
Back
Fore
SplineSet
499 442 m 1,0,1
 499 511 499 511 502.5 559 c 128,-1,2
 506 607 506 607 519 645.5 c 128,-1,3
 532 684 532 684 558 716.5 c 128,-1,4
 584 749 584 749 631 786 c 0,5,6
 665 817 665 817 699 851.5 c 128,-1,7
 733 886 733 886 760.5 922.5 c 128,-1,8
 788 959 788 959 805 997 c 128,-1,9
 822 1035 822 1035 822 1073 c 0,10,11
 822 1164 822 1164 773 1206 c 128,-1,12
 724 1248 724 1248 630 1248 c 0,13,14
 594 1248 594 1248 560 1238.5 c 128,-1,15
 526 1229 526 1229 499.5 1208 c 128,-1,16
 473 1187 473 1187 456.5 1154 c 128,-1,17
 440 1121 440 1121 439 1075 c 1,18,-1
 160 1075 l 1,19,20
 161 1177 161 1177 198 1252.5 c 128,-1,21
 235 1328 235 1328 298 1378 c 128,-1,22
 361 1428 361 1428 446 1452.5 c 128,-1,23
 531 1477 531 1477 630 1477 c 0,24,25
 741 1477 741 1477 829 1452 c 128,-1,26
 917 1427 917 1427 977.5 1377.5 c 128,-1,27
 1038 1328 1038 1328 1070 1255 c 128,-1,28
 1102 1182 1102 1182 1102 1086 c 0,29,30
 1102 1015 1102 1015 1078 956.5 c 128,-1,31
 1054 898 1054 898 1016 847.5 c 128,-1,32
 978 797 978 797 929.5 751.5 c 128,-1,33
 881 706 881 706 832 663 c 0,34,35
 802 633 802 633 785 610 c 128,-1,36
 768 587 768 587 760.5 563 c 128,-1,37
 753 539 753 539 751 510.5 c 128,-1,38
 749 482 749 482 749 442 c 1,39,-1
 499 442 l 1,0,1
458 139 m 0,40,41
 458 172 458 172 469 200.5 c 128,-1,42
 480 229 480 229 501 250 c 128,-1,43
 522 271 522 271 552 282.5 c 128,-1,44
 582 294 582 294 620 294 c 0,45,46
 657 294 657 294 687.5 282.5 c 128,-1,47
 718 271 718 271 739 250 c 128,-1,48
 760 229 760 229 771.5 200.5 c 128,-1,49
 783 172 783 172 783 139 c 0,50,51
 783 107 783 107 771.5 79 c 128,-1,52
 760 51 760 51 739 31 c 128,-1,53
 718 11 718 11 687.5 -0.5 c 128,-1,54
 657 -12 657 -12 620 -12 c 0,55,56
 582 -12 582 -12 552 -0.5 c 128,-1,57
 522 11 522 11 501 31 c 128,-1,58
 480 51 480 51 469 79 c 128,-1,59
 458 107 458 107 458 139 c 0,40,41
EndSplineSet
EndChar
StartChar: at
Encoding: 64 64 34
Width: 1229
Flags: W
LayerCount: 2
Back
Fore
SplineSet
1170 823 m 0,0,1
 1167 729 1167 729 1149 636.5 c 128,-1,2
 1131 544 1131 544 1095.5 470.5 c 128,-1,3
 1060 397 1060 397 1005 351.5 c 128,-1,4
 950 306 950 306 873 306 c 0,5,6
 822 306 822 306 780.5 331.5 c 128,-1,7
 739 357 739 357 715 405 c 1,8,9
 683 360 683 360 640.5 334 c 128,-1,10
 598 308 598 308 548 308 c 0,11,12
 488 308 488 308 443 335 c 128,-1,13
 398 362 398 362 370 412.5 c 128,-1,14
 342 463 342 463 331.5 534 c 128,-1,15
 321 605 321 605 329 692 c 0,16,17
 340 794 340 794 368.5 876 c 128,-1,18
 397 958 397 958 442 1016.5 c 128,-1,19
 487 1075 487 1075 548 1106.5 c 128,-1,20
 609 1138 609 1138 685 1138 c 0,21,22
 763 1138 763 1138 812.5 1115 c 128,-1,23
 862 1092 862 1092 893 1062 c 1,24,-1
 850 535 l 2,25,26
 848 506 848 506 851.5 490 c 128,-1,27
 855 474 855 474 862.5 466 c 128,-1,28
 870 458 870 458 880 456 c 128,-1,29
 890 454 890 454 900 454 c 0,30,31
 926 454 926 454 947.5 481 c 128,-1,32
 969 508 969 508 985 556 c 128,-1,33
 1001 604 1001 604 1009.5 670.5 c 128,-1,34
 1018 737 1018 737 1018 816 c 0,35,36
 1022 938 1022 938 1000.5 1027.5 c 128,-1,37
 979 1117 979 1117 933 1175 c 128,-1,38
 887 1233 887 1233 818 1261 c 128,-1,39
 749 1289 749 1289 659 1289 c 0,40,41
 557 1289 557 1289 475.5 1243.5 c 128,-1,42
 394 1198 394 1198 336.5 1117 c 128,-1,43
 279 1036 279 1036 246 924.5 c 128,-1,44
 213 813 213 813 209 680 c 0,45,46
 204 546 204 546 227.5 446 c 128,-1,47
 251 346 251 346 300.5 279.5 c 128,-1,48
 350 213 350 213 425.5 180 c 128,-1,49
 501 147 501 147 599 147 c 0,50,51
 630 147 630 147 663 151 c 128,-1,52
 696 155 696 155 727.5 162.5 c 128,-1,53
 759 170 759 170 787.5 180 c 128,-1,54
 816 190 816 190 839 202 c 1,55,-1
 871 67 l 1,56,57
 845 48 845 48 811.5 34 c 128,-1,58
 778 20 778 20 741 10.5 c 128,-1,59
 704 1 704 1 667 -3.5 c 128,-1,60
 630 -8 630 -8 596 -8 c 0,61,62
 450 -8 450 -8 344 40 c 128,-1,63
 238 88 238 88 169 177 c 128,-1,64
 100 266 100 266 68.5 393.5 c 128,-1,65
 37 521 37 521 42 680 c 0,66,67
 47 838 47 838 94.5 977 c 128,-1,68
 142 1116 142 1116 224.5 1219.5 c 128,-1,69
 307 1323 307 1323 420 1382.5 c 128,-1,70
 533 1442 533 1442 669 1442 c 0,71,72
 787 1442 787 1442 882 1397.5 c 128,-1,73
 977 1353 977 1353 1042.5 1271.5 c 128,-1,74
 1108 1190 1108 1190 1141 1076 c 128,-1,75
 1174 962 1174 962 1170 823 c 0,0,1
502 692 m 1,76,77
 496 577 496 577 520.5 519 c 128,-1,78
 545 461 545 461 594 461 c 0,79,80
 618 461 618 461 643 473.5 c 128,-1,81
 668 486 668 486 691 522 c 0,82,83
 691 525 691 525 691.5 528.5 c 128,-1,84
 692 532 692 532 692 535 c 2,85,-1
 730 982 l 1,86,87
 715 985 715 985 699 985 c 0,88,89
 612 985 612 985 564.5 910 c 128,-1,90
 517 835 517 835 502 692 c 1,76,77
EndSplineSet
EndChar
StartChar: A
Encoding: 65 65 35
Width: 1229
Flags: W
LayerCount: 2
Back
Fore
SplineSet
847 304 m 1,0,-1
 410 304 l 1,1,-1
 324 0 l 1,2,-1
 28 0 l 1,3,-1
 505 1456 l 1,4,-1
 760 1456 l 1,5,-1
 1228 0 l 1,6,-1
 932 0 l 1,7,-1
 847 304 l 1,0,-1
479 543 m 1,8,-1
 781 543 l 1,9,-1
 632 1079 l 1,10,-1
 479 543 l 1,8,-1
EndSplineSet
Substitution2: "'smcp' Lowercase to Small Capitals lookup 0 subtable" A.smcp
EndChar
StartChar: B
Encoding: 66 66 36
Width: 1229
Flags: W
LayerCount: 2
Back
Fore
SplineSet
129 0 m 1,0,-1
 129 1456 l 1,1,-1
 618 1456 l 2,2,3
 737 1456 737 1456 834.5 1432 c 128,-1,4
 932 1408 932 1408 1001 1359 c 128,-1,5
 1070 1310 1070 1310 1107.5 1235 c 128,-1,6
 1145 1160 1145 1160 1145 1058 c 0,7,8
 1144 956 1144 956 1090.5 875 c 128,-1,9
 1037 794 1037 794 933 752 c 1,10,11
 996 736 996 736 1042 704 c 128,-1,12
 1088 672 1088 672 1118.5 628.5 c 128,-1,13
 1149 585 1149 585 1163.5 533.5 c 128,-1,14
 1178 482 1178 482 1178 427 c 0,15,16
 1178 322 1178 322 1142 242 c 128,-1,17
 1106 162 1106 162 1039 108 c 128,-1,18
 972 54 972 54 876 27 c 128,-1,19
 780 0 780 0 660 0 c 2,20,-1
 129 0 l 1,0,-1
411 642 m 1,21,-1
 411 227 l 1,22,-1
 661 227 l 2,23,24
 776 228 776 228 836.5 283.5 c 128,-1,25
 897 339 897 339 897 429 c 0,26,27
 898 529 898 529 843 585 c 128,-1,28
 788 641 788 641 673 642 c 2,29,-1
 411 642 l 1,21,-1
411 845 m 1,30,-1
 620 845 l 2,31,32
 737 846 737 846 800 894 c 128,-1,33
 863 942 863 942 864 1035 c 0,34,35
 864 1137 864 1137 801 1181.5 c 128,-1,36
 738 1226 738 1226 619 1227 c 2,37,-1
 411 1227 l 1,38,-1
 411 845 l 1,30,-1
EndSplineSet
Substitution2: "'smcp' Lowercase to Small Capitals lookup 0 subtable" B.smcp
EndChar
StartChar: C
Encoding: 67 67 37
Width: 1229
Flags: W
LayerCount: 2
Back
Fore
SplineSet
1142 456 m 1,0,1
 1135 346 1135 346 1094.5 258 c 128,-1,2
 1054 170 1054 170 986 108 c 128,-1,3
 918 46 918 46 824 12.5 c 128,-1,4
 730 -21 730 -21 616 -21 c 0,5,6
 487 -21 487 -21 387 26.5 c 128,-1,7
 287 74 287 74 219 159.5 c 128,-1,8
 151 245 151 245 115 365 c 128,-1,9
 79 485 79 485 79 629 c 2,10,-1
 79 825 l 2,11,12
 79 970 79 970 117 1090 c 128,-1,13
 155 1210 155 1210 225 1296 c 128,-1,14
 295 1382 295 1382 394.5 1429.5 c 128,-1,15
 494 1477 494 1477 618 1477 c 0,16,17
 738 1477 738 1477 831.5 1443 c 128,-1,18
 925 1409 925 1409 991 1346 c 128,-1,19
 1057 1283 1057 1283 1095 1192 c 128,-1,20
 1133 1101 1133 1101 1143 987 c 1,21,-1
 863 987 l 1,22,23
 859 1052 859 1052 843.5 1101 c 128,-1,24
 828 1150 828 1150 798.5 1182.5 c 128,-1,25
 769 1215 769 1215 724.5 1231.5 c 128,-1,26
 680 1248 680 1248 618 1248 c 0,27,28
 553 1248 553 1248 505 1220 c 128,-1,29
 457 1192 457 1192 425.5 1138 c 128,-1,30
 394 1084 394 1084 379 1005.5 c 128,-1,31
 364 927 364 927 364 827 c 2,32,-1
 364 629 l 2,33,34
 364 414 364 414 424.5 311 c 128,-1,35
 485 208 485 208 616 208 c 0,36,37
 726 208 726 208 790 266.5 c 128,-1,38
 854 325 854 325 861 456 c 1,39,-1
 1142 456 l 1,0,1
EndSplineSet
Substitution2: "'smcp' Lowercase to Small Capitals lookup 0 subtable" C.smcp
EndChar
StartChar: D
Encoding: 68 68 38
Width: 1229
Flags: W
LayerCount: 2
Back
Fore
SplineSet
125 0 m 1,0,-1
 125 1456 l 1,1,-1
 502 1456 l 2,2,3
 647 1456 647 1456 764.5 1406.5 c 128,-1,4
 882 1357 882 1357 965.5 1268.5 c 128,-1,5
 1049 1180 1049 1180 1094.5 1057 c 128,-1,6
 1140 934 1140 934 1140 787 c 2,7,-1
 1140 667 l 2,8,9
 1140 520 1140 520 1094.5 397.5 c 128,-1,10
 1049 275 1049 275 967 186.5 c 128,-1,11
 885 98 885 98 770 49 c 128,-1,12
 655 0 655 0 516 0 c 2,13,-1
 125 0 l 1,0,-1
408 1228 m 1,14,-1
 408 226 l 1,15,-1
 516 226 l 2,16,17
 595 226 595 226 657.5 256 c 128,-1,18
 720 286 720 286 763.5 343 c 128,-1,19
 807 400 807 400 830 481.5 c 128,-1,20
 853 563 853 563 853 667 c 2,21,-1
 853 789 l 2,22,23
 853 887 853 887 830.5 967.5 c 128,-1,24
 808 1048 808 1048 763.5 1106 c 128,-1,25
 719 1164 719 1164 653.5 1196 c 128,-1,26
 588 1228 588 1228 502 1228 c 2,27,-1
 408 1228 l 1,14,-1
EndSplineSet
Substitution2: "'smcp' Lowercase to Small Capitals lookup 0 subtable" D.smcp
EndChar
StartChar: E
Encoding: 69 69 39
Width: 1229
Flags: W
LayerCount: 2
Back
Fore
SplineSet
1027 638 m 1,0,-1
 429 638 l 1,1,-1
 429 227 l 1,2,-1
 1128 227 l 1,3,-1
 1128 0 l 1,4,-1
 147 0 l 1,5,-1
 147 1456 l 1,6,-1
 1125 1456 l 1,7,-1
 1125 1227 l 1,8,-1
 429 1227 l 1,9,-1
 429 860 l 1,10,-1
 1027 860 l 1,11,-1
 1027 638 l 1,0,-1
EndSplineSet
Substitution2: "'smcp' Lowercase to Small Capitals lookup 0 subtable" E.smcp
EndChar
StartChar: G
Encoding: 71 71 41
Width: 1229
Flags: W
LayerCount: 2
Back
Fore
SplineSet
1132 170 m 1,0,1
 1105 137 1105 137 1058 103 c 128,-1,2
 1011 69 1011 69 946.5 41.5 c 128,-1,3
 882 14 882 14 802 -3 c 128,-1,4
 722 -20 722 -20 630 -20 c 0,5,6
 506 -20 506 -20 406 24 c 128,-1,7
 306 68 306 68 235 151 c 128,-1,8
 164 234 164 234 125.5 354.5 c 128,-1,9
 87 475 87 475 87 628 c 2,10,-1
 87 826 l 2,11,12
 87 979 87 979 127.5 1099.5 c 128,-1,13
 168 1220 168 1220 239.5 1304 c 128,-1,14
 311 1388 311 1388 407.5 1432 c 128,-1,15
 504 1476 504 1476 617 1476 c 0,16,17
 740 1476 740 1476 831.5 1445 c 128,-1,18
 923 1414 923 1414 986 1355.5 c 128,-1,19
 1049 1297 1049 1297 1084.5 1213 c 128,-1,20
 1120 1129 1120 1129 1131 1024 c 1,21,-1
 857 1024 l 1,22,23
 843 1136 843 1136 789.5 1192.5 c 128,-1,24
 736 1249 736 1249 624 1249 c 0,25,26
 570 1249 570 1249 524 1221.5 c 128,-1,27
 478 1194 478 1194 444 1141 c 128,-1,28
 410 1088 410 1088 390 1009.5 c 128,-1,29
 370 931 370 931 370 828 c 2,30,-1
 370 628 l 2,31,32
 371 424 371 424 438 315.5 c 128,-1,33
 505 207 505 207 643 206 c 0,34,35
 676 206 676 206 708 211 c 128,-1,36
 740 216 740 216 768 225 c 128,-1,37
 796 234 796 234 817.5 245.5 c 128,-1,38
 839 257 839 257 850 270 c 1,39,-1
 851 534 l 1,40,-1
 610 534 l 1,41,-1
 610 744 l 1,42,-1
 1131 744 l 1,43,-1
 1132 170 l 1,0,1
EndSplineSet
Substitution2: "'smcp' Lowercase to Small Capitals lookup 0 subtable" G.smcp
EndChar
StartChar: H
Encoding: 72 72 42
Width: 1229
Flags: W
LayerCount: 2
Back
Fore
SplineSet
1092 0 m 1,0,-1
 814 0 l 1,1,-1
 814 631 l 1,2,-1
 402 631 l 1,3,-1
 402 0 l 1,4,-1
 123 0 l 1,5,-1
 123 1456 l 1,6,-1
 402 1456 l 1,7,-1
 402 859 l 1,8,-1
 814 859 l 1,9,-1
 814 1456 l 1,10,-1
 1092 1456 l 1,11,-1
 1092 0 l 1,0,-1
EndSplineSet
Substitution2: "'smcp' Lowercase to Small Capitals lookup 0 subtable" H.smcp
EndChar
StartChar: J
Encoding: 74 74 44
Width: 1229
Flags: W
LayerCount: 2
Back
Fore
SplineSet
818 1456 m 1,0,-1
 1099 1456 l 1,1,-1
 1100 447 l 2,2,3
 1099 343 1099 343 1060.5 257.5 c 128,-1,4
 1022 172 1022 172 955 110 c 128,-1,5
 888 48 888 48 797.5 14 c 128,-1,6
 707 -20 707 -20 603 -20 c 0,7,8
 493 -20 493 -20 403 8 c 128,-1,9
 313 36 313 36 248.5 91.5 c 128,-1,10
 184 147 184 147 148 231 c 128,-1,11
 112 315 112 315 111 428 c 1,12,-1
 393 428 l 1,13,14
 394 311 394 311 445 258.5 c 128,-1,15
 496 206 496 206 603 206 c 0,16,17
 651 206 651 206 691 224.5 c 128,-1,18
 731 243 731 243 759 275 c 128,-1,19
 787 307 787 307 802.5 351.5 c 128,-1,20
 818 396 818 396 818 447 c 2,21,-1
 818 1456 l 1,0,-1
EndSplineSet
Substitution2: "'smcp' Lowercase to Small Capitals lookup 0 subtable" J.smcp
EndChar
StartChar: K
Encoding: 75 75 45
Width: 1229
Flags: W
LayerCount: 2
Back
Fore
SplineSet
565 598 m 1,0,-1
 411 429 l 1,1,-1
 411 0 l 1,2,-1
 129 0 l 1,3,-1
 129 1456 l 1,4,-1
 411 1456 l 1,5,-1
 411 789 l 1,6,-1
 543 967 l 1,7,-1
 897 1456 l 1,8,-1
 1241 1456 l 1,9,-1
 751 812 l 1,10,-1
 1259 0 l 1,11,-1
 925 0 l 1,12,-1
 565 598 l 1,0,-1
EndSplineSet
Substitution2: "'smcp' Lowercase to Small Capitals lookup 0 subtable" K.smcp
EndChar
StartChar: L
Encoding: 76 76 46
Width: 1229
Flags: W
LayerCount: 2
Back
Fore
SplineSet
432 227 m 1,0,-1
 1114 227 l 1,1,-1
 1114 0 l 1,2,-1
 150 0 l 1,3,-1
 150 1456 l 1,4,-1
 432 1456 l 1,5,-1
 432 227 l 1,0,-1
EndSplineSet
Substitution2: "'smcp' Lowercase to Small Capitals lookup 0 subtable" L.smcp
EndChar
StartChar: M
Encoding: 77 77 47
Width: 1229
Flags: W
LayerCount: 2
Back
Fore
SplineSet
476 1456 m 1,0,-1
 614 909 l 1,1,-1
 771 1456 l 1,2,-1
 1120 1456 l 1,3,-1
 1120 0 l 1,4,-1
 862 0 l 1,5,-1
 862 431 l 1,6,-1
 874 1112 l 1,7,-1
 683 480 l 1,8,-1
 544 480 l 1,9,-1
 373 1085 l 1,10,-1
 385 431 l 1,11,-1
 385 0 l 1,12,-1
 127 0 l 1,13,-1
 127 1456 l 1,14,-1
 476 1456 l 1,0,-1
EndSplineSet
Substitution2: "'smcp' Lowercase to Small Capitals lookup 0 subtable" M.smcp
EndChar
StartChar: O
Encoding: 79 79 49
Width: 1229
Flags: W
LayerCount: 2
Back
Fore
SplineSet
1147 621 m 2,0,1
 1147 481 1147 481 1110 363 c 128,-1,2
 1073 245 1073 245 1003 160 c 128,-1,3
 933 75 933 75 832.5 27.5 c 128,-1,4
 732 -20 732 -20 606 -20 c 256,5,6
 480 -20 480 -20 382 27.5 c 128,-1,7
 284 75 284 75 217 160.5 c 128,-1,8
 150 246 150 246 115 363.5 c 128,-1,9
 80 481 80 481 80 621 c 2,10,-1
 80 833 l 2,11,12
 80 973 80 973 115 1091 c 128,-1,13
 150 1209 150 1209 217 1294.5 c 128,-1,14
 284 1380 284 1380 381.5 1428 c 128,-1,15
 479 1476 479 1476 605 1476 c 0,16,17
 732 1476 732 1476 832.5 1428 c 128,-1,18
 933 1380 933 1380 1003 1294.5 c 128,-1,19
 1073 1209 1073 1209 1110 1091 c 128,-1,20
 1147 973 1147 973 1147 833 c 2,21,-1
 1147 621 l 2,0,1
862 835 m 2,22,23
 862 924 862 924 847.5 999 c 128,-1,24
 833 1074 833 1074 802 1128 c 128,-1,25
 771 1182 771 1182 722.5 1212.5 c 128,-1,26
 674 1243 674 1243 605 1243 c 0,27,28
 537 1243 537 1243 491 1212.5 c 128,-1,29
 445 1182 445 1182 417 1128 c 128,-1,30
 389 1074 389 1074 377 999 c 128,-1,31
 365 924 365 924 365 835 c 2,32,-1
 365 621 l 2,33,34
 365 533 365 533 377 458 c 128,-1,35
 389 383 389 383 417 328 c 128,-1,36
 445 273 445 273 491 242 c 128,-1,37
 537 211 537 211 606 211 c 0,38,39
 674 211 674 211 722.5 242 c 128,-1,40
 771 273 771 273 801.5 327.5 c 128,-1,41
 832 382 832 382 847 457 c 128,-1,42
 862 532 862 532 862 621 c 2,43,-1
 862 835 l 2,22,23
EndSplineSet
Substitution2: "'smcp' Lowercase to Small Capitals lookup 0 subtable" O.smcp
EndChar
StartChar: P
Encoding: 80 80 50
Width: 1229
Flags: W
LayerCount: 2
Back
Fore
SplineSet
430 534 m 1,0,-1
 430 0 l 1,1,-1
 149 0 l 1,2,-1
 149 1456 l 1,3,-1
 647 1456 l 2,4,5
 766 1456 766 1456 862 1421.5 c 128,-1,6
 958 1387 958 1387 1025.5 1325.5 c 128,-1,7
 1093 1264 1093 1264 1129.5 1178 c 128,-1,8
 1166 1092 1166 1092 1166 987 c 0,9,10
 1166 889 1166 889 1129.5 806 c 128,-1,11
 1093 723 1093 723 1025.5 662.5 c 128,-1,12
 958 602 958 602 862 568 c 128,-1,13
 766 534 766 534 647 534 c 2,14,-1
 430 534 l 1,0,-1
430 762 m 1,15,-1
 647 762 l 2,16,17
 707 762 707 762 751 780 c 128,-1,18
 795 798 795 798 824.5 829 c 128,-1,19
 854 860 854 860 868.5 900.5 c 128,-1,20
 883 941 883 941 883 985 c 0,21,22
 883 1036 883 1036 868.5 1080 c 128,-1,23
 854 1124 854 1124 824.5 1157 c 128,-1,24
 795 1190 795 1190 751 1209 c 128,-1,25
 707 1228 707 1228 647 1228 c 2,26,-1
 430 1228 l 1,27,-1
 430 762 l 1,15,-1
EndSplineSet
Substitution2: "'smcp' Lowercase to Small Capitals lookup 0 subtable" P.smcp
EndChar
StartChar: Q
Encoding: 81 81 51
Width: 1229
Flags: W
LayerCount: 2
Back
Fore
SplineSet
1156 577 m 2,0,1
 1155 443 1155 443 1109.5 324.5 c 128,-1,2
 1064 206 1064 206 976 122 c 1,3,-1
 1217 -96 l 1,4,-1
 1036 -257 l 1,5,-1
 759 -1 l 1,6,7
 724 -10 724 -10 687.5 -15 c 128,-1,8
 651 -20 651 -20 612 -20 c 0,9,10
 486 -20 486 -20 388 28.5 c 128,-1,11
 290 77 290 77 222.5 159.5 c 128,-1,12
 155 242 155 242 120 350 c 128,-1,13
 85 458 85 458 85 577 c 2,14,-1
 85 829 l 2,15,16
 85 970 85 970 120 1088.5 c 128,-1,17
 155 1207 155 1207 222.5 1293 c 128,-1,18
 290 1379 290 1379 388 1427.5 c 128,-1,19
 486 1476 486 1476 612 1476 c 0,20,21
 739 1476 739 1476 840 1427.5 c 128,-1,22
 941 1379 941 1379 1011 1293 c 128,-1,23
 1081 1207 1081 1207 1118.5 1088.5 c 128,-1,24
 1156 970 1156 970 1156 829 c 2,25,-1
 1156 577 l 2,0,1
871 831 m 2,26,27
 871 921 871 921 856.5 996.5 c 128,-1,28
 842 1072 842 1072 811 1127 c 128,-1,29
 780 1182 780 1182 731 1212.5 c 128,-1,30
 682 1243 682 1243 612 1243 c 0,31,32
 543 1243 543 1243 496.5 1212 c 128,-1,33
 450 1181 450 1181 422 1126.5 c 128,-1,34
 394 1072 394 1072 382 996.5 c 128,-1,35
 370 921 370 921 370 831 c 2,36,-1
 370 577 l 2,37,38
 370 509 370 509 382 443.5 c 128,-1,39
 394 378 394 378 422 326.5 c 128,-1,40
 450 275 450 275 496.5 243 c 128,-1,41
 543 211 543 211 612 211 c 0,42,43
 682 211 682 211 731 242.5 c 128,-1,44
 780 274 780 274 811 326 c 128,-1,45
 842 378 842 378 856.5 443.5 c 128,-1,46
 871 509 871 509 871 577 c 2,47,-1
 871 831 l 2,26,27
EndSplineSet
Substitution2: "'smcp' Lowercase to Small Capitals lookup 0 subtable" Q.smcp
EndChar
StartChar: R
Encoding: 82 82 52
Width: 1229
Flags: W
LayerCount: 2
Back
Fore
SplineSet
625 544 m 1,0,-1
 412 544 l 1,1,-1
 412 0 l 1,2,-1
 131 0 l 1,3,-1
 131 1456 l 1,4,-1
 619 1456 l 2,5,6
 740 1456 740 1456 838 1427.5 c 128,-1,7
 936 1399 936 1399 1005.5 1344 c 128,-1,8
 1075 1289 1075 1289 1112.5 1207 c 128,-1,9
 1150 1125 1150 1125 1150 1017 c 0,10,11
 1150 939 1150 939 1131.5 876.5 c 128,-1,12
 1113 814 1113 814 1078.5 764.5 c 128,-1,13
 1044 715 1044 715 995.5 678 c 128,-1,14
 947 641 947 641 887 614 c 1,15,-1
 1200 13 l 1,16,-1
 1200 0 l 1,17,-1
 899 0 l 1,18,-1
 625 544 l 1,0,-1
412 772 m 1,19,-1
 620 772 l 2,20,21
 739 772 739 772 803.5 832.5 c 128,-1,22
 868 893 868 893 868 998 c 0,23,24
 868 1107 868 1107 805 1167.5 c 128,-1,25
 742 1228 742 1228 619 1228 c 2,26,-1
 412 1228 l 1,27,-1
 412 772 l 1,19,-1
EndSplineSet
Substitution2: "'smcp' Lowercase to Small Capitals lookup 0 subtable" R.smcp
EndChar
StartChar: U
Encoding: 85 85 55
Width: 1229
Flags: W
LayerCount: 2
Back
Fore
SplineSet
1101 1456 m 1,0,-1
 1102 491 l 2,1,2
 1102 369 1102 369 1068.5 274 c 128,-1,3
 1035 179 1035 179 971.5 113.5 c 128,-1,4
 908 48 908 48 816.5 14 c 128,-1,5
 725 -20 725 -20 608 -20 c 0,6,7
 498 -20 498 -20 409.5 14 c 128,-1,8
 321 48 321 48 258 113 c 128,-1,9
 195 178 195 178 160.5 273.5 c 128,-1,10
 126 369 126 369 126 491 c 2,11,-1
 127 1456 l 1,12,-1
 408 1456 l 1,13,-1
 409 491 l 2,14,15
 410 350 410 350 460.5 278 c 128,-1,16
 511 206 511 206 608 206 c 0,17,18
 711 206 711 206 765.5 278 c 128,-1,19
 820 350 820 350 821 491 c 2,20,-1
 822 1456 l 1,21,-1
 1101 1456 l 1,0,-1
EndSplineSet
Substitution2: "'smcp' Lowercase to Small Capitals lookup 0 subtable" U.smcp
EndChar
StartChar: V
Encoding: 86 86 56
Width: 1229
Flags: W
LayerCount: 2
Back
Fore
SplineSet
613 407 m 1,0,-1
 888 1456 l 1,1,-1
 1198 1456 l 1,2,-1
 757 0 l 1,3,-1
 471 0 l 1,4,-1
 31 1456 l 1,5,-1
 341 1456 l 1,6,-1
 613 407 l 1,0,-1
EndSplineSet
Substitution2: "'smcp' Lowercase to Small Capitals lookup 0 subtable" V.smcp
EndChar
StartChar: W
Encoding: 87 87 57
Width: 1229
Flags: W
LayerCount: 2
Back
Fore
SplineSet
843 579 m 1,0,-1
 949 1456 l 1,1,-1
 1207 1456 l 1,2,-1
 1005 0 l 1,3,-1
 751 0 l 1,4,-1
 613 860 l 1,5,-1
 480 0 l 1,6,-1
 226 0 l 1,7,-1
 26 1456 l 1,8,-1
 283 1456 l 1,9,-1
 387 585 l 1,10,-1
 511 1456 l 1,11,-1
 712 1456 l 1,12,-1
 843 579 l 1,0,-1
EndSplineSet
Substitution2: "'smcp' Lowercase to Small Capitals lookup 0 subtable" W.smcp
EndChar
StartChar: X
Encoding: 88 88 58
Width: 1229
Flags: W
LayerCount: 2
Back
Fore
SplineSet
624 934 m 1,0,-1
 883 1456 l 1,1,-1
 1213 1456 l 1,2,-1
 803 734 l 1,3,-1
 1223 0 l 1,4,-1
 895 0 l 1,5,-1
 628 530 l 1,6,-1
 362 0 l 1,7,-1
 30 0 l 1,8,-1
 450 734 l 1,9,-1
 41 1456 l 1,10,-1
 369 1456 l 1,11,-1
 624 934 l 1,0,-1
EndSplineSet
Substitution2: "'smcp' Lowercase to Small Capitals lookup 0 subtable" X.smcp
EndChar
StartChar: Y
Encoding: 89 89 59
Width: 1229
Flags: W
LayerCount: 2
Back
Fore
SplineSet
628 785 m 1,0,-1
 915 1456 l 1,1,-1
 1224 1456 l 1,2,-1
 766 504 l 1,3,-1
 765 0 l 1,4,-1
 485 0 l 1,5,-1
 484 516 l 1,6,-1
 33 1456 l 1,7,-1
 341 1456 l 1,8,-1
 628 785 l 1,0,-1
EndSplineSet
Substitution2: "'smcp' Lowercase to Small Capitals lookup 0 subtable" Y.smcp
EndChar
StartChar: Z
Encoding: 90 90 60
Width: 1229
Flags: W
LayerCount: 2
Back
Fore
SplineSet
431 227 m 1,0,-1
 1153 227 l 1,1,-1
 1153 0 l 1,2,-1
 89 0 l 1,3,-1
 89 172 l 1,4,-1
 795 1227 l 1,5,-1
 91 1227 l 1,6,-1
 91 1456 l 1,7,-1
 1135 1456 l 1,8,-1
 1136 1289 l 1,9,-1
 431 227 l 1,0,-1
EndSplineSet
Substitution2: "'smcp' Lowercase to Small Capitals lookup 0 subtable" Z.smcp
EndChar
StartChar: bracketleft
Encoding: 91 91 61
Width: 1229
Flags: W
LayerCount: 2
Back
Fore
SplineSet
847 1475 m 1,0,-1
 677 1475 l 1,1,-1
 677 -120 l 1,2,-1
 847 -120 l 1,3,-1
 847 -335 l 1,4,-1
 400 -335 l 1,5,-1
 400 1690 l 1,6,-1
 847 1690 l 1,7,-1
 847 1475 l 1,0,-1
EndSplineSet
EndChar
StartChar: backslash
Encoding: 92 92 62
Width: 1229
Flags: W
LayerCount: 2
Back
Fore
SplineSet
240 1456 m 1,0,-1
 500 1456 l 1,1,-1
 1045 -125 l 1,2,-1
 785 -125 l 1,3,-1
 240 1456 l 1,0,-1
EndSplineSet
EndChar
StartChar: bracketright
Encoding: 93 93 63
Width: 1229
Flags: W
LayerCount: 2
Back
Fore
SplineSet
400 1690 m 1,0,-1
 848 1690 l 1,1,-1
 848 -335 l 1,2,-1
 400 -335 l 1,3,-1
 400 -120 l 1,4,-1
 571 -120 l 1,5,-1
 571 1475 l 1,6,-1
 400 1475 l 1,7,-1
 400 1690 l 1,0,-1
EndSplineSet
EndChar
StartChar: asciicircum
Encoding: 94 94 64
Width: 1229
Flags: W
LayerCount: 2
Back
Fore
SplineSet
437 687 m 1,0,-1
 213 687 l 1,1,-1
 532 1456 l 1,2,-1
 733 1456 l 1,3,-1
 1051 687 l 1,4,-1
 828 687 l 1,5,-1
 652 1141 l 1,6,-1
 631 1225 l 1,7,-1
 610 1141 l 1,8,-1
 437 687 l 1,0,-1
EndSplineSet
EndChar
StartChar: grave
Encoding: 96 96 66
Width: 1229
Flags: W
LayerCount: 2
Back
Fore
SplineSet
894 1199 m 1,0,-1
 675 1199 l 1,1,-1
 411 1478 l 1,2,-1
 717 1478 l 1,3,-1
 894 1199 l 1,0,-1
EndSplineSet
EndChar
StartChar: a
Encoding: 97 97 67
Width: 1229
Flags: W
LayerCount: 2
Back
Fore
SplineSet
817 0 m 1,0,1
 807 20 807 20 800 46 c 128,-1,2
 793 72 793 72 788 101 c 1,3,4
 765 76 765 76 735 54 c 128,-1,5
 705 32 705 32 668.5 15.5 c 128,-1,6
 632 -1 632 -1 588 -10.5 c 128,-1,7
 544 -20 544 -20 493 -20 c 0,8,9
 410 -20 410 -20 340.5 4 c 128,-1,10
 271 28 271 28 221 71 c 128,-1,11
 171 114 171 114 143 173.5 c 128,-1,12
 115 233 115 233 115 303 c 0,13,14
 115 474 115 474 242.5 567.5 c 128,-1,15
 370 661 370 661 623 661 c 2,16,-1
 778 661 l 1,17,-1
 778 725 l 2,18,19
 778 803 778 803 727 848.5 c 128,-1,20
 676 894 676 894 580 894 c 0,21,22
 495 894 495 894 456 857.5 c 128,-1,23
 417 821 417 821 417 760 c 1,24,-1
 139 760 l 1,25,26
 139 829 139 829 169.5 891 c 128,-1,27
 200 953 200 953 258.5 1000 c 128,-1,28
 317 1047 317 1047 401.5 1074.5 c 128,-1,29
 486 1102 486 1102 595 1102 c 0,30,31
 693 1102 693 1102 777.5 1078 c 128,-1,32
 862 1054 862 1054 924 1007 c 128,-1,33
 986 960 986 960 1021 888.5 c 128,-1,34
 1056 817 1056 817 1056 723 c 2,35,-1
 1056 259 l 2,36,37
 1056 172 1056 172 1067 115 c 128,-1,38
 1078 58 1078 58 1099 17 c 1,39,-1
 1099 0 l 1,40,-1
 817 0 l 1,0,1
552 195 m 0,41,42
 594 195 594 195 630 205 c 128,-1,43
 666 215 666 215 695 231 c 128,-1,44
 724 247 724 247 745 267.5 c 128,-1,45
 766 288 766 288 778 309 c 1,46,-1
 778 495 l 1,47,-1
 636 495 l 2,48,49
 571 495 571 495 525 482.5 c 128,-1,50
 479 470 479 470 450 447.5 c 128,-1,51
 421 425 421 425 407 393.5 c 128,-1,52
 393 362 393 362 393 325 c 0,53,54
 393 269 393 269 432.5 232 c 128,-1,55
 472 195 472 195 552 195 c 0,41,42
EndSplineSet
Substitution2: "'smcp' Lowercase to Small Capitals lookup 0 subtable" A.smcp
EndChar
StartChar: b
Encoding: 98 98 68
Width: 1229
Flags: W
LayerCount: 2
Back
Fore
SplineSet
1116 530 m 2,0,1
 1116 409 1116 409 1089.5 308 c 128,-1,2
 1063 207 1063 207 1010 134 c 128,-1,3
 957 61 957 61 878 20.5 c 128,-1,4
 799 -20 799 -20 694 -20 c 0,5,6
 599 -20 599 -20 529.5 15.5 c 128,-1,7
 460 51 460 51 410 115 c 1,8,-1
 397 0 l 1,9,-1
 147 0 l 1,10,-1
 147 1536 l 1,11,-1
 425 1536 l 1,12,-1
 425 984 l 1,13,14
 473 1040 473 1040 538.5 1071 c 128,-1,15
 604 1102 604 1102 692 1102 c 0,16,17
 798 1102 798 1102 877.5 1061 c 128,-1,18
 957 1020 957 1020 1010 947 c 128,-1,19
 1063 874 1063 874 1089.5 772.5 c 128,-1,20
 1116 671 1116 671 1116 551 c 2,21,-1
 1116 530 l 2,0,1
838 551 m 2,22,23
 838 617 838 617 828 676 c 128,-1,24
 818 735 818 735 793.5 779.5 c 128,-1,25
 769 824 769 824 727 850 c 128,-1,26
 685 876 685 876 622 876 c 0,27,28
 546 876 546 876 498.5 844 c 128,-1,29
 451 812 451 812 425 756 c 1,30,-1
 425 325 l 1,31,32
 451 269 451 269 498.5 237 c 128,-1,33
 546 205 546 205 624 205 c 0,34,35
 687 205 687 205 728 229.5 c 128,-1,36
 769 254 769 254 793.5 297.5 c 128,-1,37
 818 341 818 341 828 400.5 c 128,-1,38
 838 460 838 460 838 530 c 2,39,-1
 838 551 l 2,22,23
EndSplineSet
Substitution2: "'smcp' Lowercase to Small Capitals lookup 0 subtable" B.smcp
EndChar
StartChar: d
Encoding: 100 100 70
Width: 1229
Flags: W
LayerCount: 2
Back
Fore
SplineSet
112 549 m 2,0,1
 112 672 112 672 140.5 774 c 128,-1,2
 169 876 169 876 224 949 c 128,-1,3
 279 1022 279 1022 357.5 1062 c 128,-1,4
 436 1102 436 1102 537 1102 c 0,5,6
 622 1102 622 1102 686.5 1071.5 c 128,-1,7
 751 1041 751 1041 801 985 c 1,8,-1
 801 1536 l 1,9,-1
 1080 1536 l 1,10,-1
 1080 0 l 1,11,-1
 829 0 l 1,12,-1
 815 113 l 1,13,14
 764 50 764 50 695 15 c 128,-1,15
 626 -20 626 -20 535 -20 c 0,16,17
 436 -20 436 -20 357.5 21.5 c 128,-1,18
 279 63 279 63 224.5 136 c 128,-1,19
 170 209 170 209 141 309.5 c 128,-1,20
 112 410 112 410 112 528 c 2,21,-1
 112 549 l 2,0,1
390 528 m 2,22,23
 390 460 390 460 401.5 401.5 c 128,-1,24
 413 343 413 343 439 299.5 c 128,-1,25
 465 256 465 256 506 231 c 128,-1,26
 547 206 547 206 606 206 c 0,27,28
 678 206 678 206 725.5 237 c 128,-1,29
 773 268 773 268 801 322 c 1,30,-1
 801 760 l 1,31,32
 773 815 773 815 726 845.5 c 128,-1,33
 679 876 679 876 608 876 c 0,34,35
 549 876 549 876 507.5 850.5 c 128,-1,36
 466 825 466 825 440 780.5 c 128,-1,37
 414 736 414 736 402 676.5 c 128,-1,38
 390 617 390 617 390 549 c 2,39,-1
 390 528 l 2,22,23
EndSplineSet
Substitution2: "'smcp' Lowercase to Small Capitals lookup 0 subtable" D.smcp
EndChar
StartChar: e
Encoding: 101 101 71
Width: 1229
Flags: W
LayerCount: 2
Back
Fore
SplineSet
666 -20 m 0,0,1
 541 -20 541 -20 439 21 c 128,-1,2
 337 62 337 62 264 132.5 c 128,-1,3
 191 203 191 203 151.5 298.5 c 128,-1,4
 112 394 112 394 112 503 c 2,5,-1
 112 543 l 2,6,7
 112 667 112 667 151 769.5 c 128,-1,8
 190 872 190 872 260 946 c 128,-1,9
 330 1020 330 1020 426 1061 c 128,-1,10
 522 1102 522 1102 635 1102 c 0,11,12
 752 1102 752 1102 843.5 1063.5 c 128,-1,13
 935 1025 935 1025 998.5 955 c 128,-1,14
 1062 885 1062 885 1095 786.5 c 128,-1,15
 1128 688 1128 688 1128 569 c 2,16,-1
 1128 451 l 1,17,-1
 394 451 l 1,18,19
 402 396 402 396 426.5 350.5 c 128,-1,20
 451 305 451 305 489 272 c 128,-1,21
 527 239 527 239 576 221 c 128,-1,22
 625 203 625 203 683 203 c 0,23,24
 724 203 724 203 764.5 211 c 128,-1,25
 805 219 805 219 842 234.5 c 128,-1,26
 879 250 879 250 911 273 c 128,-1,27
 943 296 943 296 967 327 c 1,28,-1
 1106 177 l 1,29,30
 1080 140 1080 140 1038.5 104.5 c 128,-1,31
 997 69 997 69 940.5 41.5 c 128,-1,32
 884 14 884 14 815 -3 c 128,-1,33
 746 -20 746 -20 666 -20 c 0,0,1
633 877 m 0,34,35
 586 877 586 877 547 860.5 c 128,-1,36
 508 844 508 844 478.5 813 c 128,-1,37
 449 782 449 782 429 739 c 128,-1,38
 409 696 409 696 399 643 c 1,39,-1
 855 643 l 1,40,-1
 855 665 l 2,41,42
 853 709 853 709 838 748 c 128,-1,43
 823 787 823 787 795 815.5 c 128,-1,44
 767 844 767 844 726.5 860.5 c 128,-1,45
 686 877 686 877 633 877 c 0,34,35
EndSplineSet
Substitution2: "'smcp' Lowercase to Small Capitals lookup 0 subtable" E.smcp
EndChar
StartChar: f
Encoding: 102 102 72
Width: 1229
Flags: W
LayerCount: 2
Back
Fore
SplineSet
410 0 m 1,0,-1
 410 877 l 1,1,-1
 126 877 l 1,2,-1
 126 1082 l 1,3,-1
 410 1082 l 1,4,-1
 410 1141 l 2,5,6
 410 1248 410 1248 444 1330 c 128,-1,7
 478 1412 478 1412 541 1468 c 128,-1,8
 604 1524 604 1524 694 1552.5 c 128,-1,9
 784 1581 784 1581 895 1581 c 0,10,11
 930 1581 930 1581 962.5 1578.5 c 128,-1,12
 995 1576 995 1576 1026 1572 c 128,-1,13
 1057 1568 1057 1568 1088.5 1563 c 128,-1,14
 1120 1558 1120 1558 1154 1552 c 1,15,-1
 1136 1334 l 1,16,17
 1098 1342 1098 1342 1050 1348 c 128,-1,18
 1002 1354 1002 1354 937 1354 c 0,19,20
 807 1354 807 1354 748 1299 c 128,-1,21
 689 1244 689 1244 689 1141 c 2,22,-1
 689 1082 l 1,23,-1
 1079 1082 l 1,24,-1
 1079 877 l 1,25,-1
 689 877 l 1,26,-1
 689 0 l 1,27,-1
 410 0 l 1,0,-1
EndSplineSet
Substitution2: "'smcp' Lowercase to Small Capitals lookup 0 subtable" F.smcp
EndChar
StartChar: g
Encoding: 103 103 73
Width: 1229
Flags: W
LayerCount: 2
Back
Fore
SplineSet
113 549 m 2,0,1
 113 672 113 672 143.5 774 c 128,-1,2
 174 876 174 876 231 949 c 128,-1,3
 288 1022 288 1022 369 1062 c 128,-1,4
 450 1102 450 1102 552 1102 c 0,5,6
 647 1102 647 1102 715 1070 c 128,-1,7
 783 1038 783 1038 831 979 c 1,8,-1
 842 1082 l 1,9,-1
 1095 1082 l 1,10,-1
 1095 35 l 2,11,12
 1095 -75 1095 -75 1057.5 -161 c 128,-1,13
 1020 -247 1020 -247 952.5 -306 c 128,-1,14
 885 -365 885 -365 790.5 -395.5 c 128,-1,15
 696 -426 696 -426 582 -426 c 0,16,17
 533 -426 533 -426 477 -416 c 128,-1,18
 421 -406 421 -406 366 -385 c 128,-1,19
 311 -364 311 -364 262 -331.5 c 128,-1,20
 213 -299 213 -299 178 -254 c 1,21,-1
 303 -85 l 1,22,23
 356 -145 356 -145 423 -176.5 c 128,-1,24
 490 -208 490 -208 568 -208 c 0,25,26
 685 -208 685 -208 750.5 -145.5 c 128,-1,27
 816 -83 816 -83 816 32 c 2,28,-1
 816 94 l 1,29,30
 767 40 767 40 701.5 10 c 128,-1,31
 636 -20 636 -20 550 -20 c 0,32,33
 449 -20 449 -20 368.5 21.5 c 128,-1,34
 288 63 288 63 231 136 c 128,-1,35
 174 209 174 209 143.5 309.5 c 128,-1,36
 113 410 113 410 113 528 c 2,37,-1
 113 549 l 2,0,1
392 528 m 2,38,39
 392 460 392 460 405.5 401.5 c 128,-1,40
 419 343 419 343 447 299.5 c 128,-1,41
 475 256 475 256 518 231 c 128,-1,42
 561 206 561 206 620 206 c 0,43,44
 693 206 693 206 740.5 234 c 128,-1,45
 788 262 788 262 816 312 c 1,46,-1
 816 770 l 1,47,48
 788 821 788 821 740.5 848.5 c 128,-1,49
 693 876 693 876 622 876 c 0,50,51
 563 876 563 876 520 850.5 c 128,-1,52
 477 825 477 825 448.5 780.5 c 128,-1,53
 420 736 420 736 406 676.5 c 128,-1,54
 392 617 392 617 392 549 c 2,55,-1
 392 528 l 2,38,39
EndSplineSet
Substitution2: "'smcp' Lowercase to Small Capitals lookup 0 subtable" G.smcp
EndChar
StartChar: h
Encoding: 104 104 74
Width: 1229
Flags: W
LayerCount: 2
Back
Fore
SplineSet
419 933 m 1,0,1
 473 1012 473 1012 550.5 1057 c 128,-1,2
 628 1102 628 1102 724 1102 c 0,3,4
 809 1102 809 1102 880 1076.5 c 128,-1,5
 951 1051 951 1051 1002 997 c 128,-1,6
 1053 943 1053 943 1081.5 858.5 c 128,-1,7
 1110 774 1110 774 1110 655 c 2,8,-1
 1110 0 l 1,9,-1
 832 0 l 1,10,-1
 832 657 l 2,11,12
 832 715 832 715 817.5 757 c 128,-1,13
 803 799 803 799 776 825 c 128,-1,14
 749 851 749 851 711 863.5 c 128,-1,15
 673 876 673 876 625 876 c 0,16,17
 555 876 555 876 503.5 851 c 128,-1,18
 452 826 452 826 419 781 c 1,19,-1
 419 0 l 1,20,-1
 141 0 l 1,21,-1
 141 1536 l 1,22,-1
 419 1536 l 1,23,-1
 419 933 l 1,0,1
EndSplineSet
Substitution2: "'smcp' Lowercase to Small Capitals lookup 0 subtable" H.smcp
EndChar
StartChar: i
Encoding: 105 105 75
Width: 1229
Flags: W
LayerCount: 2
Back
Fore
SplineSet
215 1082 m 1,0,-1
 804 1082 l 1,1,-1
 804 226 l 1,2,-1
 1097 226 l 1,3,-1
 1097 0 l 1,4,-1
 215 0 l 1,5,-1
 215 226 l 1,6,-1
 523 226 l 1,7,-1
 523 855 l 1,8,-1
 215 855 l 1,9,-1
 215 1082 l 1,0,-1
503 1359 m 256,10,11
 503 1391 503 1391 514.5 1418.5 c 128,-1,12
 526 1446 526 1446 547 1465.5 c 128,-1,13
 568 1485 568 1485 597.5 1496 c 128,-1,14
 627 1507 627 1507 663 1507 c 0,15,16
 737 1507 737 1507 780.5 1465.5 c 128,-1,17
 824 1424 824 1424 824 1359 c 256,18,19
 824 1294 824 1294 780.5 1252.5 c 128,-1,20
 737 1211 737 1211 663 1211 c 0,21,22
 627 1211 627 1211 597.5 1222 c 128,-1,23
 568 1233 568 1233 547 1252.5 c 128,-1,24
 526 1272 526 1272 514.5 1299.5 c 128,-1,25
 503 1327 503 1327 503 1359 c 256,10,11
EndSplineSet
Substitution2: "'smcp' Lowercase to Small Capitals lookup 0 subtable" I.smcp
EndChar
StartChar: j
Encoding: 106 106 76
Width: 1229
Flags: W
LayerCount: 2
Back
Fore
SplineSet
307 1082 m 1,0,-1
 861 1082 l 1,1,-1
 861 -25 l 2,2,3
 861 -133 861 -133 830 -210.5 c 128,-1,4
 799 -288 799 -288 740 -338.5 c 128,-1,5
 681 -389 681 -389 596 -413 c 128,-1,6
 511 -437 511 -437 402 -437 c 0,7,8
 357 -437 357 -437 311 -433.5 c 128,-1,9
 265 -430 265 -430 223 -420 c 1,10,-1
 237 -194 l 1,11,12
 249 -197 249 -197 270.5 -199.5 c 128,-1,13
 292 -202 292 -202 314.5 -203.5 c 128,-1,14
 337 -205 337 -205 357.5 -205.5 c 128,-1,15
 378 -206 378 -206 388 -206 c 0,16,17
 428 -206 428 -206 463.5 -197 c 128,-1,18
 499 -188 499 -188 524.5 -167 c 128,-1,19
 550 -146 550 -146 565 -111.5 c 128,-1,20
 580 -77 580 -77 580 -25 c 2,21,-1
 580 855 l 1,22,-1
 307 855 l 1,23,-1
 307 1082 l 1,0,-1
561 1359 m 256,24,25
 561 1391 561 1391 572.5 1418.5 c 128,-1,26
 584 1446 584 1446 604.5 1465.5 c 128,-1,27
 625 1485 625 1485 654.5 1496 c 128,-1,28
 684 1507 684 1507 720 1507 c 0,29,30
 794 1507 794 1507 837.5 1465.5 c 128,-1,31
 881 1424 881 1424 881 1359 c 256,32,33
 881 1294 881 1294 837.5 1252.5 c 128,-1,34
 794 1211 794 1211 720 1211 c 0,35,36
 684 1211 684 1211 654.5 1222 c 128,-1,37
 625 1233 625 1233 604.5 1252.5 c 128,-1,38
 584 1272 584 1272 572.5 1299.5 c 128,-1,39
 561 1327 561 1327 561 1359 c 256,24,25
EndSplineSet
Substitution2: "'smcp' Lowercase to Small Capitals lookup 0 subtable" J.smcp
EndChar
StartChar: k
Encoding: 107 107 77
Width: 1229
Flags: W
LayerCount: 2
Back
Fore
SplineSet
548 447 m 1,0,-1
 422 330 l 1,1,-1
 422 0 l 1,2,-1
 144 0 l 1,3,-1
 144 1536 l 1,4,-1
 422 1536 l 1,5,-1
 422 658 l 1,6,-1
 506 754 l 1,7,-1
 805 1082 l 1,8,-1
 1139 1082 l 1,9,-1
 731 631 l 1,10,-1
 1196 0 l 1,11,-1
 855 0 l 1,12,-1
 548 447 l 1,0,-1
EndSplineSet
Substitution2: "'smcp' Lowercase to Small Capitals lookup 0 subtable" K.smcp
EndChar
StartChar: l
Encoding: 108 108 78
Width: 1229
Flags: W
LayerCount: 2
Back
Fore
SplineSet
199 1536 m 1,0,-1
 804 1536 l 1,1,-1
 804 226 l 1,2,-1
 1114 226 l 1,3,-1
 1114 0 l 1,4,-1
 199 0 l 1,5,-1
 199 226 l 1,6,-1
 523 226 l 1,7,-1
 523 1309 l 1,8,-1
 199 1309 l 1,9,-1
 199 1536 l 1,0,-1
EndSplineSet
Substitution2: "'smcp' Lowercase to Small Capitals lookup 0 subtable" L.smcp
EndChar
StartChar: m
Encoding: 109 109 79
Width: 1229
Flags: W
LayerCount: 2
Back
Fore
SplineSet
314 1082 m 1,0,-1
 322 951 l 1,1,2
 353 1021 353 1021 407.5 1061.5 c 128,-1,3
 462 1102 462 1102 540 1102 c 0,4,5
 671 1102 671 1102 711 987 c 1,6,7
 743 1041 743 1041 792.5 1071.5 c 128,-1,8
 842 1102 842 1102 912 1102 c 0,9,10
 961 1102 961 1102 1003.5 1084 c 128,-1,11
 1046 1066 1046 1066 1077.5 1026.5 c 128,-1,12
 1109 987 1109 987 1126.5 924.5 c 128,-1,13
 1144 862 1144 862 1144 772 c 2,14,-1
 1144 0 l 1,15,-1
 891 0 l 1,16,-1
 891 773 l 2,17,18
 891 804 891 804 884.5 824 c 128,-1,19
 878 844 878 844 867 855.5 c 128,-1,20
 856 867 856 867 841.5 871.5 c 128,-1,21
 827 876 827 876 812 876 c 0,22,23
 783 876 783 876 763 862.5 c 128,-1,24
 743 849 743 849 732 826 c 1,25,-1
 732 0 l 1,26,-1
 487 0 l 1,27,-1
 487 774 l 2,28,29
 487 805 487 805 481 825 c 128,-1,30
 475 845 475 845 464.5 856 c 128,-1,31
 454 867 454 867 440 871.5 c 128,-1,32
 426 876 426 876 410 876 c 0,33,34
 378 876 378 876 358.5 858 c 128,-1,35
 339 840 339 840 328 810 c 1,36,-1
 328 0 l 1,37,-1
 75 0 l 1,38,-1
 75 1082 l 1,39,-1
 314 1082 l 1,0,-1
EndSplineSet
Substitution2: "'smcp' Lowercase to Small Capitals lookup 0 subtable" M.smcp
EndChar
StartChar: n
Encoding: 110 110 80
Width: 1229
Flags: W
LayerCount: 2
Back
Fore
SplineSet
393 1082 m 1,0,-1
 410 932 l 1,1,2
 468 1013 468 1013 551 1057.5 c 128,-1,3
 634 1102 634 1102 735 1102 c 0,4,5
 817 1102 817 1102 885 1078 c 128,-1,6
 953 1054 953 1054 1002.5 1001.5 c 128,-1,7
 1052 949 1052 949 1079.5 866.5 c 128,-1,8
 1107 784 1107 784 1107 666 c 2,9,-1
 1107 0 l 1,10,-1
 829 0 l 1,11,-1
 829 662 l 2,12,13
 829 726 829 726 814.5 767.5 c 128,-1,14
 800 809 800 809 773 833 c 128,-1,15
 746 857 746 857 708 866.5 c 128,-1,16
 670 876 670 876 622 876 c 0,17,18
 551 876 551 876 501 847.5 c 128,-1,19
 451 819 451 819 420 769 c 1,20,-1
 420 0 l 1,21,-1
 141 0 l 1,22,-1
 141 1082 l 1,23,-1
 393 1082 l 1,0,-1
EndSplineSet
Substitution2: "'smcp' Lowercase to Small Capitals lookup 0 subtable" N.smcp
EndChar
StartChar: o
Encoding: 111 111 81
Width: 1229
Flags: W
LayerCount: 2
Back
Fore
SplineSet
103 551 m 2,0,1
 103 669 103 669 137 769.5 c 128,-1,2
 171 870 171 870 236.5 944 c 128,-1,3
 302 1018 302 1018 396.5 1060 c 128,-1,4
 491 1102 491 1102 613 1102 c 256,5,6
 735 1102 735 1102 830 1060 c 128,-1,7
 925 1018 925 1018 990.5 944 c 128,-1,8
 1056 870 1056 870 1090 769.5 c 128,-1,9
 1124 669 1124 669 1124 551 c 2,10,-1
 1124 530 l 2,11,12
 1124 411 1124 411 1090 310.5 c 128,-1,13
 1056 210 1056 210 991 136 c 128,-1,14
 926 62 926 62 831 20.5 c 128,-1,15
 736 -21 736 -21 615 -21 c 0,16,17
 493 -21 493 -21 397.5 20.5 c 128,-1,18
 302 62 302 62 236.5 136 c 128,-1,19
 171 210 171 210 137 310.5 c 128,-1,20
 103 411 103 411 103 530 c 2,21,-1
 103 551 l 2,0,1
381 530 m 2,22,23
 381 462 381 462 394 402.5 c 128,-1,24
 407 343 407 343 435 298.5 c 128,-1,25
 463 254 463 254 507.5 228 c 128,-1,26
 552 202 552 202 615 202 c 0,27,28
 676 202 676 202 720 228 c 128,-1,29
 764 254 764 254 791.5 298.5 c 128,-1,30
 819 343 819 343 832 402.5 c 128,-1,31
 845 462 845 462 845 530 c 2,32,-1
 845 551 l 2,33,34
 845 617 845 617 832 676 c 128,-1,35
 819 735 819 735 791.5 780 c 128,-1,36
 764 825 764 825 720 851 c 128,-1,37
 676 877 676 877 613 877 c 0,38,39
 551 877 551 877 507 851 c 128,-1,40
 463 825 463 825 435 780 c 128,-1,41
 407 735 407 735 394 676 c 128,-1,42
 381 617 381 617 381 551 c 2,43,-1
 381 530 l 2,22,23
EndSplineSet
Substitution2: "'smcp' Lowercase to Small Capitals lookup 0 subtable" O.smcp
EndChar
StartChar: p
Encoding: 112 112 82
Width: 1229
Flags: W
LayerCount: 2
Back
Fore
SplineSet
1113 531 m 2,0,1
 1113 413 1113 413 1085.5 312 c 128,-1,2
 1058 211 1058 211 1004.5 137.5 c 128,-1,3
 951 64 951 64 872 22 c 128,-1,4
 793 -20 793 -20 691 -20 c 0,5,6
 604 -20 604 -20 538 10 c 128,-1,7
 472 40 472 40 423 94 c 1,8,-1
 423 -416 l 1,9,-1
 145 -416 l 1,10,-1
 145 1082 l 1,11,-1
 402 1082 l 1,12,-1
 412 976 l 1,13,14
 462 1036 462 1036 530 1069 c 128,-1,15
 598 1102 598 1102 689 1102 c 0,16,17
 792 1102 792 1102 871 1062.5 c 128,-1,18
 950 1023 950 1023 1004 950.5 c 128,-1,19
 1058 878 1058 878 1085.5 776.5 c 128,-1,20
 1113 675 1113 675 1113 552 c 2,21,-1
 1113 531 l 2,0,1
835 552 m 2,22,23
 835 620 835 620 822.5 679.5 c 128,-1,24
 810 739 810 739 783.5 782.5 c 128,-1,25
 757 826 757 826 715.5 851 c 128,-1,26
 674 876 674 876 615 876 c 0,27,28
 542 876 542 876 495.5 847.5 c 128,-1,29
 449 819 449 819 423 767 c 1,30,-1
 423 315 l 1,31,32
 449 264 449 264 495.5 233.5 c 128,-1,33
 542 203 542 203 617 203 c 0,34,35
 676 203 676 203 717.5 229 c 128,-1,36
 759 255 759 255 785 300 c 128,-1,37
 811 345 811 345 823 404.5 c 128,-1,38
 835 464 835 464 835 531 c 2,39,-1
 835 552 l 2,22,23
EndSplineSet
Substitution2: "'smcp' Lowercase to Small Capitals lookup 0 subtable" P.smcp
EndChar
StartChar: q
Encoding: 113 113 83
Width: 1229
Flags: W
LayerCount: 2
Back
Fore
SplineSet
113 550 m 2,0,1
 113 673 113 673 141 775 c 128,-1,2
 169 877 169 877 223.5 949.5 c 128,-1,3
 278 1022 278 1022 357.5 1062 c 128,-1,4
 437 1102 437 1102 540 1102 c 0,5,6
 632 1102 632 1102 700.5 1068 c 128,-1,7
 769 1034 769 1034 819 972 c 1,8,-1
 836 1082 l 1,9,-1
 1081 1082 l 1,10,-1
 1081 -416 l 1,11,-1
 802 -416 l 1,12,-1
 802 92 l 1,13,14
 753 38 753 38 688 9 c 128,-1,15
 623 -20 623 -20 538 -20 c 0,16,17
 436 -20 436 -20 357 21.5 c 128,-1,18
 278 63 278 63 224 136.5 c 128,-1,19
 170 210 170 210 141.5 310.5 c 128,-1,20
 113 411 113 411 113 529 c 2,21,-1
 113 550 l 2,0,1
391 529 m 2,22,23
 391 462 391 462 403 403 c 128,-1,24
 415 344 415 344 441 299.5 c 128,-1,25
 467 255 467 255 508.5 229 c 128,-1,26
 550 203 550 203 609 203 c 0,27,28
 682 203 682 203 728.5 232 c 128,-1,29
 775 261 775 261 802 312 c 1,30,-1
 802 772 l 1,31,32
 775 822 775 822 728.5 849.5 c 128,-1,33
 682 877 682 877 611 877 c 0,34,35
 552 877 552 877 510.5 851.5 c 128,-1,36
 469 826 469 826 442.5 782 c 128,-1,37
 416 738 416 738 403.5 678.5 c 128,-1,38
 391 619 391 619 391 550 c 2,39,-1
 391 529 l 2,22,23
EndSplineSet
Substitution2: "'smcp' Lowercase to Small Capitals lookup 0 subtable" Q.smcp
EndChar
StartChar: r
Encoding: 114 114 84
Width: 1229
Flags: W
LayerCount: 2
Back
Fore
SplineSet
918 1102 m 0,0,1
 981 1102 981 1102 1034.5 1093.5 c 128,-1,2
 1088 1085 1088 1085 1121 1075 c 1,3,-1
 1080 798 l 1,4,5
 1025 811 1025 811 967.5 817.5 c 128,-1,6
 910 824 910 824 858 824 c 0,7,8
 741 824 741 824 670.5 779 c 128,-1,9
 600 734 600 734 565 650 c 1,10,-1
 565 0 l 1,11,-1
 287 0 l 1,12,-1
 287 1082 l 1,13,-1
 546 1082 l 1,14,-1
 559 905 l 1,15,16
 625 997 625 997 717 1049.5 c 128,-1,17
 809 1102 809 1102 918 1102 c 0,0,1
EndSplineSet
Substitution2: "'smcp' Lowercase to Small Capitals lookup 0 subtable" R.smcp
EndChar
StartChar: s
Encoding: 115 115 85
Width: 1229
Flags: W
LayerCount: 2
Back
Fore
SplineSet
839 297 m 0,0,1
 839 322 839 322 827.5 341 c 128,-1,2
 816 360 816 360 786.5 376.5 c 128,-1,3
 757 393 757 393 708 407 c 128,-1,4
 659 421 659 421 584 435 c 0,5,6
 489 454 489 454 410.5 482.5 c 128,-1,7
 332 511 332 511 276 551.5 c 128,-1,8
 220 592 220 592 188.5 645 c 128,-1,9
 157 698 157 698 157 767 c 0,10,11
 157 834 157 834 189 895 c 128,-1,12
 221 956 221 956 281 1002 c 128,-1,13
 341 1048 341 1048 427 1075 c 128,-1,14
 513 1102 513 1102 621 1102 c 0,15,16
 734 1102 734 1102 824 1075.5 c 128,-1,17
 914 1049 914 1049 976.5 1002.5 c 128,-1,18
 1039 956 1039 956 1072 892 c 128,-1,19
 1105 828 1105 828 1105 753 c 1,20,-1
 827 753 l 1,21,22
 827 816 827 816 776 858.5 c 128,-1,23
 725 901 725 901 621 901 c 0,24,25
 524 901 524 901 474.5 866 c 128,-1,26
 425 831 425 831 425 780 c 0,27,28
 425 756 425 756 435 735.5 c 128,-1,29
 445 715 445 715 470.5 698.5 c 128,-1,30
 496 682 496 682 540 668.5 c 128,-1,31
 584 655 584 655 652 645 c 0,32,33
 750 629 750 629 834 604 c 128,-1,34
 918 579 918 579 979 539.5 c 128,-1,35
 1040 500 1040 500 1074.5 443.5 c 128,-1,36
 1109 387 1109 387 1109 309 c 0,37,38
 1109 237 1109 237 1074.5 176.5 c 128,-1,39
 1040 116 1040 116 976.5 72 c 128,-1,40
 913 28 913 28 823 3.5 c 128,-1,41
 733 -21 733 -21 622 -21 c 0,42,43
 500 -21 500 -21 406.5 11 c 128,-1,44
 313 43 313 43 250 94.5 c 128,-1,45
 187 146 187 146 154.5 211.5 c 128,-1,46
 122 277 122 277 122 343 c 1,47,-1
 387 343 l 1,48,49
 390 299 390 299 411 267.5 c 128,-1,50
 432 236 432 236 465 216.5 c 128,-1,51
 498 197 498 197 540.5 188 c 128,-1,52
 583 179 583 179 628 179 c 0,53,54
 731 179 731 179 785 212 c 128,-1,55
 839 245 839 245 839 297 c 0,0,1
EndSplineSet
Substitution2: "'smcp' Lowercase to Small Capitals lookup 0 subtable" S.smcp
EndChar
StartChar: t
Encoding: 116 116 86
Width: 1229
Flags: W
LayerCount: 2
Back
Fore
SplineSet
651 1347 m 1,0,-1
 651 1082 l 1,1,-1
 1055 1082 l 1,2,-1
 1055 877 l 1,3,-1
 651 877 l 1,4,-1
 651 412 l 2,5,6
 651 353 651 353 664.5 313.5 c 128,-1,7
 678 274 678 274 703 250.5 c 128,-1,8
 728 227 728 227 763.5 217 c 128,-1,9
 799 207 799 207 843 207 c 0,10,11
 875 207 875 207 908.5 210 c 128,-1,12
 942 213 942 213 972.5 217.5 c 128,-1,13
 1003 222 1003 222 1029.5 227 c 128,-1,14
 1056 232 1056 232 1075 237 c 1,15,-1
 1102 46 l 1,16,17
 1073 29 1073 29 1034 16.5 c 128,-1,18
 995 4 995 4 951 -4 c 128,-1,19
 907 -12 907 -12 859.5 -16.5 c 128,-1,20
 812 -21 812 -21 766 -21 c 0,21,22
 677 -21 677 -21 604.5 2.5 c 128,-1,23
 532 26 532 26 480.5 75.5 c 128,-1,24
 429 125 429 125 401 201.5 c 128,-1,25
 373 278 373 278 373 385 c 2,26,-1
 373 877 l 1,27,-1
 126 877 l 1,28,-1
 126 1082 l 1,29,-1
 373 1082 l 1,30,-1
 373 1347 l 1,31,-1
 651 1347 l 1,0,-1
EndSplineSet
Substitution2: "'smcp' Lowercase to Small Capitals lookup 0 subtable" T.smcp
EndChar
StartChar: u
Encoding: 117 117 87
Width: 1229
Flags: W
LayerCount: 2
Back
Fore
SplineSet
831 152 m 1,0,1
 776 71 776 71 698.5 25 c 128,-1,2
 621 -21 621 -21 529 -21 c 0,3,4
 445 -21 445 -21 375 5 c 128,-1,5
 305 31 305 31 255 87.5 c 128,-1,6
 205 144 205 144 177.5 231.5 c 128,-1,7
 150 319 150 319 150 442 c 2,8,-1
 150 1082 l 1,9,-1
 428 1082 l 1,10,-1
 428 440 l 2,11,12
 428 374 428 374 437.5 329 c 128,-1,13
 447 284 447 284 468 256.5 c 128,-1,14
 489 229 489 229 523 217 c 128,-1,15
 557 205 557 205 606 205 c 0,16,17
 689 205 689 205 741 236.5 c 128,-1,18
 793 268 793 268 820 323 c 1,19,-1
 820 1082 l 1,20,-1
 1099 1082 l 1,21,-1
 1099 0 l 1,22,-1
 847 0 l 1,23,-1
 831 152 l 1,0,1
EndSplineSet
Substitution2: "'smcp' Lowercase to Small Capitals lookup 0 subtable" U.smcp
EndChar
StartChar: v
Encoding: 118 118 88
Width: 1229
Flags: W
LayerCount: 2
Back
Fore
SplineSet
601 321 m 1,0,-1
 615 243 l 1,1,-1
 629 318 l 1,2,-1
 867 1082 l 1,3,-1
 1157 1082 l 1,4,-1
 746 0 l 1,5,-1
 485 0 l 1,6,-1
 72 1082 l 1,7,-1
 362 1082 l 1,8,-1
 601 321 l 1,0,-1
EndSplineSet
Substitution2: "'smcp' Lowercase to Small Capitals lookup 0 subtable" V.smcp
EndChar
StartChar: w
Encoding: 119 119 89
Width: 1229
Flags: W
LayerCount: 2
Back
Fore
SplineSet
833 339 m 1,0,-1
 927 1082 l 1,1,-1
 1182 1082 l 1,2,-1
 988 0 l 1,3,-1
 744 0 l 1,4,-1
 602 688 l 1,5,-1
 465 0 l 1,6,-1
 221 0 l 1,7,-1
 27 1082 l 1,8,-1
 281 1082 l 1,9,-1
 375 336 l 1,10,-1
 511 1082 l 1,11,-1
 697 1082 l 1,12,-1
 833 339 l 1,0,-1
EndSplineSet
Substitution2: "'smcp' Lowercase to Small Capitals lookup 0 subtable" W.smcp
EndChar
StartChar: x
Encoding: 120 120 90
Width: 1229
Flags: W
LayerCount: 2
Back
Fore
SplineSet
636 744 m 1,0,-1
 874 1082 l 1,1,-1
 1173 1082 l 1,2,-1
 810 551 l 1,3,-1
 1186 0 l 1,4,-1
 886 0 l 1,5,-1
 637 354 l 1,6,-1
 390 0 l 1,7,-1
 89 0 l 1,8,-1
 465 551 l 1,9,-1
 103 1082 l 1,10,-1
 402 1082 l 1,11,-1
 636 744 l 1,0,-1
EndSplineSet
Substitution2: "'smcp' Lowercase to Small Capitals lookup 0 subtable" X.smcp
EndChar
StartChar: y
Encoding: 121 121 91
Width: 1229
Flags: W
LayerCount: 2
Back
Fore
SplineSet
602 454 m 1,0,-1
 634 338 l 1,1,-1
 922 1082 l 1,2,-1
 1229 1082 l 1,3,-1
 680 -162 l 2,4,5
 662 -203 662 -203 633.5 -251 c 128,-1,6
 605 -299 605 -299 562 -340 c 128,-1,7
 519 -381 519 -381 457.5 -409 c 128,-1,8
 396 -437 396 -437 312 -437 c 0,9,10
 292 -437 292 -437 275 -435.5 c 128,-1,11
 258 -434 258 -434 242 -431.5 c 128,-1,12
 226 -429 226 -429 210.5 -425.5 c 128,-1,13
 195 -422 195 -422 177 -417 c 1,14,-1
 211 -205 l 1,15,16
 228 -205 228 -205 254.5 -206.5 c 128,-1,17
 281 -208 281 -208 297 -208 c 0,18,19
 330 -208 330 -208 355.5 -188 c 128,-1,20
 381 -168 381 -168 399 -144 c 128,-1,21
 417 -120 417 -120 428 -100 c 128,-1,22
 439 -80 439 -80 443 -80 c 2,23,-1
 510 46 l 1,24,-1
 52 1082 l 1,25,-1
 356 1082 l 1,26,-1
 602 454 l 1,0,-1
EndSplineSet
Substitution2: "'smcp' Lowercase to Small Capitals lookup 0 subtable" Y.smcp
EndChar
StartChar: z
Encoding: 122 122 92
Width: 1229
Flags: W
LayerCount: 2
Back
Fore
SplineSet
498 223 m 1,0,-1
 1135 223 l 1,1,-1
 1135 0 l 1,2,-1
 118 0 l 1,3,-1
 118 172 l 1,4,-1
 724 856 l 1,5,-1
 132 856 l 1,6,-1
 132 1082 l 1,7,-1
 1110 1082 l 1,8,-1
 1110 915 l 1,9,-1
 498 223 l 1,0,-1
EndSplineSet
Substitution2: "'smcp' Lowercase to Small Capitals lookup 0 subtable" Z.smcp
EndChar
StartChar: braceleft
Encoding: 123 123 93
Width: 1229
Flags: W
LayerCount: 2
Back
Fore
SplineSet
940 -360 m 1,0,1
 874 -360 874 -360 820 -340 c 128,-1,2
 766 -320 766 -320 723.5 -286 c 128,-1,3
 681 -252 681 -252 650.5 -206 c 128,-1,4
 620 -160 620 -160 599.5 -108 c 128,-1,5
 579 -56 579 -56 569.5 -1.5 c 128,-1,6
 560 53 560 53 560 106 c 2,7,-1
 560 269 l 2,8,9
 560 402 560 402 498 460 c 128,-1,10
 436 518 436 518 309 518 c 1,11,-1
 309 718 l 1,12,13
 436 718 436 718 498 776 c 128,-1,14
 560 834 560 834 560 969 c 2,15,-1
 560 1132 l 2,16,17
 560 1184 560 1184 568.5 1239 c 128,-1,18
 577 1294 577 1294 596 1346 c 128,-1,19
 615 1398 615 1398 644.5 1443.5 c 128,-1,20
 674 1489 674 1489 716.5 1523 c 128,-1,21
 759 1557 759 1557 814.5 1577 c 128,-1,22
 870 1597 870 1597 940 1597 c 1,23,-1
 974 1440 l 1,24,25
 913 1442 913 1442 880 1414.5 c 128,-1,26
 847 1387 847 1387 832 1342 c 128,-1,27
 817 1297 817 1297 814.5 1241.5 c 128,-1,28
 812 1186 812 1186 812 1132 c 2,29,-1
 812 969 l 2,30,31
 812 850 812 850 753.5 758 c 128,-1,32
 695 666 695 666 572 618 c 1,33,34
 696 570 696 570 754 479 c 128,-1,35
 812 388 812 388 812 269 c 2,36,-1
 812 106 l 2,37,38
 812 52 812 52 818.5 -3.5 c 128,-1,39
 825 -59 825 -59 843 -104 c 128,-1,40
 861 -149 861 -149 892.5 -176.5 c 128,-1,41
 924 -204 924 -204 974 -202 c 1,42,-1
 940 -360 l 1,0,1
EndSplineSet
EndChar
StartChar: bar
Encoding: 124 124 94
Width: 1229
Flags: W
LayerCount: 2
Back
Fore
SplineSet
707 -410 m 1,0,-1
 533 -410 l 1,1,-1
 533 1456 l 1,2,-1
 707 1456 l 1,3,-1
 707 -410 l 1,0,-1
EndSplineSet
EndChar
StartChar: braceright
Encoding: 125 125 95
Width: 1229
Flags: W
LayerCount: 2
Back
Fore
SplineSet
332 -202 m 1,0,1
 381 -204 381 -204 412.5 -176.5 c 128,-1,2
 444 -149 444 -149 462 -104 c 128,-1,3
 480 -59 480 -59 487 -3.5 c 128,-1,4
 494 52 494 52 494 106 c 2,5,-1
 494 269 l 2,6,7
 494 327 494 327 507.5 379 c 128,-1,8
 521 431 521 431 549 476 c 128,-1,9
 577 521 577 521 619.5 556.5 c 128,-1,10
 662 592 662 592 721 617 c 1,11,12
 604 667 604 667 549 760 c 128,-1,13
 494 853 494 853 494 969 c 2,14,-1
 494 1132 l 2,15,16
 494 1186 494 1186 491.5 1241.5 c 128,-1,17
 489 1297 489 1297 474 1342 c 128,-1,18
 459 1387 459 1387 426 1414.5 c 128,-1,19
 393 1442 393 1442 332 1440 c 1,20,-1
 366 1597 l 1,21,22
 436 1597 436 1597 491.5 1577 c 128,-1,23
 547 1557 547 1557 589 1523 c 128,-1,24
 631 1489 631 1489 661 1443.5 c 128,-1,25
 691 1398 691 1398 710 1346 c 128,-1,26
 729 1294 729 1294 737.5 1239 c 128,-1,27
 746 1184 746 1184 746 1132 c 2,28,-1
 746 969 l 2,29,30
 746 834 746 834 807.5 776 c 128,-1,31
 869 718 869 718 997 718 c 1,32,-1
 997 518 l 1,33,34
 869 518 869 518 807.5 460 c 128,-1,35
 746 402 746 402 746 269 c 2,36,-1
 746 106 l 2,37,38
 746 54 746 54 736 -1 c 128,-1,39
 726 -56 726 -56 706 -108 c 128,-1,40
 686 -160 686 -160 655 -206 c 128,-1,41
 624 -252 624 -252 582 -286 c 128,-1,42
 540 -320 540 -320 486 -340 c 128,-1,43
 432 -360 432 -360 366 -360 c 1,44,-1
 332 -202 l 1,0,1
EndSplineSet
EndChar
StartChar: asciitilde
Encoding: 126 126 96
Width: 1229
Flags: W
LayerCount: 2
Back
Fore
SplineSet
1144 752 m 1,0,1
 1144 671 1144 671 1121.5 602 c 128,-1,2
 1099 533 1099 533 1058.5 483.5 c 128,-1,3
 1018 434 1018 434 961 406 c 128,-1,4
 904 378 904 378 836 378 c 0,5,6
 792 378 792 378 753.5 386 c 128,-1,7
 715 394 715 394 678 410.5 c 128,-1,8
 641 427 641 427 605 452 c 128,-1,9
 569 477 569 477 531 512 c 0,10,11
 482 552 482 552 437 574 c 128,-1,12
 392 596 392 596 345 596 c 0,13,14
 318 596 318 596 293 582.5 c 128,-1,15
 268 569 268 569 248.5 546.5 c 128,-1,16
 229 524 229 524 217.5 495 c 128,-1,17
 206 466 206 466 206 435 c 1,18,-1
 26 457 l 1,19,20
 26 538 26 538 48 605.5 c 128,-1,21
 70 673 70 673 110.5 721.5 c 128,-1,22
 151 770 151 770 207.5 797 c 128,-1,23
 264 824 264 824 332 824 c 0,24,25
 419 824 419 824 492.5 790 c 128,-1,26
 566 756 566 756 640 691 c 0,27,28
 689 649 689 649 733.5 628 c 128,-1,29
 778 607 778 607 823 607 c 0,30,31
 850 607 850 607 874 621 c 128,-1,32
 898 635 898 635 916 658 c 128,-1,33
 934 681 934 681 945 710.5 c 128,-1,34
 956 740 956 740 956 771 c 1,35,-1
 1144 752 l 1,0,1
EndSplineSet
EndChar
StartChar: exclamdown
Encoding: 161 161 97
Width: 1229
Flags: W
LayerCount: 2
Back
Fore
SplineSet
514 565 m 1,0,-1
 767 565 l 1,1,-1
 783 -380 l 1,2,-1
 497 -380 l 1,3,-1
 514 565 l 1,0,-1
807 947 m 0,4,5
 807 915 807 915 795.5 887 c 128,-1,6
 784 859 784 859 762.5 839 c 128,-1,7
 741 819 741 819 711 807.5 c 128,-1,8
 681 796 681 796 644 796 c 0,9,10
 606 796 606 796 576 807.5 c 128,-1,11
 546 819 546 819 525 839 c 128,-1,12
 504 859 504 859 493 887 c 128,-1,13
 482 915 482 915 482 947 c 0,14,15
 482 980 482 980 493 1008.5 c 128,-1,16
 504 1037 504 1037 525 1058 c 128,-1,17
 546 1079 546 1079 576 1091 c 128,-1,18
 606 1103 606 1103 644 1103 c 0,19,20
 681 1103 681 1103 711 1091 c 128,-1,21
 741 1079 741 1079 762.5 1058 c 128,-1,22
 784 1037 784 1037 795.5 1008.5 c 128,-1,23
 807 980 807 980 807 947 c 0,4,5
EndSplineSet
EndChar
StartChar: cent
Encoding: 162 162 98
Width: 1229
Flags: W
LayerCount: 2
Back
Fore
SplineSet
645 202 m 0,0,1
 686 202 686 202 723 214 c 128,-1,2
 760 226 760 226 788 248 c 128,-1,3
 816 270 816 270 831.5 301 c 128,-1,4
 847 332 847 332 845 370 c 1,5,-1
 1107 370 l 1,6,7
 1109 296 1109 296 1081 232 c 128,-1,8
 1053 168 1053 168 1003.5 117.5 c 128,-1,9
 954 67 954 67 886.5 33.5 c 128,-1,10
 819 0 819 0 742 -13 c 1,11,-1
 742 -245 l 1,12,-1
 542 -245 l 1,13,-1
 542 -12 l 1,14,15
 443 6 443 6 368 54 c 128,-1,16
 293 102 293 102 243 173 c 128,-1,17
 193 244 193 244 167.5 334 c 128,-1,18
 142 424 142 424 142 525 c 2,19,-1
 142 555 l 2,20,21
 142 656 142 656 167.5 746 c 128,-1,22
 193 836 193 836 243 907 c 128,-1,23
 293 978 293 978 368 1026.5 c 128,-1,24
 443 1075 443 1075 542 1093 c 1,25,-1
 542 1318 l 1,26,-1
 742 1318 l 1,27,-1
 742 1095 l 1,28,29
 823 1082 823 1082 891 1047.5 c 128,-1,30
 959 1013 959 1013 1007.5 959.5 c 128,-1,31
 1056 906 1056 906 1082.5 836 c 128,-1,32
 1109 766 1109 766 1107 682 c 1,33,-1
 845 682 l 1,34,35
 847 722 847 722 833 758 c 128,-1,36
 819 794 819 794 792 820 c 128,-1,37
 765 846 765 846 727 861.5 c 128,-1,38
 689 877 689 877 644 877 c 0,39,40
 578 877 578 877 535 850 c 128,-1,41
 492 823 492 823 466.5 778 c 128,-1,42
 441 733 441 733 430.5 675 c 128,-1,43
 420 617 420 617 420 555 c 2,44,-1
 420 525 l 2,45,46
 420 462 420 462 430 403.5 c 128,-1,47
 440 345 440 345 465.5 300.5 c 128,-1,48
 491 256 491 256 534.5 229 c 128,-1,49
 578 202 578 202 645 202 c 0,0,1
EndSplineSet
EndChar
StartChar: sterling
Encoding: 163 163 99
Width: 1229
Flags: W
LayerCount: 2
Back
Fore
SplineSet
560 585 m 1,0,-1
 566 431 l 2,1,2
 566 369 566 369 551.5 318 c 128,-1,3
 537 267 537 267 503 226 c 1,4,-1
 1173 226 l 1,5,-1
 1173 0 l 1,6,-1
 118 0 l 1,7,-1
 118 226 l 1,8,-1
 207 226 l 1,9,10
 231 232 231 232 245.5 251.5 c 128,-1,11
 260 271 260 271 268.5 298 c 128,-1,12
 277 325 277 325 279.5 356.5 c 128,-1,13
 282 388 282 388 282 418 c 2,14,-1
 277 585 l 1,15,-1
 115 585 l 1,16,-1
 115 806 l 1,17,-1
 270 806 l 1,18,-1
 263 1040 l 2,19,20
 263 1143 263 1143 296 1224.5 c 128,-1,21
 329 1306 329 1306 389 1361.5 c 128,-1,22
 449 1417 449 1417 532.5 1446.5 c 128,-1,23
 616 1476 616 1476 716 1476 c 0,24,25
 823 1476 823 1476 906 1446.5 c 128,-1,26
 989 1417 989 1417 1045.5 1363 c 128,-1,27
 1102 1309 1102 1309 1131.5 1233 c 128,-1,28
 1161 1157 1161 1157 1161 1064 c 1,29,-1
 892 1064 l 1,30,31
 892 1115 892 1115 877.5 1150.5 c 128,-1,32
 863 1186 863 1186 838 1208 c 128,-1,33
 813 1230 813 1230 780.5 1239.5 c 128,-1,34
 748 1249 748 1249 712 1249 c 256,35,36
 676 1249 676 1249 645 1235.5 c 128,-1,37
 614 1222 614 1222 591.5 1196 c 128,-1,38
 569 1170 569 1170 556 1130.5 c 128,-1,39
 543 1091 543 1091 543 1040 c 2,40,-1
 552 806 l 1,41,-1
 862 806 l 1,42,-1
 862 585 l 1,43,-1
 560 585 l 1,0,-1
EndSplineSet
EndChar
StartChar: currency
Encoding: 164 164 100
Width: 1229
Flags: W
LayerCount: 2
Back
Fore
SplineSet
904 78 m 1,0,1
 843 30 843 30 769 5 c 128,-1,2
 695 -20 695 -20 614 -20 c 256,3,4
 533 -20 533 -20 459.5 5 c 128,-1,5
 386 30 386 30 324 76 c 1,6,-1
 224 -26 l 1,7,-1
 83 118 l 1,8,-1
 191 228 l 1,9,10
 156 288 156 288 137 359 c 128,-1,11
 118 430 118 430 118 508 c 0,12,13
 118 591 118 591 139.5 665 c 128,-1,14
 161 739 161 739 199 801 c 1,15,-1
 83 920 l 1,16,-1
 224 1064 l 1,17,-1
 338 947 l 1,18,19
 398 989 398 989 467.5 1011.5 c 128,-1,20
 537 1034 537 1034 614 1034 c 256,21,22
 691 1034 691 1034 761 1011 c 128,-1,23
 831 988 831 988 891 946 c 1,24,-1
 1007 1065 l 1,25,-1
 1149 920 l 1,26,-1
 1029 797 l 1,27,28
 1067 735 1067 735 1087.5 662 c 128,-1,29
 1108 589 1108 589 1108 508 c 0,30,31
 1108 430 1108 430 1089.5 360.5 c 128,-1,32
 1071 291 1071 291 1037 231 c 1,33,-1
 1149 118 l 1,34,-1
 1007 -27 l 1,35,-1
 904 78 l 1,0,1
304 508 m 256,36,37
 304 436 304 436 328 374 c 128,-1,38
 352 312 352 312 394 266.5 c 128,-1,39
 436 221 436 221 492.5 194.5 c 128,-1,40
 549 168 549 168 614 168 c 0,41,42
 678 168 678 168 734.5 194.5 c 128,-1,43
 791 221 791 221 833 266.5 c 128,-1,44
 875 312 875 312 899 374 c 128,-1,45
 923 436 923 436 923 508 c 256,46,47
 923 580 923 580 899 641.5 c 128,-1,48
 875 703 875 703 833 748 c 128,-1,49
 791 793 791 793 734.5 819 c 128,-1,50
 678 845 678 845 614 845 c 0,51,52
 549 845 549 845 492.5 819 c 128,-1,53
 436 793 436 793 394 748 c 128,-1,54
 352 703 352 703 328 641.5 c 128,-1,55
 304 580 304 580 304 508 c 256,36,37
EndSplineSet
EndChar
StartChar: yen
Encoding: 165 165 101
Width: 1229
Flags: W
LayerCount: 2
Back
Fore
SplineSet
623 837 m 1,0,-1
 915 1456 l 1,1,-1
 1224 1456 l 1,2,-1
 841 742 l 1,3,-1
 1091 742 l 1,4,-1
 1091 576 l 1,5,-1
 760 576 l 1,6,-1
 760 452 l 1,7,-1
 1091 452 l 1,8,-1
 1091 287 l 1,9,-1
 760 287 l 1,10,-1
 760 0 l 1,11,-1
 479 0 l 1,12,-1
 479 287 l 1,13,-1
 136 287 l 1,14,-1
 136 452 l 1,15,-1
 479 452 l 1,16,-1
 479 576 l 1,17,-1
 136 576 l 1,18,-1
 136 742 l 1,19,-1
 405 742 l 1,20,-1
 21 1456 l 1,21,-1
 331 1456 l 1,22,-1
 623 837 l 1,0,-1
EndSplineSet
EndChar
StartChar: brokenbar
Encoding: 166 166 102
Width: 1229
Flags: W
LayerCount: 2
Back
Fore
SplineSet
488 -270 m 1,0,-1
 488 525 l 1,1,-1
 741 525 l 1,2,-1
 741 -270 l 1,3,-1
 488 -270 l 1,0,-1
741 698 m 1,4,-1
 488 698 l 1,5,-1
 488 1456 l 1,6,-1
 741 1456 l 1,7,-1
 741 698 l 1,4,-1
EndSplineSet
EndChar
StartChar: section
Encoding: 167 167 103
Width: 1229
Flags: W
LayerCount: 2
Back
Fore
SplineSet
1169 475 m 0,0,1
 1169 381 1169 381 1127 313.5 c 128,-1,2
 1085 246 1085 246 1007 203 c 1,3,4
 1073 153 1073 153 1107 84.5 c 128,-1,5
 1141 16 1141 16 1141 -84 c 0,6,7
 1141 -174 1141 -174 1104.5 -243.5 c 128,-1,8
 1068 -313 1068 -313 1001 -360.5 c 128,-1,9
 934 -408 934 -408 839.5 -432.5 c 128,-1,10
 745 -457 745 -457 628 -457 c 0,11,12
 527 -457 527 -457 429.5 -436.5 c 128,-1,13
 332 -416 332 -416 255.5 -367.5 c 128,-1,14
 179 -319 179 -319 132.5 -238.5 c 128,-1,15
 86 -158 86 -158 86 -38 c 1,16,-1
 364 -37 l 1,17,18
 364 -96 364 -96 387 -133.5 c 128,-1,19
 410 -171 410 -171 447.5 -193 c 128,-1,20
 485 -215 485 -215 532.5 -223.5 c 128,-1,21
 580 -232 580 -232 628 -232 c 0,22,23
 743 -232 743 -232 803.5 -192 c 128,-1,24
 864 -152 864 -152 864 -85 c 0,25,26
 864 -52 864 -52 850 -26 c 128,-1,27
 836 0 836 0 801.5 22.5 c 128,-1,28
 767 45 767 45 709.5 66.5 c 128,-1,29
 652 88 652 88 565 113 c 0,30,31
 453 143 453 143 365 178.5 c 128,-1,32
 277 214 277 214 215.5 263 c 128,-1,33
 154 312 154 312 121.5 378 c 128,-1,34
 89 444 89 444 89 535 c 0,35,36
 89 627 89 627 131.5 695.5 c 128,-1,37
 174 764 174 764 252 808 c 1,38,39
 186 859 186 859 151.5 927.5 c 128,-1,40
 117 996 117 996 117 1096 c 0,41,42
 117 1182 117 1182 153.5 1252.5 c 128,-1,43
 190 1323 190 1323 257.5 1372.5 c 128,-1,44
 325 1422 325 1422 420.5 1449 c 128,-1,45
 516 1476 516 1476 633 1476 c 0,46,47
 753 1476 753 1476 849 1448 c 128,-1,48
 945 1420 945 1420 1011.5 1365.5 c 128,-1,49
 1078 1311 1078 1311 1114 1231 c 128,-1,50
 1150 1151 1150 1151 1150 1048 c 1,51,-1
 871 1048 l 1,52,53
 871 1091 871 1091 856 1128 c 128,-1,54
 841 1165 841 1165 811 1192.5 c 128,-1,55
 781 1220 781 1220 736.5 1236 c 128,-1,56
 692 1252 692 1252 633 1252 c 0,57,58
 571 1252 571 1252 526 1239.5 c 128,-1,59
 481 1227 481 1227 452 1206 c 128,-1,60
 423 1185 423 1185 409.5 1157 c 128,-1,61
 396 1129 396 1129 396 1098 c 0,62,63
 396 1060 396 1060 408.5 1033 c 128,-1,64
 421 1006 421 1006 454 983.5 c 128,-1,65
 487 961 487 961 544.5 941 c 128,-1,66
 602 921 602 921 692 897 c 0,67,68
 806 867 806 867 895 831.5 c 128,-1,69
 984 796 984 796 1045 747 c 128,-1,70
 1106 698 1106 698 1137.5 632 c 128,-1,71
 1169 566 1169 566 1169 475 c 0,0,1
594 663 m 0,72,73
 516 684 516 684 450 708 c 1,74,75
 406 687 406 687 386 648.5 c 128,-1,76
 366 610 366 610 366 561 c 0,77,78
 366 521 366 521 378.5 492.5 c 128,-1,79
 391 464 391 464 424 440 c 128,-1,80
 457 416 457 416 514.5 394.5 c 128,-1,81
 572 373 572 373 662 346 c 0,82,83
 701 335 701 335 737 324.5 c 128,-1,84
 773 314 773 314 807 302 c 1,85,86
 850 325 850 325 873 363 c 128,-1,87
 896 401 896 401 896 449 c 0,88,89
 896 485 896 485 881.5 513 c 128,-1,90
 867 541 867 541 832 566 c 128,-1,91
 797 591 797 591 739 614 c 128,-1,92
 681 637 681 637 594 663 c 0,72,73
EndSplineSet
EndChar
StartChar: dieresis
Encoding: 168 168 104
Width: 1229
Flags: W
LayerCount: 2
Back
Fore
SplineSet
265 1365 m 256,0,1
 265 1391 265 1391 275 1414 c 128,-1,2
 285 1437 285 1437 303 1454 c 128,-1,3
 321 1471 321 1471 346 1480.5 c 128,-1,4
 371 1490 371 1490 401 1490 c 256,5,6
 431 1490 431 1490 456 1480.5 c 128,-1,7
 481 1471 481 1471 499 1454 c 128,-1,8
 517 1437 517 1437 527 1414 c 128,-1,9
 537 1391 537 1391 537 1365 c 256,10,11
 537 1339 537 1339 527 1316 c 128,-1,12
 517 1293 517 1293 499 1276.5 c 128,-1,13
 481 1260 481 1260 456 1250.5 c 128,-1,14
 431 1241 431 1241 401 1241 c 256,15,16
 371 1241 371 1241 346 1250.5 c 128,-1,17
 321 1260 321 1260 303 1276.5 c 128,-1,18
 285 1293 285 1293 275 1316 c 128,-1,19
 265 1339 265 1339 265 1365 c 256,0,1
745 1365 m 0,20,21
 745 1391 745 1391 755 1414 c 128,-1,22
 765 1437 765 1437 783 1453.5 c 128,-1,23
 801 1470 801 1470 826 1479.5 c 128,-1,24
 851 1489 851 1489 881 1489 c 256,25,26
 911 1489 911 1489 936 1479.5 c 128,-1,27
 961 1470 961 1470 979 1453.5 c 128,-1,28
 997 1437 997 1437 1007 1414 c 128,-1,29
 1017 1391 1017 1391 1017 1365 c 0,30,31
 1017 1338 1017 1338 1007 1315 c 128,-1,32
 997 1292 997 1292 979 1275 c 128,-1,33
 961 1258 961 1258 936 1248.5 c 128,-1,34
 911 1239 911 1239 881 1239 c 256,35,36
 851 1239 851 1239 826 1248.5 c 128,-1,37
 801 1258 801 1258 783 1275 c 128,-1,38
 765 1292 765 1292 755 1315 c 128,-1,39
 745 1338 745 1338 745 1365 c 0,20,21
EndSplineSet
EndChar
StartChar: copyright
Encoding: 169 169 105
Width: 1229
Flags: W
LayerCount: 2
Back
Fore
SplineSet
862 442 m 1,0,1
 862 323 862 323 794.5 265 c 128,-1,2
 727 207 727 207 611 207 c 0,3,4
 551 207 551 207 502.5 228 c 128,-1,5
 454 249 454 249 420 287 c 128,-1,6
 386 325 386 325 368 378 c 128,-1,7
 350 431 350 431 350 496 c 2,8,-1
 350 586 l 2,9,10
 350 650 350 650 368 703.5 c 128,-1,11
 386 757 386 757 420 795.5 c 128,-1,12
 454 834 454 834 502.5 855.5 c 128,-1,13
 551 877 551 877 611 877 c 0,14,15
 728 877 728 877 795.5 817.5 c 128,-1,16
 863 758 863 758 863 640 c 1,17,-1
 746 640 l 1,18,19
 746 712 746 712 712 743.5 c 128,-1,20
 678 775 678 775 611 775 c 0,21,22
 575 775 575 775 548 761 c 128,-1,23
 521 747 521 747 502.5 722 c 128,-1,24
 484 697 484 697 475 662.5 c 128,-1,25
 466 628 466 628 466 587 c 2,26,-1
 466 496 l 2,27,28
 466 454 466 454 475 419.5 c 128,-1,29
 484 385 484 385 502.5 360.5 c 128,-1,30
 521 336 521 336 548 322 c 128,-1,31
 575 308 575 308 611 308 c 0,32,33
 678 308 678 308 711.5 338 c 128,-1,34
 745 368 745 368 745 442 c 1,35,-1
 862 442 l 1,0,1
180 542 m 256,36,37
 180 443 180 443 214.5 357 c 128,-1,38
 249 271 249 271 309 207.5 c 128,-1,39
 369 144 369 144 449.5 108 c 128,-1,40
 530 72 530 72 622 72 c 0,41,42
 713 72 713 72 793 108 c 128,-1,43
 873 144 873 144 933 207.5 c 128,-1,44
 993 271 993 271 1027.5 357 c 128,-1,45
 1062 443 1062 443 1062 542 c 256,46,47
 1062 641 1062 641 1027.5 726 c 128,-1,48
 993 811 993 811 933 874 c 128,-1,49
 873 937 873 937 793 972.5 c 128,-1,50
 713 1008 713 1008 622 1008 c 0,51,52
 530 1008 530 1008 449.5 972.5 c 128,-1,53
 369 937 369 937 309 874 c 128,-1,54
 249 811 249 811 214.5 726 c 128,-1,55
 180 641 180 641 180 542 c 256,36,37
89 542 m 0,56,57
 89 660 89 660 131 762.5 c 128,-1,58
 173 865 173 865 245.5 940.5 c 128,-1,59
 318 1016 318 1016 415 1059 c 128,-1,60
 512 1102 512 1102 622 1102 c 256,61,62
 732 1102 732 1102 829 1059 c 128,-1,63
 926 1016 926 1016 998 940.5 c 128,-1,64
 1070 865 1070 865 1112 762.5 c 128,-1,65
 1154 660 1154 660 1154 542 c 0,66,67
 1154 423 1154 423 1112 320.5 c 128,-1,68
 1070 218 1070 218 998 142 c 128,-1,69
 926 66 926 66 829 23 c 128,-1,70
 732 -20 732 -20 622 -20 c 256,71,72
 512 -20 512 -20 415 23 c 128,-1,73
 318 66 318 66 245.5 142 c 128,-1,74
 173 218 173 218 131 320.5 c 128,-1,75
 89 423 89 423 89 542 c 0,56,57
EndSplineSet
EndChar
StartChar: ordfeminine
Encoding: 170 170 106
Width: 1229
Flags: W
LayerCount: 2
Back
Fore
SplineSet
765 705 m 1,0,1
 750 748 750 748 744 799 c 1,2,3
 730 778 730 778 709.5 758.5 c 128,-1,4
 689 739 689 739 661.5 724 c 128,-1,5
 634 709 634 709 599 700 c 128,-1,6
 564 691 564 691 522 691 c 0,7,8
 462 691 462 691 415.5 707 c 128,-1,9
 369 723 369 723 337.5 753 c 128,-1,10
 306 783 306 783 289.5 825 c 128,-1,11
 273 867 273 867 273 919 c 0,12,13
 273 1030 273 1030 356.5 1090 c 128,-1,14
 440 1150 440 1150 604 1150 c 2,15,-1
 741 1150 l 1,16,-1
 741 1201 l 2,17,18
 741 1263 741 1263 712.5 1295.5 c 128,-1,19
 684 1328 684 1328 625 1328 c 0,20,21
 560 1328 560 1328 523.5 1302.5 c 128,-1,22
 487 1277 487 1277 487 1229 c 1,23,-1
 314 1243 l 1,24,25
 314 1294 314 1294 336 1336.5 c 128,-1,26
 358 1379 358 1379 399 1410 c 128,-1,27
 440 1441 440 1441 497 1458.5 c 128,-1,28
 554 1476 554 1476 625 1476 c 0,29,30
 690 1476 690 1476 743.5 1458.5 c 128,-1,31
 797 1441 797 1441 835.5 1406.5 c 128,-1,32
 874 1372 874 1372 895 1320.5 c 128,-1,33
 916 1269 916 1269 916 1200 c 2,34,-1
 916 886 l 2,35,36
 916 837 916 837 922 793 c 128,-1,37
 928 749 928 749 942 705 c 1,38,-1
 765 705 l 1,0,1
565 835 m 0,39,40
 591 835 591 835 619 843.5 c 128,-1,41
 647 852 647 852 671.5 865.5 c 128,-1,42
 696 879 696 879 714.5 896 c 128,-1,43
 733 913 733 913 741 930 c 1,44,-1
 741 1033 l 1,45,-1
 605 1033 l 2,46,47
 566 1033 566 1033 537 1024 c 128,-1,48
 508 1015 508 1015 488 1000 c 128,-1,49
 468 985 468 985 458 965 c 128,-1,50
 448 945 448 945 448 923 c 0,51,52
 448 881 448 881 476.5 858 c 128,-1,53
 505 835 505 835 565 835 c 0,39,40
EndSplineSet
EndChar
StartChar: registered
Encoding: 174 174 109
Width: 1229
Flags: W
LayerCount: 2
Back
Fore
SplineSet
88 541 m 256,0,1
 88 660 88 660 130 762.5 c 128,-1,2
 172 865 172 865 244 940.5 c 128,-1,3
 316 1016 316 1016 413 1059 c 128,-1,4
 510 1102 510 1102 620 1102 c 256,5,6
 730 1102 730 1102 827 1059 c 128,-1,7
 924 1016 924 1016 996 940.5 c 128,-1,8
 1068 865 1068 865 1110 762.5 c 128,-1,9
 1152 660 1152 660 1152 541 c 256,10,11
 1152 422 1152 422 1110 319.5 c 128,-1,12
 1068 217 1068 217 996 141 c 128,-1,13
 924 65 924 65 827 22 c 128,-1,14
 730 -21 730 -21 620 -21 c 256,15,16
 510 -21 510 -21 413 22 c 128,-1,17
 316 65 316 65 244 141 c 128,-1,18
 172 217 172 217 130 319.5 c 128,-1,19
 88 422 88 422 88 541 c 256,0,1
179 541 m 256,20,21
 179 442 179 442 213.5 356.5 c 128,-1,22
 248 271 248 271 308 208 c 128,-1,23
 368 145 368 145 448.5 109 c 128,-1,24
 529 73 529 73 620 73 c 256,25,26
 711 73 711 73 791.5 109 c 128,-1,27
 872 145 872 145 932 208 c 128,-1,28
 992 271 992 271 1026.5 356.5 c 128,-1,29
 1061 442 1061 442 1061 541 c 256,30,31
 1061 640 1061 640 1026.5 725.5 c 128,-1,32
 992 811 992 811 932 874 c 128,-1,33
 872 937 872 937 791.5 972.5 c 128,-1,34
 711 1008 711 1008 620 1008 c 256,35,36
 529 1008 529 1008 448.5 972.5 c 128,-1,37
 368 937 368 937 308 874 c 128,-1,38
 248 811 248 811 213.5 725.5 c 128,-1,39
 179 640 179 640 179 541 c 256,20,21
512 484 m 1,40,-1
 512 232 l 1,41,-1
 399 232 l 1,42,-1
 399 869 l 1,43,-1
 610 869 l 2,44,45
 721 869 721 869 787.5 821 c 128,-1,46
 854 773 854 773 854 676 c 0,47,48
 854 620 854 620 819 581 c 128,-1,49
 784 542 784 542 718 519 c 1,50,-1
 864 232 l 1,51,-1
 748 232 l 1,52,-1
 631 484 l 1,53,-1
 512 484 l 1,40,-1
512 585 m 1,54,-1
 626 585 l 2,55,56
 648 585 648 585 669 591 c 128,-1,57
 690 597 690 597 706 608 c 128,-1,58
 722 619 722 619 731.5 635 c 128,-1,59
 741 651 741 651 741 672 c 0,60,61
 741 727 741 727 712 748 c 128,-1,62
 683 769 683 769 610 769 c 2,63,-1
 512 769 l 1,64,-1
 512 585 l 1,54,-1
EndSplineSet
EndChar
StartChar: degree
Encoding: 176 176 111
Width: 1229
Flags: W
LayerCount: 2
Back
Fore
SplineSet
357 1202 m 0,0,1
 357 1258 357 1258 378.5 1307.5 c 128,-1,2
 400 1357 400 1357 437 1394.5 c 128,-1,3
 474 1432 474 1432 523 1454 c 128,-1,4
 572 1476 572 1476 628 1476 c 0,5,6
 682 1476 682 1476 730.5 1454 c 128,-1,7
 779 1432 779 1432 815 1394.5 c 128,-1,8
 851 1357 851 1357 872 1307.5 c 128,-1,9
 893 1258 893 1258 893 1202 c 0,10,11
 893 1145 893 1145 872 1096 c 128,-1,12
 851 1047 851 1047 815 1010 c 128,-1,13
 779 973 779 973 730.5 952 c 128,-1,14
 682 931 682 931 628 931 c 0,15,16
 572 931 572 931 523 952 c 128,-1,17
 474 973 474 973 437 1010 c 128,-1,18
 400 1047 400 1047 378.5 1096 c 128,-1,19
 357 1145 357 1145 357 1202 c 0,0,1
502 1202 m 256,20,21
 502 1175 502 1175 512 1152.5 c 128,-1,22
 522 1130 522 1130 539.5 1113.5 c 128,-1,23
 557 1097 557 1097 579.5 1087.5 c 128,-1,24
 602 1078 602 1078 628 1078 c 0,25,26
 653 1078 653 1078 675.5 1087 c 128,-1,27
 698 1096 698 1096 714 1112.5 c 128,-1,28
 730 1129 730 1129 739.5 1152 c 128,-1,29
 749 1175 749 1175 749 1202 c 256,30,31
 749 1229 749 1229 739.5 1252.5 c 128,-1,32
 730 1276 730 1276 714 1293.5 c 128,-1,33
 698 1311 698 1311 675.5 1320.5 c 128,-1,34
 653 1330 653 1330 628 1330 c 0,35,36
 602 1330 602 1330 579.5 1320.5 c 128,-1,37
 557 1311 557 1311 539.5 1293.5 c 128,-1,38
 522 1276 522 1276 512 1252.5 c 128,-1,39
 502 1229 502 1229 502 1202 c 256,20,21
EndSplineSet
EndChar
StartChar: plusminus
Encoding: 177 177 112
Width: 1229
Flags: W
LayerCount: 2
Back
Fore
SplineSet
732 933 m 1,0,-1
 1063 933 l 1,1,-1
 1063 701 l 1,2,-1
 732 701 l 1,3,-1
 732 331 l 1,4,-1
 487 331 l 1,5,-1
 487 701 l 1,6,-1
 147 701 l 1,7,-1
 147 933 l 1,8,-1
 487 933 l 1,9,-1
 487 1284 l 1,10,-1
 732 1284 l 1,11,-1
 732 933 l 1,0,-1
1031 0 m 1,12,-1
 171 0 l 1,13,-1
 171 227 l 1,14,-1
 1031 227 l 1,15,-1
 1031 0 l 1,12,-1
EndSplineSet
EndChar
StartChar: twosuperior
Encoding: 178 178 113
Width: 1229
Flags: W
LayerCount: 2
Back
Fore
SplineSet
934 667 m 1,0,-1
 316 667 l 1,1,-1
 316 801 l 1,2,-1
 603 1060 l 2,3,4
 660 1110 660 1110 684.5 1152.5 c 128,-1,5
 709 1195 709 1195 709 1219 c 0,6,7
 709 1258 709 1258 684.5 1282 c 128,-1,8
 660 1306 660 1306 612 1306 c 0,9,10
 555 1306 555 1306 527 1272.5 c 128,-1,11
 499 1239 499 1239 499 1194 c 1,12,-1
 298 1194 l 1,13,14
 298 1250 298 1250 319 1299.5 c 128,-1,15
 340 1349 340 1349 380 1386.5 c 128,-1,16
 420 1424 420 1424 476 1445.5 c 128,-1,17
 532 1467 532 1467 603 1467 c 0,18,19
 750 1467 750 1467 830.5 1402.5 c 128,-1,20
 911 1338 911 1338 911 1220 c 0,21,22
 911 1176 911 1176 897.5 1140 c 128,-1,23
 884 1104 884 1104 857 1069 c 128,-1,24
 830 1034 830 1034 790 998 c 128,-1,25
 750 962 750 962 696 919 c 2,26,-1
 579 826 l 1,27,-1
 934 826 l 1,28,-1
 934 667 l 1,0,-1
EndSplineSet
EndChar
StartChar: threesuperior
Encoding: 179 179 114
Width: 1229
Flags: W
LayerCount: 2
Back
Fore
SplineSet
515 1135 m 1,0,-1
 603 1135 l 2,1,2
 663 1135 663 1135 691 1159.5 c 128,-1,3
 719 1184 719 1184 719 1225 c 0,4,5
 719 1240 719 1240 713 1254 c 128,-1,6
 707 1268 707 1268 694.5 1279.5 c 128,-1,7
 682 1291 682 1291 661.5 1298 c 128,-1,8
 641 1305 641 1305 611 1305 c 0,9,10
 567 1305 567 1305 537 1288 c 128,-1,11
 507 1271 507 1271 507 1241 c 1,12,-1
 306 1241 l 1,13,14
 306 1296 306 1296 330.5 1338 c 128,-1,15
 355 1380 355 1380 396 1408.5 c 128,-1,16
 437 1437 437 1437 491 1451.5 c 128,-1,17
 545 1466 545 1466 605 1466 c 0,18,19
 675 1466 675 1466 733 1451.5 c 128,-1,20
 791 1437 791 1437 832 1408.5 c 128,-1,21
 873 1380 873 1380 896 1337.5 c 128,-1,22
 919 1295 919 1295 919 1240 c 0,23,24
 919 1179 919 1179 883 1136 c 128,-1,25
 847 1093 847 1093 784 1070 c 1,26,27
 855 1051 855 1051 894.5 1007.5 c 128,-1,28
 934 964 934 964 934 887 c 0,29,30
 934 831 934 831 909 788 c 128,-1,31
 884 745 884 745 839.5 715.5 c 128,-1,32
 795 686 795 686 735 670.5 c 128,-1,33
 675 655 675 655 605 655 c 0,34,35
 549 655 549 655 493.5 668 c 128,-1,36
 438 681 438 681 393.5 710.5 c 128,-1,37
 349 740 349 740 321 786.5 c 128,-1,38
 293 833 293 833 293 900 c 1,39,-1
 495 900 l 1,40,41
 495 866 495 866 527.5 840.5 c 128,-1,42
 560 815 560 815 617 815 c 0,43,44
 678 815 678 815 705 842 c 128,-1,45
 732 869 732 869 732 905 c 0,46,47
 732 958 732 958 698 979 c 128,-1,48
 664 1000 664 1000 603 1000 c 2,49,-1
 515 1000 l 1,50,-1
 515 1135 l 1,0,-1
EndSplineSet
EndChar
StartChar: acute
Encoding: 180 180 115
Width: 1229
Flags: W
LayerCount: 2
Back
Fore
SplineSet
569 1478 m 1,0,-1
 875 1478 l 1,1,-1
 598 1199 l 1,2,-1
 382 1199 l 1,3,-1
 569 1478 l 1,0,-1
EndSplineSet
EndChar
StartChar: mu
Encoding: 181 181 116
Width: 1229
Flags: W
LayerCount: 2
Back
Fore
SplineSet
450 1082 m 1,0,-1
 450 462 l 2,1,2
 450 382 450 382 463.5 332 c 128,-1,3
 477 282 477 282 501.5 253.5 c 128,-1,4
 526 225 526 225 560 215 c 128,-1,5
 594 205 594 205 635 205 c 0,6,7
 716 205 716 205 766.5 233.5 c 128,-1,8
 817 262 817 262 844 313 c 1,9,-1
 844 1082 l 1,10,-1
 1123 1082 l 1,11,-1
 1123 0 l 1,12,-1
 864 0 l 1,13,-1
 858 72 l 1,14,15
 815 27 815 27 758.5 3 c 128,-1,16
 702 -21 702 -21 630 -21 c 0,17,18
 523 -21 523 -21 450 27 c 1,19,-1
 450 -416 l 1,20,-1
 172 -416 l 1,21,-1
 172 1082 l 1,22,-1
 450 1082 l 1,0,-1
EndSplineSet
EndChar
StartChar: paragraph
Encoding: 182 182 117
Width: 1229
Flags: W
LayerCount: 2
Back
Fore
SplineSet
791 0 m 1,0,-1
 791 520 l 1,1,-1
 708 520 l 2,2,3
 589 520 589 520 497 555 c 128,-1,4
 405 590 405 590 342.5 652.5 c 128,-1,5
 280 715 280 715 248 801 c 128,-1,6
 216 887 216 887 216 988 c 0,7,8
 216 1088 216 1088 248 1174 c 128,-1,9
 280 1260 280 1260 342.5 1322.5 c 128,-1,10
 405 1385 405 1385 497 1420.5 c 128,-1,11
 589 1456 589 1456 708 1456 c 2,12,-1
 1007 1456 l 1,13,-1
 1007 0 l 1,14,-1
 791 0 l 1,0,-1
EndSplineSet
EndChar
StartChar: periodcentered
Encoding: 183 183 118
Width: 1229
Flags: W
LayerCount: 2
Back
Fore
SplineSet
494 701 m 256,0,1
 494 733 494 733 505 760.5 c 128,-1,2
 516 788 516 788 536.5 808 c 128,-1,3
 557 828 557 828 586.5 839.5 c 128,-1,4
 616 851 616 851 652 851 c 256,5,6
 688 851 688 851 717.5 839.5 c 128,-1,7
 747 828 747 828 767.5 808 c 128,-1,8
 788 788 788 788 799 760.5 c 128,-1,9
 810 733 810 733 810 701 c 256,10,11
 810 669 810 669 799 642 c 128,-1,12
 788 615 788 615 767.5 595 c 128,-1,13
 747 575 747 575 717.5 563.5 c 128,-1,14
 688 552 688 552 652 552 c 256,15,16
 616 552 616 552 586.5 563.5 c 128,-1,17
 557 575 557 575 536.5 595 c 128,-1,18
 516 615 516 615 505 642 c 128,-1,19
 494 669 494 669 494 701 c 256,0,1
EndSplineSet
EndChar
StartChar: cedilla
Encoding: 184 184 119
Width: 1229
Flags: W
LayerCount: 2
Back
Fore
SplineSet
676 5 m 1,0,-1
 665 -51 l 1,1,2
 693 -56 693 -56 720 -67.5 c 128,-1,3
 747 -79 747 -79 768 -99.5 c 128,-1,4
 789 -120 789 -120 802 -150.5 c 128,-1,5
 815 -181 815 -181 815 -224 c 0,6,7
 815 -277 815 -277 793 -320 c 128,-1,8
 771 -363 771 -363 727.5 -393.5 c 128,-1,9
 684 -424 684 -424 620 -441 c 128,-1,10
 556 -458 556 -458 471 -458 c 1,11,-1
 464 -298 l 1,12,13
 515 -298 515 -298 549 -279 c 128,-1,14
 583 -260 583 -260 583 -215 c 0,15,16
 583 -173 583 -173 548.5 -157 c 128,-1,17
 514 -141 514 -141 438 -136 c 1,18,-1
 469 5 l 1,19,-1
 676 5 l 1,0,-1
EndSplineSet
EndChar
StartChar: onesuperior
Encoding: 185 185 120
Width: 1229
Flags: W
LayerCount: 2
Back
Fore
SplineSet
784 659 m 1,0,-1
 585 659 l 1,1,-1
 585 1212 l 1,2,-1
 394 1169 l 1,3,-1
 394 1325 l 1,4,-1
 765 1445 l 1,5,-1
 784 1445 l 1,6,-1
 784 659 l 1,0,-1
EndSplineSet
EndChar
StartChar: ordmasculine
Encoding: 186 186 121
Width: 1229
Flags: W
LayerCount: 2
Back
Fore
SplineSet
266 1141 m 2,0,1
 266 1214 266 1214 290 1275.5 c 128,-1,2
 314 1337 314 1337 359 1381.5 c 128,-1,3
 404 1426 404 1426 468 1451 c 128,-1,4
 532 1476 532 1476 612 1476 c 0,5,6
 693 1476 693 1476 757 1451 c 128,-1,7
 821 1426 821 1426 866 1381.5 c 128,-1,8
 911 1337 911 1337 935 1275.5 c 128,-1,9
 959 1214 959 1214 959 1141 c 2,10,-1
 959 1024 l 2,11,12
 959 951 959 951 935 889.5 c 128,-1,13
 911 828 911 828 866.5 784 c 128,-1,14
 822 740 822 740 758 715 c 128,-1,15
 694 690 694 690 614 690 c 256,16,17
 534 690 534 690 469.5 715 c 128,-1,18
 405 740 405 740 360 784 c 128,-1,19
 315 828 315 828 290.5 889.5 c 128,-1,20
 266 951 266 951 266 1024 c 2,21,-1
 266 1141 l 2,0,1
441 1024 m 2,22,23
 441 983 441 983 451.5 949 c 128,-1,24
 462 915 462 915 483.5 889.5 c 128,-1,25
 505 864 505 864 537.5 850 c 128,-1,26
 570 836 570 836 614 836 c 0,27,28
 657 836 657 836 689 850 c 128,-1,29
 721 864 721 864 742 889.5 c 128,-1,30
 763 915 763 915 773.5 949 c 128,-1,31
 784 983 784 983 784 1024 c 2,32,-1
 784 1141 l 2,33,34
 784 1181 784 1181 773.5 1215 c 128,-1,35
 763 1249 763 1249 741.5 1274 c 128,-1,36
 720 1299 720 1299 687.5 1313.5 c 128,-1,37
 655 1328 655 1328 612 1328 c 256,38,39
 569 1328 569 1328 537 1313.5 c 128,-1,40
 505 1299 505 1299 483.5 1274 c 128,-1,41
 462 1249 462 1249 451.5 1215 c 128,-1,42
 441 1181 441 1181 441 1141 c 2,43,-1
 441 1024 l 2,22,23
EndSplineSet
EndChar
StartChar: questiondown
Encoding: 191 191 126
Width: 1229
Flags: W
LayerCount: 2
Back
Fore
SplineSet
791 639 m 1,0,1
 791 571 791 571 788.5 522.5 c 128,-1,2
 786 474 786 474 774 436.5 c 128,-1,3
 762 399 762 399 736.5 367 c 128,-1,4
 711 335 711 335 663 299 c 1,5,6
 631 266 631 266 598.5 230.5 c 128,-1,7
 566 195 566 195 540 157.5 c 128,-1,8
 514 120 514 120 497.5 80.5 c 128,-1,9
 481 41 481 41 481 -1 c 0,10,11
 481 -84 481 -84 524 -124.5 c 128,-1,12
 567 -165 567 -165 642 -165 c 0,13,14
 677 -165 677 -165 708.5 -155.5 c 128,-1,15
 740 -146 740 -146 764 -126 c 128,-1,16
 788 -106 788 -106 802.5 -74 c 128,-1,17
 817 -42 817 -42 818 3 c 1,18,-1
 1097 3 l 1,19,20
 1095 -98 1095 -98 1060 -172.5 c 128,-1,21
 1025 -247 1025 -247 965 -296 c 128,-1,22
 905 -345 905 -345 823 -369 c 128,-1,23
 741 -393 741 -393 647 -393 c 0,24,25
 542 -393 542 -393 459.5 -367.5 c 128,-1,26
 377 -342 377 -342 320 -292.5 c 128,-1,27
 263 -243 263 -243 232.5 -170 c 128,-1,28
 202 -97 202 -97 202 -2 c 0,29,30
 202 68 202 68 225 127 c 128,-1,31
 248 186 248 186 285.5 237.5 c 128,-1,32
 323 289 323 289 370 335 c 128,-1,33
 417 381 417 381 464 425 c 0,34,35
 495 454 495 454 510.5 476 c 128,-1,36
 526 498 526 498 533 521 c 128,-1,37
 540 544 540 544 540.5 571.5 c 128,-1,38
 541 599 541 599 542 639 c 1,39,-1
 791 639 l 1,0,1
538 942 m 0,40,41
 538 970 538 970 544.5 994.5 c 128,-1,42
 551 1019 551 1019 566 1037 c 128,-1,43
 581 1055 581 1055 606.5 1065.5 c 128,-1,44
 632 1076 632 1076 670 1076 c 256,45,46
 708 1076 708 1076 734 1065.5 c 128,-1,47
 760 1055 760 1055 775.5 1037 c 128,-1,48
 791 1019 791 1019 798 994.5 c 128,-1,49
 805 970 805 970 805 942 c 0,50,51
 805 916 805 916 798 893.5 c 128,-1,52
 791 871 791 871 775.5 854 c 128,-1,53
 760 837 760 837 734 827 c 128,-1,54
 708 817 708 817 670 817 c 256,55,56
 632 817 632 817 606.5 827 c 128,-1,57
 581 837 581 837 566 854 c 128,-1,58
 551 871 551 871 544.5 893.5 c 128,-1,59
 538 916 538 916 538 942 c 0,40,41
EndSplineSet
EndChar
StartChar: AE
Encoding: 198 198 127
Width: 1229
Flags: W
LayerCount: 2
Back
Fore
SplineSet
1177 0 m 1,0,-1
 641 0 l 1,1,-1
 641 334 l 1,2,-1
 424 334 l 1,3,-1
 330 0 l 1,4,-1
 48 0 l 1,5,-1
 527 1456 l 1,6,-1
 1156 1456 l 1,7,-1
 1156 1228 l 1,8,-1
 908 1228 l 1,9,-1
 908 862 l 1,10,-1
 1125 862 l 1,11,-1
 1125 635 l 1,12,-1
 908 635 l 1,13,-1
 908 226 l 1,14,-1
 1177 226 l 1,15,-1
 1177 0 l 1,0,-1
641 574 m 1,16,-1
 641 1106 l 1,17,-1
 491 574 l 1,18,-1
 641 574 l 1,16,-1
EndSplineSet
EndChar
StartChar: multiply
Encoding: 215 215 128
Width: 1229
Flags: W
LayerCount: 2
Back
Fore
SplineSet
157 371 m 1,0,-1
 466 686 l 1,1,-1
 157 1001 l 1,2,-1
 322 1165 l 1,3,-1
 629 852 l 1,4,-1
 936 1165 l 1,5,-1
 1101 1001 l 1,6,-1
 792 686 l 1,7,-1
 1101 371 l 1,8,-1
 936 207 l 1,9,-1
 629 520 l 1,10,-1
 322 207 l 1,11,-1
 157 371 l 1,0,-1
EndSplineSet
EndChar
StartChar: Oslash
Encoding: 216 216 129
Width: 1229
Flags: W
LayerCount: 2
Back
Fore
SplineSet
1152 621 m 2,0,1
 1152 481 1152 481 1115 363 c 128,-1,2
 1078 245 1078 245 1008 160 c 128,-1,3
 938 75 938 75 837.5 27.5 c 128,-1,4
 737 -20 737 -20 611 -20 c 0,5,6
 525 -20 525 -20 453 1.5 c 128,-1,7
 381 23 381 23 322 65 c 1,8,-1
 231 -95 l 1,9,-1
 48 -95 l 1,10,-1
 205 183 l 1,11,12
 145 268 145 268 115 378.5 c 128,-1,13
 85 489 85 489 85 621 c 2,14,-1
 85 833 l 2,15,16
 85 973 85 973 120 1091 c 128,-1,17
 155 1209 155 1209 222 1294.5 c 128,-1,18
 289 1380 289 1380 386.5 1428 c 128,-1,19
 484 1476 484 1476 610 1476 c 0,20,21
 691 1476 691 1476 761.5 1456 c 128,-1,22
 832 1436 832 1436 891 1398 c 1,23,-1
 959 1518 l 1,24,-1
 1143 1518 l 1,25,-1
 1013 1288 l 1,26,27
 1081 1202 1081 1202 1116.5 1086.5 c 128,-1,28
 1152 971 1152 971 1152 833 c 2,29,-1
 1152 621 l 2,0,1
867 835 m 2,30,31
 866 880 866 880 862.5 922 c 128,-1,32
 859 964 859 964 851 1002 c 1,33,-1
 447 287 l 1,34,35
 476 251 476 251 516 231 c 128,-1,36
 556 211 556 211 611 211 c 0,37,38
 679 211 679 211 727.5 242 c 128,-1,39
 776 273 776 273 806.5 327.5 c 128,-1,40
 837 382 837 382 852 457 c 128,-1,41
 867 532 867 532 867 621 c 2,42,-1
 867 835 l 2,30,31
370 621 m 2,43,44
 370 586 370 586 372 553 c 128,-1,45
 374 520 374 520 378 489 c 1,46,-1
 768 1180 l 1,47,48
 738 1210 738 1210 699 1226.5 c 128,-1,49
 660 1243 660 1243 610 1243 c 0,50,51
 542 1243 542 1243 496 1212.5 c 128,-1,52
 450 1182 450 1182 422 1128 c 128,-1,53
 394 1074 394 1074 382 999 c 128,-1,54
 370 924 370 924 370 835 c 2,55,-1
 370 621 l 2,43,44
EndSplineSet
EndChar
StartChar: Thorn
Encoding: 222 222 130
Width: 1229
Flags: W
LayerCount: 2
Back
Fore
SplineSet
415 1456 m 1,0,-1
 415 1185 l 1,1,-1
 642 1185 l 2,2,3
 771 1185 771 1185 870 1151.5 c 128,-1,4
 969 1118 969 1118 1036.5 1059 c 128,-1,5
 1104 1000 1104 1000 1139 917.5 c 128,-1,6
 1174 835 1174 835 1174 738 c 0,7,8
 1174 640 1174 640 1139 557.5 c 128,-1,9
 1104 475 1104 475 1036.5 415.5 c 128,-1,10
 969 356 969 356 870 322.5 c 128,-1,11
 771 289 771 289 642 289 c 2,12,-1
 415 289 l 1,13,-1
 415 0 l 1,14,-1
 136 0 l 1,15,-1
 136 1456 l 1,16,-1
 415 1456 l 1,0,-1
415 961 m 1,17,-1
 415 513 l 1,18,-1
 642 513 l 2,19,20
 710 513 710 513 758 531.5 c 128,-1,21
 806 550 806 550 836.5 581 c 128,-1,22
 867 612 867 612 881 652.5 c 128,-1,23
 895 693 895 693 895 736 c 256,24,25
 895 779 895 779 881 820 c 128,-1,26
 867 861 867 861 836.5 892 c 128,-1,27
 806 923 806 923 758 942 c 128,-1,28
 710 961 710 961 642 961 c 2,29,-1
 415 961 l 1,17,-1
EndSplineSet
EndChar
StartChar: germandbls
Encoding: 223 223 131
Width: 1229
Flags: W
LayerCount: 2
Back
Fore
SplineSet
439 0 m 1,0,-1
 162 0 l 1,1,-1
 162 1076 l 2,2,3
 162 1194 162 1194 196.5 1285 c 128,-1,4
 231 1376 231 1376 292.5 1437.5 c 128,-1,5
 354 1499 354 1499 439.5 1530.5 c 128,-1,6
 525 1562 525 1562 627 1562 c 0,7,8
 706 1562 706 1562 778 1539.5 c 128,-1,9
 850 1517 850 1517 904.5 1471 c 128,-1,10
 959 1425 959 1425 991.5 1356.5 c 128,-1,11
 1024 1288 1024 1288 1024 1196 c 0,12,13
 1024 1146 1024 1146 1016 1110 c 128,-1,14
 1008 1074 1008 1074 995.5 1046.5 c 128,-1,15
 983 1019 983 1019 969 996.5 c 128,-1,16
 955 974 955 974 942.5 950 c 128,-1,17
 930 926 930 926 922 898 c 128,-1,18
 914 870 914 870 914 832 c 0,19,20
 914 797 914 797 934 765 c 128,-1,21
 954 733 954 733 983.5 700.5 c 128,-1,22
 1013 668 1013 668 1047.5 632.5 c 128,-1,23
 1082 597 1082 597 1111.5 555.5 c 128,-1,24
 1141 514 1141 514 1161 463.5 c 128,-1,25
 1181 413 1181 413 1181 350 c 0,26,27
 1181 261 1181 261 1154.5 191.5 c 128,-1,28
 1128 122 1128 122 1077 75 c 128,-1,29
 1026 28 1026 28 951.5 3.5 c 128,-1,30
 877 -21 877 -21 782 -21 c 0,31,32
 743 -21 743 -21 702 -17 c 128,-1,33
 661 -13 661 -13 623 -5.5 c 128,-1,34
 585 2 585 2 553 12.5 c 128,-1,35
 521 23 521 23 500 37 c 1,36,-1
 554 258 l 1,37,38
 570 249 570 249 593 239 c 128,-1,39
 616 229 616 229 644.5 221 c 128,-1,40
 673 213 673 213 706 207.5 c 128,-1,41
 739 202 739 202 774 202 c 0,42,43
 835 202 835 202 869 240.5 c 128,-1,44
 903 279 903 279 903 344 c 0,45,46
 903 385 903 385 883 418.5 c 128,-1,47
 863 452 863 452 833.5 483.5 c 128,-1,48
 804 515 804 515 769.5 547.5 c 128,-1,49
 735 580 735 580 705.5 619 c 128,-1,50
 676 658 676 658 656 707 c 128,-1,51
 636 756 636 756 636 821 c 0,52,53
 636 865 636 865 644.5 898 c 128,-1,54
 653 931 653 931 665.5 958 c 128,-1,55
 678 985 678 985 693 1008.5 c 128,-1,56
 708 1032 708 1032 720.5 1057.5 c 128,-1,57
 733 1083 733 1083 741.5 1112 c 128,-1,58
 750 1141 750 1141 750 1180 c 0,59,60
 750 1217 750 1217 737.5 1246.5 c 128,-1,61
 725 1276 725 1276 705 1296.5 c 128,-1,62
 685 1317 685 1317 660 1328 c 128,-1,63
 635 1339 635 1339 610 1339 c 0,64,65
 575 1339 575 1339 543.5 1323.5 c 128,-1,66
 512 1308 512 1308 489 1275.5 c 128,-1,67
 466 1243 466 1243 452.5 1192.5 c 128,-1,68
 439 1142 439 1142 439 1072 c 2,69,-1
 439 0 l 1,0,-1
EndSplineSet
Substitution2: "'smcp' Lowercase to Small Capitals lookup 0 subtable" Germandbls.smcp
EndChar
StartChar: ae
Encoding: 230 230 132
Width: 1229
Flags: W
LayerCount: 2
Back
Fore
SplineSet
868 -20 m 0,0,1
 778 -20 778 -20 710.5 11 c 128,-1,2
 643 42 643 42 598 99 c 1,3,4
 580 75 580 75 556.5 53 c 128,-1,5
 533 31 533 31 503.5 15 c 128,-1,6
 474 -1 474 -1 439.5 -10.5 c 128,-1,7
 405 -20 405 -20 364 -20 c 0,8,9
 287 -20 287 -20 228 2.5 c 128,-1,10
 169 25 169 25 128.5 66 c 128,-1,11
 88 107 88 107 67 166 c 128,-1,12
 46 225 46 225 46 297 c 0,13,14
 46 466 46 466 160 557 c 128,-1,15
 274 648 274 648 497 648 c 2,16,-1
 500 648 l 1,17,-1
 500 767 l 2,18,19
 500 820 500 820 481.5 848.5 c 128,-1,20
 463 877 463 877 422 877 c 0,21,22
 375 877 375 877 352.5 853.5 c 128,-1,23
 330 830 330 830 330 776 c 1,24,-1
 69 785 l 1,25,26
 69 857 69 857 92.5 916 c 128,-1,27
 116 975 116 975 160 1016 c 128,-1,28
 204 1057 204 1057 266.5 1079.5 c 128,-1,29
 329 1102 329 1102 408 1102 c 0,30,31
 553 1102 553 1102 640 1027 c 1,32,33
 682 1063 682 1063 738.5 1083 c 128,-1,34
 795 1103 795 1103 867 1102 c 0,35,36
 941 1102 941 1102 1001.5 1074 c 128,-1,37
 1062 1046 1062 1046 1104.5 994 c 128,-1,38
 1147 942 1147 942 1170.5 867 c 128,-1,39
 1194 792 1194 792 1194 699 c 2,40,-1
 1194 454 l 1,41,-1
 743 454 l 1,42,-1
 743 363 l 2,43,44
 743 327 743 327 752 297.5 c 128,-1,45
 761 268 761 268 782 247 c 128,-1,46
 803 226 803 226 836 214.5 c 128,-1,47
 869 203 869 203 917 203 c 0,48,49
 951 203 951 203 978 207.5 c 128,-1,50
 1005 212 1005 212 1027.5 218.5 c 128,-1,51
 1050 225 1050 225 1070 234 c 128,-1,52
 1090 243 1090 243 1111 252 c 1,53,-1
 1166 60 l 1,54,55
 1146 44 1146 44 1115.5 29.5 c 128,-1,56
 1085 15 1085 15 1046.5 4 c 128,-1,57
 1008 -7 1008 -7 963 -13.5 c 128,-1,58
 918 -20 918 -20 868 -20 c 0,0,1
743 643 m 1,59,-1
 938 643 l 1,60,-1
 938 755 l 2,61,62
 938 812 938 812 916.5 844.5 c 128,-1,63
 895 877 895 877 847 877 c 0,64,65
 813 877 813 877 792.5 864 c 128,-1,66
 772 851 772 851 761 828 c 128,-1,67
 750 805 750 805 746.5 773 c 128,-1,68
 743 741 743 741 743 704 c 2,69,-1
 743 643 l 1,59,-1
434 185 m 0,70,71
 451 185 451 185 468 192 c 128,-1,72
 485 199 485 199 500 211 c 1,73,-1
 500 464 l 1,74,-1
 499 464 l 2,75,76
 456 464 456 464 423.5 450 c 128,-1,77
 391 436 391 436 368.5 412.5 c 128,-1,78
 346 389 346 389 334.5 358 c 128,-1,79
 323 327 323 327 323 293 c 0,80,81
 323 244 323 244 350.5 214.5 c 128,-1,82
 378 185 378 185 434 185 c 0,70,71
EndSplineSet
EndChar
StartChar: eth
Encoding: 240 240 133
Width: 1229
Flags: W
LayerCount: 2
Back
Fore
SplineSet
899 1264 m 1,0,1
 994 1149 994 1149 1047.5 994 c 128,-1,2
 1101 839 1101 839 1101 647 c 2,3,-1
 1101 579 l 2,4,5
 1101 444 1101 444 1059.5 333 c 128,-1,6
 1018 222 1018 222 945 143.5 c 128,-1,7
 872 65 872 65 772.5 22 c 128,-1,8
 673 -21 673 -21 558 -21 c 0,9,10
 442 -21 442 -21 346 17 c 128,-1,11
 250 55 250 55 181.5 121.5 c 128,-1,12
 113 188 113 188 75.5 277 c 128,-1,13
 38 366 38 366 38 468 c 0,14,15
 38 580 38 580 72.5 672 c 128,-1,16
 107 764 107 764 170.5 829.5 c 128,-1,17
 234 895 234 895 325 931 c 128,-1,18
 416 967 416 967 530 967 c 0,19,20
 605 967 605 967 672.5 944 c 128,-1,21
 740 921 740 921 794 879 c 1,22,23
 773 958 773 958 739 1021 c 128,-1,24
 705 1084 705 1084 661 1133 c 1,25,-1
 419 1000 l 1,26,-1
 341 1112 l 1,27,-1
 552 1229 l 1,28,29
 519 1251 519 1251 484 1268 c 128,-1,30
 449 1285 449 1285 414 1298 c 1,31,-1
 502 1515 l 1,32,33
 669 1473 669 1473 799 1365 c 1,34,-1
 998 1475 l 1,35,-1
 1076 1362 l 1,36,-1
 899 1264 l 1,0,1
822 661 m 1,37,38
 806 680 806 680 780.5 697 c 128,-1,39
 755 714 755 714 720.5 727 c 128,-1,40
 686 740 686 740 642 747.5 c 128,-1,41
 598 755 598 755 544 755 c 256,42,43
 490 755 490 755 448 731 c 128,-1,44
 406 707 406 707 376.5 667.5 c 128,-1,45
 347 628 347 628 331.5 576 c 128,-1,46
 316 524 316 524 316 468 c 0,47,48
 316 414 316 414 332.5 366 c 128,-1,49
 349 318 349 318 380.5 281.5 c 128,-1,50
 412 245 412 245 457.5 223.5 c 128,-1,51
 503 202 503 202 562 202 c 0,52,53
 622 202 622 202 670.5 228.5 c 128,-1,54
 719 255 719 255 752.5 301.5 c 128,-1,55
 786 348 786 348 804 412.5 c 128,-1,56
 822 477 822 477 822 554 c 2,57,-1
 822 649 l 1,58,-1
 822 661 l 1,37,38
EndSplineSet
Substitution2: "'smcp' Lowercase to Small Capitals lookup 0 subtable" Eth.smcp
EndChar
StartChar: divide
Encoding: 247 247 134
Width: 1229
Flags: W
LayerCount: 2
Back
Fore
SplineSet
1132 573 m 1,0,-1
 108 573 l 1,1,-1
 108 800 l 1,2,-1
 1132 800 l 1,3,-1
 1132 573 l 1,0,-1
465 1089 m 256,4,5
 465 1150 465 1150 506 1190 c 128,-1,6
 547 1230 547 1230 617 1230 c 0,7,8
 688 1230 688 1230 729 1190 c 128,-1,9
 770 1150 770 1150 770 1089 c 256,10,11
 770 1028 770 1028 729 988 c 128,-1,12
 688 948 688 948 617 948 c 0,13,14
 547 948 547 948 506 988 c 128,-1,15
 465 1028 465 1028 465 1089 c 256,4,5
463 278 m 0,16,17
 463 308 463 308 473.5 334 c 128,-1,18
 484 360 484 360 504 379 c 128,-1,19
 524 398 524 398 552 409 c 128,-1,20
 580 420 580 420 615 420 c 0,21,22
 686 420 686 420 727 379.5 c 128,-1,23
 768 339 768 339 768 278 c 256,24,25
 768 217 768 217 727 177 c 128,-1,26
 686 137 686 137 615 137 c 0,27,28
 545 137 545 137 504 177 c 128,-1,29
 463 217 463 217 463 278 c 0,16,17
EndSplineSet
EndChar
StartChar: oslash
Encoding: 248 248 135
Width: 1229
Flags: W
LayerCount: 2
Back
Fore
SplineSet
103 551 m 2,0,1
 103 669 103 669 137 769.5 c 128,-1,2
 171 870 171 870 236.5 944 c 128,-1,3
 302 1018 302 1018 396.5 1060 c 128,-1,4
 491 1102 491 1102 613 1102 c 0,5,6
 717 1102 717 1102 804 1070 c 1,7,-1
 875 1215 l 1,8,-1
 1032 1215 l 1,9,-1
 928 1002 l 1,10,11
 1024 928 1024 928 1074 811.5 c 128,-1,12
 1124 695 1124 695 1124 551 c 2,13,-1
 1124 530 l 2,14,15
 1124 411 1124 411 1090 310.5 c 128,-1,16
 1056 210 1056 210 991 136 c 128,-1,17
 926 62 926 62 831 20.5 c 128,-1,18
 736 -21 736 -21 615 -21 c 0,19,20
 521 -21 521 -21 440 5 c 1,21,-1
 369 -141 l 1,22,-1
 212 -141 l 1,23,-1
 314 67 l 1,24,25
 211 139 211 139 157 259.5 c 128,-1,26
 103 380 103 380 103 530 c 2,27,-1
 103 551 l 2,0,1
381 530 m 2,28,29
 381 464 381 464 392.5 406.5 c 128,-1,30
 404 349 404 349 430 305 c 1,31,-1
 701 860 l 1,32,33
 662 877 662 877 613 877 c 0,34,35
 551 877 551 877 507 851 c 128,-1,36
 463 825 463 825 435 780 c 128,-1,37
 407 735 407 735 394 676 c 128,-1,38
 381 617 381 617 381 551 c 2,39,-1
 381 530 l 2,28,29
845 551 m 2,40,41
 845 608 845 608 835.5 659.5 c 128,-1,42
 826 711 826 711 806 753 c 1,43,-1
 542 213 l 1,44,45
 577 202 577 202 615 202 c 0,46,47
 676 202 676 202 720 228 c 128,-1,48
 764 254 764 254 791.5 298.5 c 128,-1,49
 819 343 819 343 832 402.5 c 128,-1,50
 845 462 845 462 845 530 c 2,51,-1
 845 551 l 2,40,41
EndSplineSet
EndChar
StartChar: thorn
Encoding: 254 254 136
Width: 1229
Flags: W
LayerCount: 2
Back
Fore
SplineSet
1113 531 m 2,0,1
 1113 413 1113 413 1085.5 312 c 128,-1,2
 1058 211 1058 211 1004.5 137.5 c 128,-1,3
 951 64 951 64 872.5 22 c 128,-1,4
 794 -20 794 -20 692 -20 c 0,5,6
 604 -20 604 -20 538 10 c 128,-1,7
 472 40 472 40 423 95 c 1,8,-1
 423 -416 l 1,9,-1
 145 -416 l 1,10,-1
 145 1543 l 1,11,-1
 423 1543 l 1,12,-1
 423 987 l 1,13,14
 472 1042 472 1042 537.5 1072 c 128,-1,15
 603 1102 603 1102 690 1102 c 0,16,17
 793 1102 793 1102 872 1062.5 c 128,-1,18
 951 1023 951 1023 1004.5 950.5 c 128,-1,19
 1058 878 1058 878 1085.5 776.5 c 128,-1,20
 1113 675 1113 675 1113 552 c 2,21,-1
 1113 531 l 2,0,1
835 552 m 2,22,23
 835 620 835 620 822.5 679.5 c 128,-1,24
 810 739 810 739 784 782.5 c 128,-1,25
 758 826 758 826 716 851 c 128,-1,26
 674 876 674 876 616 876 c 0,27,28
 543 876 543 876 496 847.5 c 128,-1,29
 449 819 449 819 423 766 c 1,30,-1
 423 316 l 1,31,32
 449 264 449 264 496 233.5 c 128,-1,33
 543 203 543 203 618 203 c 0,34,35
 677 203 677 203 718.5 229 c 128,-1,36
 760 255 760 255 786 300 c 128,-1,37
 812 345 812 345 823.5 404.5 c 128,-1,38
 835 464 835 464 835 531 c 2,39,-1
 835 552 l 2,22,23
EndSplineSet
EndChar
StartChar: Aogonek
Encoding: 260 260 549
Width: 1229
Flags: W
LayerCount: 2
Back
Fore
SplineSet
760 1456 m 1,0,-1
 1228 0 l 1,1,-1
 1159 0 l 1,2,3
 1114 -18 1114 -18 1084 -38 c 128,-1,4
 1054 -58 1054 -58 1036 -80 c 128,-1,5
 1018 -102 1018 -102 1010.5 -126.5 c 128,-1,6
 1003 -151 1003 -151 1003 -178 c 0,7,8
 1003 -207 1003 -207 1018 -226.5 c 128,-1,9
 1033 -246 1033 -246 1070 -246 c 0,10,11
 1099 -246 1099 -246 1119 -239 c 128,-1,12
 1139 -232 1139 -232 1153 -226 c 1,13,-1
 1200 -380 l 1,14,15
 1172 -395 1172 -395 1127.5 -409.5 c 128,-1,16
 1083 -424 1083 -424 1014 -424 c 0,17,18
 968 -424 968 -424 927.5 -410.5 c 128,-1,19
 887 -397 887 -397 857 -371 c 128,-1,20
 827 -345 827 -345 809.5 -306.5 c 128,-1,21
 792 -268 792 -268 792 -217 c 0,22,23
 792 -156 792 -156 826 -95.5 c 128,-1,24
 860 -35 860 -35 928 14 c 1,25,-1
 847 304 l 1,26,-1
 410 304 l 1,27,-1
 324 0 l 1,28,-1
 28 0 l 1,29,-1
 505 1456 l 1,30,-1
 760 1456 l 1,0,-1
479 543 m 1,31,-1
 781 543 l 1,32,-1
 632 1079 l 1,33,-1
 479 543 l 1,31,-1
EndSplineSet
Substitution2: "'smcp' Lowercase to Small Capitals lookup 0 subtable" Aogonek.smcp
EndChar
StartChar: aogonek
Encoding: 261 261 550
Width: 1229
Flags: W
LayerCount: 2
Back
Fore
SplineSet
812 10 m 1,0,1
 804 29 804 29 798.5 52 c 128,-1,2
 793 75 793 75 788 101 c 1,3,4
 765 76 765 76 735 54 c 128,-1,5
 705 32 705 32 668.5 15.5 c 128,-1,6
 632 -1 632 -1 588 -10.5 c 128,-1,7
 544 -20 544 -20 493 -20 c 0,8,9
 410 -20 410 -20 340.5 4 c 128,-1,10
 271 28 271 28 221 71 c 128,-1,11
 171 114 171 114 143 173.5 c 128,-1,12
 115 233 115 233 115 303 c 0,13,14
 115 474 115 474 242.5 567.5 c 128,-1,15
 370 661 370 661 623 661 c 2,16,-1
 778 661 l 1,17,-1
 778 725 l 2,18,19
 778 803 778 803 727 848.5 c 128,-1,20
 676 894 676 894 580 894 c 0,21,22
 495 894 495 894 456 857.5 c 128,-1,23
 417 821 417 821 417 760 c 1,24,-1
 139 760 l 1,25,26
 139 829 139 829 169.5 891 c 128,-1,27
 200 953 200 953 258.5 1000 c 128,-1,28
 317 1047 317 1047 401.5 1074.5 c 128,-1,29
 486 1102 486 1102 595 1102 c 0,30,31
 693 1102 693 1102 777.5 1078 c 128,-1,32
 862 1054 862 1054 924 1007 c 128,-1,33
 986 960 986 960 1021 888.5 c 128,-1,34
 1056 817 1056 817 1056 723 c 2,35,-1
 1056 259 l 2,36,37
 1056 172 1056 172 1067 115 c 128,-1,38
 1078 58 1078 58 1099 17 c 1,39,-1
 1099 0 l 1,40,-1
 1048 0 l 1,41,42
 1003 -18 1003 -18 973 -38 c 128,-1,43
 943 -58 943 -58 925 -80 c 128,-1,44
 907 -102 907 -102 899.5 -126.5 c 128,-1,45
 892 -151 892 -151 892 -178 c 0,46,47
 892 -207 892 -207 907 -226.5 c 128,-1,48
 922 -246 922 -246 959 -246 c 0,49,50
 988 -246 988 -246 1008 -239 c 128,-1,51
 1028 -232 1028 -232 1042 -226 c 1,52,-1
 1089 -380 l 1,53,54
 1061 -395 1061 -395 1016.5 -409.5 c 128,-1,55
 972 -424 972 -424 903 -424 c 0,56,57
 857 -424 857 -424 816.5 -410.5 c 128,-1,58
 776 -397 776 -397 746 -371 c 128,-1,59
 716 -345 716 -345 698.5 -306.5 c 128,-1,60
 681 -268 681 -268 681 -217 c 0,61,62
 681 -157 681 -157 714 -97.5 c 128,-1,63
 747 -38 747 -38 812 10 c 1,0,1
552 195 m 0,64,65
 594 195 594 195 630 205 c 128,-1,66
 666 215 666 215 695 231 c 128,-1,67
 724 247 724 247 745 267.5 c 128,-1,68
 766 288 766 288 778 309 c 1,69,-1
 778 495 l 1,70,-1
 636 495 l 2,71,72
 571 495 571 495 525 482.5 c 128,-1,73
 479 470 479 470 450 447.5 c 128,-1,74
 421 425 421 425 407 393.5 c 128,-1,75
 393 362 393 362 393 325 c 0,76,77
 393 269 393 269 432.5 232 c 128,-1,78
 472 195 472 195 552 195 c 0,64,65
EndSplineSet
Substitution2: "'smcp' Lowercase to Small Capitals lookup 0 subtable" Aogonek.smcp
EndChar
StartChar: Dcroat
Encoding: 272 272 485
Width: 1259
Flags: W
LayerCount: 2
Back
Fore
SplineSet
155 0 m 1,0,-1
 155 643 l 1,1,-1
 -27 643 l 1,2,-1
 -27 823 l 1,3,-1
 155 823 l 1,4,-1
 155 1456 l 1,5,-1
 532 1456 l 2,6,7
 677 1456 677 1456 794.5 1406.5 c 128,-1,8
 912 1357 912 1357 995.5 1268.5 c 128,-1,9
 1079 1180 1079 1180 1124.5 1057 c 128,-1,10
 1170 934 1170 934 1170 787 c 2,11,-1
 1170 667 l 2,12,13
 1170 520 1170 520 1124.5 397.5 c 128,-1,14
 1079 275 1079 275 997 186.5 c 128,-1,15
 915 98 915 98 800 49 c 128,-1,16
 685 0 685 0 546 0 c 2,17,-1
 155 0 l 1,0,-1
665 643 m 1,18,-1
 438 643 l 1,19,-1
 438 226 l 1,20,-1
 546 226 l 2,21,22
 625 226 625 226 687.5 256 c 128,-1,23
 750 286 750 286 793.5 343 c 128,-1,24
 837 400 837 400 860 481.5 c 128,-1,25
 883 563 883 563 883 667 c 2,26,-1
 883 789 l 2,27,28
 883 887 883 887 860.5 967.5 c 128,-1,29
 838 1048 838 1048 793.5 1106 c 128,-1,30
 749 1164 749 1164 683.5 1196 c 128,-1,31
 618 1228 618 1228 532 1228 c 2,32,-1
 438 1228 l 1,33,-1
 438 823 l 1,34,-1
 665 823 l 1,35,-1
 665 643 l 1,18,-1
EndSplineSet
Substitution2: "'smcp' Lowercase to Small Capitals lookup 0 subtable" Dcroat.smcp
EndChar
StartChar: dcroat
Encoding: 273 273 995
Width: 1259
Flags: W
LayerCount: 2
Back
Fore
SplineSet
1249 1220 m 1,0,-1
 1080 1220 l 1,1,-1
 1080 0 l 1,2,-1
 829 0 l 1,3,-1
 815 113 l 1,4,5
 764 50 764 50 695 15 c 128,-1,6
 626 -20 626 -20 535 -20 c 0,7,8
 436 -20 436 -20 357.5 21.5 c 128,-1,9
 279 63 279 63 224.5 136 c 128,-1,10
 170 209 170 209 141 309.5 c 128,-1,11
 112 410 112 410 112 528 c 2,12,-1
 112 549 l 2,13,14
 112 672 112 672 140.5 774 c 128,-1,15
 169 876 169 876 224 949 c 128,-1,16
 279 1022 279 1022 357.5 1062 c 128,-1,17
 436 1102 436 1102 537 1102 c 0,18,19
 622 1102 622 1102 686.5 1071.5 c 128,-1,20
 751 1041 751 1041 801 985 c 1,21,-1
 801 1220 l 1,22,-1
 557 1220 l 1,23,-1
 557 1400 l 1,24,-1
 801 1400 l 1,25,-1
 801 1536 l 1,26,-1
 1080 1536 l 1,27,-1
 1080 1400 l 1,28,-1
 1249 1400 l 1,29,-1
 1249 1220 l 1,0,-1
390 528 m 2,30,31
 390 460 390 460 401.5 401.5 c 128,-1,32
 413 343 413 343 439 299.5 c 128,-1,33
 465 256 465 256 506 231 c 128,-1,34
 547 206 547 206 606 206 c 0,35,36
 678 206 678 206 725.5 237 c 128,-1,37
 773 268 773 268 801 322 c 1,38,-1
 801 760 l 1,39,40
 773 815 773 815 726 845.5 c 128,-1,41
 679 876 679 876 608 876 c 0,42,43
 549 876 549 876 507.5 850.5 c 128,-1,44
 466 825 466 825 440 780.5 c 128,-1,45
 414 736 414 736 402 676.5 c 128,-1,46
 390 617 390 617 390 549 c 2,47,-1
 390 528 l 2,30,31
EndSplineSet
Substitution2: "'smcp' Lowercase to Small Capitals lookup 0 subtable" Dcroat.smcp
EndChar
StartChar: Eogonek
Encoding: 280 280 567
Width: 1229
Flags: W
LayerCount: 2
Back
Fore
SplineSet
1027 638 m 1,0,-1
 429 638 l 1,1,-1
 429 227 l 1,2,-1
 1128 227 l 1,3,-1
 1128 0 l 1,4,-1
 1003 0 l 1,5,6
 958 -18 958 -18 928 -38 c 128,-1,7
 898 -58 898 -58 880 -80 c 128,-1,8
 862 -102 862 -102 854.5 -126.5 c 128,-1,9
 847 -151 847 -151 847 -178 c 0,10,11
 847 -207 847 -207 862 -226.5 c 128,-1,12
 877 -246 877 -246 914 -246 c 0,13,14
 943 -246 943 -246 963 -239 c 128,-1,15
 983 -232 983 -232 997 -226 c 1,16,-1
 1044 -380 l 1,17,18
 1016 -395 1016 -395 971.5 -409.5 c 128,-1,19
 927 -424 927 -424 858 -424 c 0,20,21
 812 -424 812 -424 771.5 -410.5 c 128,-1,22
 731 -397 731 -397 701 -371 c 128,-1,23
 671 -345 671 -345 653.5 -306.5 c 128,-1,24
 636 -268 636 -268 636 -217 c 0,25,26
 636 -160 636 -160 665.5 -104 c 128,-1,27
 695 -48 695 -48 753 0 c 1,28,-1
 147 0 l 1,29,-1
 147 1456 l 1,30,-1
 1125 1456 l 1,31,-1
 1125 1227 l 1,32,-1
 429 1227 l 1,33,-1
 429 860 l 1,34,-1
 1027 860 l 1,35,-1
 1027 638 l 1,0,-1
EndSplineSet
Substitution2: "'smcp' Lowercase to Small Capitals lookup 0 subtable" Eogonek.smcp
EndChar
StartChar: eogonek
Encoding: 281 281 568
Width: 1229
Flags: W
LayerCount: 2
Back
Fore
SplineSet
898 23 m 1,0,1
 853 5 853 5 823 -15 c 128,-1,2
 793 -35 793 -35 775 -57 c 128,-1,3
 757 -79 757 -79 749.5 -103.5 c 128,-1,4
 742 -128 742 -128 742 -155 c 0,5,6
 742 -184 742 -184 757 -203.5 c 128,-1,7
 772 -223 772 -223 809 -223 c 0,8,9
 838 -223 838 -223 858 -216 c 128,-1,10
 878 -209 878 -209 892 -203 c 1,11,-1
 939 -357 l 1,12,13
 911 -372 911 -372 866.5 -386.5 c 128,-1,14
 822 -401 822 -401 753 -401 c 0,15,16
 707 -401 707 -401 666.5 -387.5 c 128,-1,17
 626 -374 626 -374 596 -348 c 128,-1,18
 566 -322 566 -322 548.5 -283.5 c 128,-1,19
 531 -245 531 -245 531 -194 c 0,20,21
 531 -149 531 -149 549.5 -104 c 128,-1,22
 568 -59 568 -59 605 -17 c 1,23,24
 493 -7 493 -7 402 37 c 128,-1,25
 311 81 311 81 246.5 150.5 c 128,-1,26
 182 220 182 220 147 310.5 c 128,-1,27
 112 401 112 401 112 503 c 2,28,-1
 112 543 l 2,29,30
 112 667 112 667 151 769.5 c 128,-1,31
 190 872 190 872 260 946 c 128,-1,32
 330 1020 330 1020 426 1061 c 128,-1,33
 522 1102 522 1102 635 1102 c 0,34,35
 752 1102 752 1102 843.5 1063.5 c 128,-1,36
 935 1025 935 1025 998.5 955 c 128,-1,37
 1062 885 1062 885 1095 786.5 c 128,-1,38
 1128 688 1128 688 1128 569 c 2,39,-1
 1128 451 l 1,40,-1
 394 451 l 1,41,42
 402 396 402 396 426.5 350.5 c 128,-1,43
 451 305 451 305 489 272 c 128,-1,44
 527 239 527 239 576 221 c 128,-1,45
 625 203 625 203 683 203 c 0,46,47
 724 203 724 203 764.5 211 c 128,-1,48
 805 219 805 219 842 234.5 c 128,-1,49
 879 250 879 250 911 273 c 128,-1,50
 943 296 943 296 967 327 c 1,51,-1
 1106 177 l 1,52,53
 1080 140 1080 140 1038.5 104.5 c 128,-1,54
 997 69 997 69 940.5 41.5 c 128,-1,55
 884 14 884 14 815 -3 c 128,-1,56
 746 -20 746 -20 666 -20 c 0,57,58
 635 -20 635 -20 605 -17 c 1,59,60
 659 41 659 41 745 83 c 1,61,-1
 898 23 l 1,0,1
633 877 m 0,62,63
 586 877 586 877 547 860.5 c 128,-1,64
 508 844 508 844 478.5 813 c 128,-1,65
 449 782 449 782 429 739 c 128,-1,66
 409 696 409 696 399 643 c 1,67,-1
 855 643 l 1,68,-1
 855 665 l 2,69,70
 853 709 853 709 838 748 c 128,-1,71
 823 787 823 787 795 815.5 c 128,-1,72
 767 844 767 844 726.5 860.5 c 128,-1,73
 686 877 686 877 633 877 c 0,62,63
EndSplineSet
Substitution2: "'smcp' Lowercase to Small Capitals lookup 0 subtable" Eogonek.smcp
EndChar
StartChar: Hbar
Encoding: 294 294 137
Width: 1229
Flags: W
LayerCount: 2
Back
Fore
SplineSet
1041 1218 m 1,0,-1
 1240 1218 l 1,1,-1
 1240 1047 l 1,2,-1
 1041 1047 l 1,3,-1
 1041 0 l 1,4,-1
 763 0 l 1,5,-1
 763 631 l 1,6,-1
 351 631 l 1,7,-1
 351 0 l 1,8,-1
 72 0 l 1,9,-1
 72 1047 l 1,10,-1
 23 1047 l 1,11,-1
 23 1218 l 1,12,-1
 72 1218 l 1,13,-1
 72 1456 l 1,14,-1
 351 1456 l 1,15,-1
 351 1218 l 1,16,-1
 763 1218 l 1,17,-1
 763 1456 l 1,18,-1
 1041 1456 l 1,19,-1
 1041 1218 l 1,0,-1
351 859 m 1,20,-1
 763 859 l 1,21,-1
 763 1047 l 1,22,-1
 351 1047 l 1,23,-1
 351 859 l 1,20,-1
EndSplineSet
EndChar
StartChar: hbar
Encoding: 295 295 487
Width: 1259
Flags: W
LayerCount: 2
Back
Fore
SplineSet
703 1216 m 1,0,-1
 449 1216 l 1,1,-1
 449 933 l 1,2,3
 503 1012 503 1012 580.5 1057 c 128,-1,4
 658 1102 658 1102 754 1102 c 0,5,6
 839 1102 839 1102 910 1076.5 c 128,-1,7
 981 1051 981 1051 1032 997 c 128,-1,8
 1083 943 1083 943 1111.5 858.5 c 128,-1,9
 1140 774 1140 774 1140 655 c 2,10,-1
 1140 0 l 1,11,-1
 862 0 l 1,12,-1
 862 657 l 2,13,14
 862 715 862 715 847.5 757 c 128,-1,15
 833 799 833 799 806 825 c 128,-1,16
 779 851 779 851 741 863.5 c 128,-1,17
 703 876 703 876 655 876 c 0,18,19
 585 876 585 876 533.5 851 c 128,-1,20
 482 826 482 826 449 781 c 1,21,-1
 449 0 l 1,22,-1
 171 0 l 1,23,-1
 171 1216 l 1,24,-1
 11 1216 l 1,25,-1
 11 1396 l 1,26,-1
 171 1396 l 1,27,-1
 171 1536 l 1,28,-1
 449 1536 l 1,29,-1
 449 1396 l 1,30,-1
 703 1396 l 1,31,-1
 703 1216 l 1,0,-1
EndSplineSet
EndChar
StartChar: Iogonek
Encoding: 302 302 587
Width: 1229
Flags: W
LayerCount: 2
Back
Fore
SplineSet
193 1456 m 1,0,-1
 1035 1456 l 1,1,-1
 1035 1229 l 1,2,-1
 751 1229 l 1,3,-1
 751 226 l 1,4,-1
 1035 226 l 1,5,-1
 1035 0 l 1,6,-1
 777 0 l 1,7,8
 732 -18 732 -18 702 -38 c 128,-1,9
 672 -58 672 -58 654 -80 c 128,-1,10
 636 -102 636 -102 628.5 -126.5 c 128,-1,11
 621 -151 621 -151 621 -178 c 0,12,13
 621 -207 621 -207 636 -226.5 c 128,-1,14
 651 -246 651 -246 688 -246 c 0,15,16
 717 -246 717 -246 737 -239 c 128,-1,17
 757 -232 757 -232 771 -226 c 1,18,-1
 818 -380 l 1,19,20
 790 -395 790 -395 745.5 -409.5 c 128,-1,21
 701 -424 701 -424 632 -424 c 0,22,23
 586 -424 586 -424 545.5 -410.5 c 128,-1,24
 505 -397 505 -397 475 -371 c 128,-1,25
 445 -345 445 -345 427.5 -306.5 c 128,-1,26
 410 -268 410 -268 410 -217 c 0,27,28
 410 -160 410 -160 439.5 -104 c 128,-1,29
 469 -48 469 -48 527 0 c 1,30,-1
 193 0 l 1,31,-1
 193 226 l 1,32,-1
 470 226 l 1,33,-1
 470 1229 l 1,34,-1
 193 1229 l 1,35,-1
 193 1456 l 1,0,-1
EndSplineSet
Substitution2: "'smcp' Lowercase to Small Capitals lookup 0 subtable" Iogonek.smcp
EndChar
StartChar: iogonek
Encoding: 303 303 588
Width: 1229
Flags: W
LayerCount: 2
Back
Fore
SplineSet
215 1082 m 1,0,-1
 804 1082 l 1,1,-1
 804 226 l 1,2,-1
 1097 226 l 1,3,-1
 1097 0 l 1,4,-1
 764 0 l 1,5,6
 719 -18 719 -18 689 -38 c 128,-1,7
 659 -58 659 -58 641 -80 c 128,-1,8
 623 -102 623 -102 615.5 -126.5 c 128,-1,9
 608 -151 608 -151 608 -178 c 0,10,11
 608 -207 608 -207 623 -226.5 c 128,-1,12
 638 -246 638 -246 675 -246 c 0,13,14
 704 -246 704 -246 724 -239 c 128,-1,15
 744 -232 744 -232 758 -226 c 1,16,-1
 805 -380 l 1,17,18
 777 -395 777 -395 732.5 -409.5 c 128,-1,19
 688 -424 688 -424 619 -424 c 0,20,21
 573 -424 573 -424 532.5 -410.5 c 128,-1,22
 492 -397 492 -397 462 -371 c 128,-1,23
 432 -345 432 -345 414.5 -306.5 c 128,-1,24
 397 -268 397 -268 397 -217 c 0,25,26
 397 -160 397 -160 426.5 -104 c 128,-1,27
 456 -48 456 -48 514 0 c 1,28,-1
 215 0 l 1,29,-1
 215 226 l 1,30,-1
 523 226 l 1,31,-1
 523 855 l 1,32,-1
 215 855 l 1,33,-1
 215 1082 l 1,0,-1
503 1359 m 256,34,35
 503 1391 503 1391 514.5 1418.5 c 128,-1,36
 526 1446 526 1446 547 1465.5 c 128,-1,37
 568 1485 568 1485 597.5 1496 c 128,-1,38
 627 1507 627 1507 663 1507 c 0,39,40
 737 1507 737 1507 780.5 1465.5 c 128,-1,41
 824 1424 824 1424 824 1359 c 256,42,43
 824 1294 824 1294 780.5 1252.5 c 128,-1,44
 737 1211 737 1211 663 1211 c 0,45,46
 627 1211 627 1211 597.5 1222 c 128,-1,47
 568 1233 568 1233 547 1252.5 c 128,-1,48
 526 1272 526 1272 514.5 1299.5 c 128,-1,49
 503 1327 503 1327 503 1359 c 256,34,35
EndSplineSet
Substitution2: "'smcp' Lowercase to Small Capitals lookup 0 subtable" Iogonek.smcp
EndChar
StartChar: dotlessi
Encoding: 305 305 138
Width: 1229
Flags: W
LayerCount: 2
Back
Fore
SplineSet
199 1082 m 1,0,-1
 804 1082 l 1,1,-1
 804 226 l 1,2,-1
 1114 226 l 1,3,-1
 1114 0 l 1,4,-1
 199 0 l 1,5,-1
 199 226 l 1,6,-1
 523 226 l 1,7,-1
 523 855 l 1,8,-1
 199 855 l 1,9,-1
 199 1082 l 1,0,-1
EndSplineSet
EndChar
StartChar: kgreenlandic
Encoding: 312 312 141
Width: 1229
Flags: W
LayerCount: 2
Back
Fore
SplineSet
604 427 m 1,0,-1
 437 286 l 1,1,-1
 437 0 l 1,2,-1
 159 0 l 1,3,-1
 159 1082 l 1,4,-1
 437 1082 l 1,5,-1
 437 608 l 1,6,-1
 544 735 l 1,7,-1
 839 1082 l 1,8,-1
 1188 1082 l 1,9,-1
 802 634 l 1,10,-1
 1207 0 l 1,11,-1
 851 0 l 1,12,-1
 604 427 l 1,0,-1
EndSplineSet
EndChar
StartChar: Lslash
Encoding: 321 321 142
Width: 1229
Flags: W
LayerCount: 2
Back
Fore
SplineSet
461 886 m 1,0,-1
 693 954 l 1,1,-1
 693 759 l 1,2,-1
 461 691 l 1,3,-1
 461 227 l 1,4,-1
 1143 227 l 1,5,-1
 1143 0 l 1,6,-1
 179 0 l 1,7,-1
 179 609 l 1,8,-1
 51 572 l 1,9,-1
 51 767 l 1,10,-1
 179 804 l 1,11,-1
 179 1456 l 1,12,-1
 461 1456 l 1,13,-1
 461 886 l 1,0,-1
EndSplineSet
EndChar
StartChar: lslash
Encoding: 322 322 143
Width: 1229
Flags: W
LayerCount: 2
Back
Fore
SplineSet
818 1019 m 1,0,-1
 1099 1144 l 1,1,-1
 1099 949 l 1,2,-1
 818 824 l 1,3,-1
 818 226 l 1,4,-1
 1128 226 l 1,5,-1
 1128 0 l 1,6,-1
 213 0 l 1,7,-1
 213 226 l 1,8,-1
 537 226 l 1,9,-1
 537 700 l 1,10,-1
 225 562 l 1,11,-1
 225 757 l 1,12,-1
 537 895 l 1,13,-1
 537 1309 l 1,14,-1
 213 1309 l 1,15,-1
 213 1536 l 1,16,-1
 818 1536 l 1,17,-1
 818 1019 l 1,0,-1
EndSplineSet
EndChar
StartChar: Eng
Encoding: 330 330 144
Width: 1229
Flags: W
LayerCount: 2
Back
Fore
SplineSet
1095 1456 m 1,0,-1
 1095 -39 l 2,1,2
 1095 -135 1095 -135 1069 -209.5 c 128,-1,3
 1043 -284 1043 -284 994.5 -334.5 c 128,-1,4
 946 -385 946 -385 876.5 -411 c 128,-1,5
 807 -437 807 -437 719 -437 c 0,6,7
 681 -437 681 -437 649 -433.5 c 128,-1,8
 617 -430 617 -430 579 -420 c 1,9,-1
 593 -198 l 1,10,11
 615 -204 615 -204 640.5 -206.5 c 128,-1,12
 666 -209 666 -209 692 -209 c 0,13,14
 750 -209 750 -209 782 -165.5 c 128,-1,15
 814 -122 814 -122 814 -39 c 2,16,-1
 814 0 l 1,17,-1
 429 881 l 1,18,-1
 429 0 l 1,19,-1
 148 0 l 1,20,-1
 148 1456 l 1,21,-1
 429 1456 l 1,22,-1
 814 574 l 1,23,-1
 814 1456 l 1,24,-1
 1095 1456 l 1,0,-1
EndSplineSet
EndChar
StartChar: eng
Encoding: 331 331 145
Width: 1229
Flags: W
LayerCount: 2
Back
Fore
SplineSet
407 1082 m 1,0,-1
 420 930 l 1,1,2
 473 1011 473 1011 551 1056.5 c 128,-1,3
 629 1102 629 1102 729 1102 c 0,4,5
 808 1102 808 1102 872.5 1078 c 128,-1,6
 937 1054 937 1054 983 1001.5 c 128,-1,7
 1029 949 1029 949 1054.5 865.5 c 128,-1,8
 1080 782 1080 782 1080 663 c 2,9,-1
 1080 -40 l 2,10,11
 1080 -136 1080 -136 1054 -210.5 c 128,-1,12
 1028 -285 1028 -285 979.5 -335 c 128,-1,13
 931 -385 931 -385 861.5 -411 c 128,-1,14
 792 -437 792 -437 705 -437 c 0,15,16
 668 -437 668 -437 635.5 -433.5 c 128,-1,17
 603 -430 603 -430 566 -420 c 1,18,-1
 580 -196 l 1,19,20
 602 -202 602 -202 628 -205 c 128,-1,21
 654 -208 654 -208 680 -208 c 0,22,23
 737 -208 737 -208 768.5 -166 c 128,-1,24
 800 -124 800 -124 800 -40 c 2,25,-1
 800 662 l 2,26,27
 800 722 800 722 788.5 763 c 128,-1,28
 777 804 777 804 755.5 829 c 128,-1,29
 734 854 734 854 702 865 c 128,-1,30
 670 876 670 876 628 876 c 0,31,32
 559 876 559 876 509 851.5 c 128,-1,33
 459 827 459 827 427 784 c 1,34,-1
 427 0 l 1,35,-1
 149 0 l 1,36,-1
 149 1082 l 1,37,-1
 407 1082 l 1,0,-1
EndSplineSet
EndChar
StartChar: OE
Encoding: 338 338 146
Width: 1229
Flags: W
LayerCount: 2
Back
Fore
SplineSet
1190 0 m 1,0,-1
 769 0 l 1,1,2
 706 -8 706 -8 639 -14.5 c 128,-1,3
 572 -21 572 -21 501 -21 c 0,4,5
 408 -21 408 -21 329 10 c 128,-1,6
 250 41 250 41 192.5 105 c 128,-1,7
 135 169 135 169 103 266.5 c 128,-1,8
 71 364 71 364 71 496 c 2,9,-1
 71 960 l 2,10,11
 71 1092 71 1092 103 1189.5 c 128,-1,12
 135 1287 135 1287 192 1351 c 128,-1,13
 249 1415 249 1415 327.5 1446 c 128,-1,14
 406 1477 406 1477 499 1477 c 0,15,16
 570 1477 570 1477 638 1470.5 c 128,-1,17
 706 1464 706 1464 769 1456 c 1,18,-1
 1179 1456 l 1,19,-1
 1179 1239 l 1,20,-1
 832 1239 l 1,21,-1
 832 865 l 1,22,-1
 1128 865 l 1,23,-1
 1128 648 l 1,24,-1
 832 648 l 1,25,-1
 832 232 l 1,26,-1
 1190 232 l 1,27,-1
 1190 0 l 1,0,-1
501 211 m 0,28,29
 547 211 547 211 592 214 c 1,30,-1
 592 1256 l 1,31,32
 569 1258 569 1258 545.5 1259 c 128,-1,33
 522 1260 522 1260 499 1260 c 0,34,35
 455 1260 455 1260 420.5 1246.5 c 128,-1,36
 386 1233 386 1233 362 1199 c 128,-1,37
 338 1165 338 1165 325 1107.5 c 128,-1,38
 312 1050 312 1050 312 962 c 2,39,-1
 312 496 l 2,40,41
 312 412 312 412 325 356.5 c 128,-1,42
 338 301 338 301 362.5 269 c 128,-1,43
 387 237 387 237 422 224 c 128,-1,44
 457 211 457 211 501 211 c 0,28,29
EndSplineSet
EndChar
StartChar: oe
Encoding: 339 339 147
Width: 1229
Flags: W
LayerCount: 2
Back
Fore
SplineSet
38 641 m 2,0,1
 38 749 38 749 62 834.5 c 128,-1,2
 86 920 86 920 132.5 979.5 c 128,-1,3
 179 1039 179 1039 247 1070.5 c 128,-1,4
 315 1102 315 1102 402 1102 c 0,5,6
 473 1102 473 1102 530 1079.5 c 128,-1,7
 587 1057 587 1057 631 1015 c 1,8,9
 672 1058 672 1058 726 1080.5 c 128,-1,10
 780 1103 780 1103 847 1102 c 0,11,12
 927 1102 927 1102 990 1071 c 128,-1,13
 1053 1040 1053 1040 1096.5 984 c 128,-1,14
 1140 928 1140 928 1162.5 848.5 c 128,-1,15
 1185 769 1185 769 1185 672 c 2,16,-1
 1185 454 l 1,17,-1
 765 454 l 1,18,-1
 765 420 l 2,19,20
 765 315 765 315 805 259 c 128,-1,21
 845 203 845 203 933 203 c 0,22,23
 959 203 959 203 979 206 c 128,-1,24
 999 209 999 209 1016 214.5 c 128,-1,25
 1033 220 1033 220 1048.5 227.5 c 128,-1,26
 1064 235 1064 235 1081 244 c 1,27,-1
 1141 64 l 1,28,29
 1104 29 1104 29 1045 4.5 c 128,-1,30
 986 -20 986 -20 906 -20 c 0,31,32
 742 -20 742 -20 641 75 c 1,33,34
 597 28 597 28 538 4 c 128,-1,35
 479 -20 479 -20 404 -20 c 0,36,37
 316 -20 316 -20 248 11 c 128,-1,38
 180 42 180 42 133.5 101 c 128,-1,39
 87 160 87 160 62.5 245.5 c 128,-1,40
 38 331 38 331 38 440 c 2,41,-1
 38 641 l 2,0,1
299 440 m 2,42,43
 299 324 299 324 320.5 263.5 c 128,-1,44
 342 203 342 203 404 203 c 0,45,46
 465 203 465 203 486.5 263 c 128,-1,47
 508 323 508 323 508 440 c 2,48,-1
 508 641 l 2,49,50
 508 697 508 697 503 741 c 128,-1,51
 498 785 498 785 486 815 c 128,-1,52
 474 845 474 845 453.5 861 c 128,-1,53
 433 877 433 877 402 877 c 0,54,55
 372 877 372 877 352.5 861 c 128,-1,56
 333 845 333 845 321 815 c 128,-1,57
 309 785 309 785 304 741 c 128,-1,58
 299 697 299 697 299 641 c 2,59,-1
 299 440 l 2,42,43
847 877 m 0,60,61
 818 877 818 877 802 861.5 c 128,-1,62
 786 846 786 846 777.5 817 c 128,-1,63
 769 788 769 788 767 745 c 128,-1,64
 765 702 765 702 765 647 c 1,65,-1
 928 647 l 1,66,-1
 928 732 l 2,67,68
 928 799 928 799 909.5 838 c 128,-1,69
 891 877 891 877 847 877 c 0,60,61
EndSplineSet
EndChar
StartChar: Tbar
Encoding: 358 358 488
Width: 1229
Flags: W
LayerCount: 2
Back
Fore
SplineSet
933 757 m 1,0,-1
 752 757 l 1,1,-1
 752 0 l 1,2,-1
 470 0 l 1,3,-1
 470 757 l 1,4,-1
 241 757 l 1,5,-1
 241 937 l 1,6,-1
 470 937 l 1,7,-1
 470 1227 l 1,8,-1
 27 1227 l 1,9,-1
 27 1456 l 1,10,-1
 1201 1456 l 1,11,-1
 1201 1227 l 1,12,-1
 752 1227 l 1,13,-1
 752 937 l 1,14,-1
 933 937 l 1,15,-1
 933 757 l 1,0,-1
EndSplineSet
Substitution2: "'smcp' Lowercase to Small Capitals lookup 0 subtable" Tbar.smcp
EndChar
StartChar: tbar
Encoding: 359 359 489
Width: 1229
Flags: W
LayerCount: 2
Back
Fore
SplineSet
651 1347 m 1,0,-1
 651 1082 l 1,1,-1
 1055 1082 l 1,2,-1
 1055 877 l 1,3,-1
 651 877 l 1,4,-1
 651 719 l 1,5,-1
 870 719 l 1,6,-1
 870 539 l 1,7,-1
 651 539 l 1,8,-1
 651 412 l 2,9,10
 651 353 651 353 664.5 313.5 c 128,-1,11
 678 274 678 274 703 250.5 c 128,-1,12
 728 227 728 227 763.5 217 c 128,-1,13
 799 207 799 207 843 207 c 0,14,15
 875 207 875 207 908.5 210 c 128,-1,16
 942 213 942 213 972.5 217.5 c 128,-1,17
 1003 222 1003 222 1029.5 227 c 128,-1,18
 1056 232 1056 232 1075 237 c 1,19,-1
 1102 46 l 1,20,21
 1073 29 1073 29 1034 16.5 c 128,-1,22
 995 4 995 4 951 -4 c 128,-1,23
 907 -12 907 -12 859.5 -16.5 c 128,-1,24
 812 -21 812 -21 766 -21 c 0,25,26
 677 -21 677 -21 604.5 2.5 c 128,-1,27
 532 26 532 26 480.5 75.5 c 128,-1,28
 429 125 429 125 401 201.5 c 128,-1,29
 373 278 373 278 373 385 c 2,30,-1
 373 539 l 1,31,-1
 178 539 l 1,32,-1
 178 719 l 1,33,-1
 373 719 l 1,34,-1
 373 877 l 1,35,-1
 126 877 l 1,36,-1
 126 1082 l 1,37,-1
 373 1082 l 1,38,-1
 373 1347 l 1,39,-1
 651 1347 l 1,0,-1
EndSplineSet
Substitution2: "'smcp' Lowercase to Small Capitals lookup 0 subtable" Tbar.smcp
EndChar
StartChar: Uogonek
Encoding: 370 370 648
Width: 1229
Flags: W
LayerCount: 2
Back
Fore
SplineSet
1101 1456 m 1,0,-1
 1102 491 l 2,1,2
 1101 310 1101 310 1030 190 c 128,-1,3
 959 70 959 70 825 17 c 1,4,5
 787 -11 787 -11 772 -43 c 128,-1,6
 757 -75 757 -75 757 -113 c 0,7,8
 757 -142 757 -142 772 -161.5 c 128,-1,9
 787 -181 787 -181 824 -181 c 0,10,11
 853 -181 853 -181 873 -174 c 128,-1,12
 893 -167 893 -167 907 -161 c 1,13,-1
 954 -315 l 1,14,15
 926 -330 926 -330 881.5 -344.5 c 128,-1,16
 837 -359 837 -359 768 -359 c 0,17,18
 722 -359 722 -359 681.5 -345.5 c 128,-1,19
 641 -332 641 -332 611 -306 c 128,-1,20
 581 -280 581 -280 563.5 -241.5 c 128,-1,21
 546 -203 546 -203 546 -152 c 0,22,23
 546 -84 546 -84 587 -19 c 1,24,25
 482 -16 482 -16 397 19.5 c 128,-1,26
 312 55 312 55 252 120 c 128,-1,27
 192 185 192 185 159 278.5 c 128,-1,28
 126 372 126 372 126 491 c 2,29,-1
 127 1456 l 1,30,-1
 408 1456 l 1,31,-1
 409 491 l 2,32,33
 410 350 410 350 460.5 278 c 128,-1,34
 511 206 511 206 608 206 c 0,35,36
 711 206 711 206 765.5 278 c 128,-1,37
 820 350 820 350 821 491 c 2,38,-1
 822 1456 l 1,39,-1
 1101 1456 l 1,0,-1
EndSplineSet
Substitution2: "'smcp' Lowercase to Small Capitals lookup 0 subtable" Uogonek.smcp
EndChar
StartChar: uogonek
Encoding: 371 371 649
Width: 1229
Flags: W
LayerCount: 2
Back
Fore
SplineSet
1080 0 m 1,0,1
 1035 -18 1035 -18 1005 -38 c 128,-1,2
 975 -58 975 -58 957 -80 c 128,-1,3
 939 -102 939 -102 931.5 -126.5 c 128,-1,4
 924 -151 924 -151 924 -178 c 0,5,6
 924 -207 924 -207 939 -226.5 c 128,-1,7
 954 -246 954 -246 991 -246 c 0,8,9
 1020 -246 1020 -246 1040 -239 c 128,-1,10
 1060 -232 1060 -232 1074 -226 c 1,11,-1
 1121 -380 l 1,12,13
 1093 -395 1093 -395 1048.5 -409.5 c 128,-1,14
 1004 -424 1004 -424 935 -424 c 0,15,16
 889 -424 889 -424 848.5 -410.5 c 128,-1,17
 808 -397 808 -397 778 -371 c 128,-1,18
 748 -345 748 -345 730.5 -306.5 c 128,-1,19
 713 -268 713 -268 713 -217 c 0,20,21
 713 -157 713 -157 746.5 -96.5 c 128,-1,22
 780 -36 780 -36 846 12 c 1,23,-1
 831 152 l 1,24,25
 776 71 776 71 698.5 25 c 128,-1,26
 621 -21 621 -21 529 -21 c 0,27,28
 445 -21 445 -21 375 5 c 128,-1,29
 305 31 305 31 255 87.5 c 128,-1,30
 205 144 205 144 177.5 231.5 c 128,-1,31
 150 319 150 319 150 442 c 2,32,-1
 150 1082 l 1,33,-1
 428 1082 l 1,34,-1
 428 440 l 2,35,36
 428 374 428 374 437.5 329 c 128,-1,37
 447 284 447 284 468 256.5 c 128,-1,38
 489 229 489 229 523 217 c 128,-1,39
 557 205 557 205 606 205 c 0,40,41
 689 205 689 205 741 236.5 c 128,-1,42
 793 268 793 268 820 323 c 1,43,-1
 820 1082 l 1,44,-1
 1099 1082 l 1,45,-1
 1099 0 l 1,46,-1
 1080 0 l 1,0,1
EndSplineSet
Substitution2: "'smcp' Lowercase to Small Capitals lookup 0 subtable" Uogonek.smcp
EndChar
StartChar: longs
Encoding: 383 383 148
Width: 1229
Flags: W
LayerCount: 2
Back
Fore
SplineSet
412 0 m 1,0,-1
 412 1101 l 2,1,2
 412 1218 412 1218 446 1307.5 c 128,-1,3
 480 1397 480 1397 543.5 1457.5 c 128,-1,4
 607 1518 607 1518 698 1549.5 c 128,-1,5
 789 1581 789 1581 903 1581 c 0,6,7
 944 1581 944 1581 982.5 1575 c 128,-1,8
 1021 1569 1021 1569 1061 1560 c 1,9,-1
 1037 1345 l 1,10,11
 1016 1350 1016 1350 994.5 1353 c 128,-1,12
 973 1356 973 1356 941 1356 c 0,13,14
 818 1356 818 1356 753.5 1288 c 128,-1,15
 689 1220 689 1220 689 1101 c 2,16,-1
 689 0 l 1,17,-1
 412 0 l 1,0,-1
EndSplineSet
EndChar
StartChar: florin
Encoding: 402 402 149
Width: 1229
Flags: W
LayerCount: 2
Back
Fore
SplineSet
945 877 m 1,0,-1
 739 877 l 1,1,-1
 739 -13 l 2,2,3
 739 -116 739 -116 711.5 -195 c 128,-1,4
 684 -274 684 -274 632.5 -328 c 128,-1,5
 581 -382 581 -382 506.5 -409.5 c 128,-1,6
 432 -437 432 -437 338 -437 c 0,7,8
 290 -437 290 -437 243 -429 c 128,-1,9
 196 -421 196 -421 148 -400 c 1,10,-1
 163 -179 l 1,11,12
 173 -187 173 -187 192.5 -193 c 128,-1,13
 212 -199 212 -199 233 -203 c 128,-1,14
 254 -207 254 -207 274 -209.5 c 128,-1,15
 294 -212 294 -212 306 -212 c 0,16,17
 388 -212 388 -212 424 -160.5 c 128,-1,18
 460 -109 460 -109 460 -13 c 2,19,-1
 460 877 l 1,20,-1
 299 877 l 1,21,-1
 299 1082 l 1,22,-1
 460 1082 l 1,23,-1
 460 1161 l 2,24,25
 460 1263 460 1263 492.5 1341.5 c 128,-1,26
 525 1420 525 1420 586 1473 c 128,-1,27
 647 1526 647 1526 734.5 1553.5 c 128,-1,28
 822 1581 822 1581 933 1581 c 0,29,30
 984 1581 984 1581 1031.5 1569 c 128,-1,31
 1079 1557 1079 1557 1130 1540 c 1,32,-1
 1106 1324 l 1,33,34
 1078 1338 1078 1338 1044.5 1346 c 128,-1,35
 1011 1354 1011 1354 967 1354 c 0,36,37
 852 1354 852 1354 795.5 1304.5 c 128,-1,38
 739 1255 739 1255 739 1161 c 2,39,-1
 739 1082 l 1,40,-1
 945 1082 l 1,41,-1
 945 877 l 1,0,-1
EndSplineSet
EndChar
StartChar: Ohorn
Encoding: 416 416 150
Width: 1229
Flags: W
LayerCount: 2
Back
Fore
SplineSet
1160 621 m 2,0,1
 1160 481 1160 481 1123 363 c 128,-1,2
 1086 245 1086 245 1016 160 c 128,-1,3
 946 75 946 75 845.5 27.5 c 128,-1,4
 745 -20 745 -20 619 -20 c 256,5,6
 493 -20 493 -20 395 27.5 c 128,-1,7
 297 75 297 75 230 160.5 c 128,-1,8
 163 246 163 246 128 363.5 c 128,-1,9
 93 481 93 481 93 621 c 2,10,-1
 93 833 l 2,11,12
 93 973 93 973 128 1091 c 128,-1,13
 163 1209 163 1209 230 1294.5 c 128,-1,14
 297 1380 297 1380 394.5 1428 c 128,-1,15
 492 1476 492 1476 618 1476 c 0,16,17
 740 1476 740 1476 837 1432 c 128,-1,18
 934 1388 934 1388 1004 1308 c 1,19,20
 1030 1335 1030 1335 1042 1384.5 c 128,-1,21
 1054 1434 1054 1434 1054 1503 c 1,22,-1
 1248 1503 l 1,23,24
 1248 1378 1248 1378 1209 1292.5 c 128,-1,25
 1170 1207 1170 1207 1095 1164 c 1,26,27
 1160 1020 1160 1020 1160 833 c 2,28,-1
 1160 621 l 2,0,1
875 835 m 2,29,30
 875 924 875 924 860.5 999 c 128,-1,31
 846 1074 846 1074 815 1128 c 128,-1,32
 784 1182 784 1182 735.5 1212.5 c 128,-1,33
 687 1243 687 1243 618 1243 c 0,34,35
 550 1243 550 1243 504 1212.5 c 128,-1,36
 458 1182 458 1182 430 1128 c 128,-1,37
 402 1074 402 1074 390 999 c 128,-1,38
 378 924 378 924 378 835 c 2,39,-1
 378 621 l 2,40,41
 378 533 378 533 390 458 c 128,-1,42
 402 383 402 383 430 328 c 128,-1,43
 458 273 458 273 504 242 c 128,-1,44
 550 211 550 211 619 211 c 0,45,46
 687 211 687 211 735.5 242 c 128,-1,47
 784 273 784 273 814.5 327.5 c 128,-1,48
 845 382 845 382 860 457 c 128,-1,49
 875 532 875 532 875 621 c 2,50,-1
 875 835 l 2,29,30
EndSplineSet
EndChar
StartChar: ohorn
Encoding: 417 417 151
Width: 1229
Flags: W
LayerCount: 2
Back
Fore
SplineSet
95 551 m 2,0,1
 95 669 95 669 129 769.5 c 128,-1,2
 163 870 163 870 228.5 944 c 128,-1,3
 294 1018 294 1018 388.5 1060 c 128,-1,4
 483 1102 483 1102 605 1102 c 0,5,6
 708 1102 708 1102 791 1072.5 c 128,-1,7
 874 1043 874 1043 937 989 c 1,8,9
 997 1047 997 1047 997 1179 c 1,10,-1
 1190 1179 l 1,11,12
 1190 1066 1190 1066 1151 986 c 128,-1,13
 1112 906 1112 906 1041 861 c 1,14,15
 1078 795 1078 795 1097 717 c 128,-1,16
 1116 639 1116 639 1116 551 c 2,17,-1
 1116 530 l 2,18,19
 1116 411 1116 411 1082 310.5 c 128,-1,20
 1048 210 1048 210 983 136 c 128,-1,21
 918 62 918 62 823 20.5 c 128,-1,22
 728 -21 728 -21 607 -21 c 0,23,24
 485 -21 485 -21 389.5 20.5 c 128,-1,25
 294 62 294 62 228.5 136 c 128,-1,26
 163 210 163 210 129 310.5 c 128,-1,27
 95 411 95 411 95 530 c 2,28,-1
 95 551 l 2,0,1
373 530 m 2,29,30
 373 462 373 462 386 402.5 c 128,-1,31
 399 343 399 343 427 298.5 c 128,-1,32
 455 254 455 254 499.5 228 c 128,-1,33
 544 202 544 202 607 202 c 0,34,35
 668 202 668 202 712 228 c 128,-1,36
 756 254 756 254 783.5 298.5 c 128,-1,37
 811 343 811 343 824 402.5 c 128,-1,38
 837 462 837 462 837 530 c 2,39,-1
 837 551 l 2,40,41
 837 617 837 617 824 676 c 128,-1,42
 811 735 811 735 783.5 780 c 128,-1,43
 756 825 756 825 712 851 c 128,-1,44
 668 877 668 877 605 877 c 0,45,46
 543 877 543 877 499 851 c 128,-1,47
 455 825 455 825 427 780 c 128,-1,48
 399 735 399 735 386 676 c 128,-1,49
 373 617 373 617 373 551 c 2,50,-1
 373 530 l 2,29,30
EndSplineSet
EndChar
StartChar: Uhorn
Encoding: 431 431 152
Width: 1229
Flags: W
LayerCount: 2
Back
Fore
SplineSet
1108 1456 m 1,0,-1
 1108 1260 l 1,1,2
 1160 1263 1160 1263 1191 1280 c 128,-1,3
 1222 1297 1222 1297 1238 1327.5 c 128,-1,4
 1254 1358 1254 1358 1258.5 1403.5 c 128,-1,5
 1263 1449 1263 1449 1263 1509 c 1,6,-1
 1463 1509 l 1,7,8
 1463 1410 1463 1410 1443.5 1335.5 c 128,-1,9
 1424 1261 1424 1261 1381.5 1210.5 c 128,-1,10
 1339 1160 1339 1160 1271.5 1133 c 128,-1,11
 1204 1106 1204 1106 1108 1103 c 1,12,-1
 1109 491 l 2,13,14
 1109 369 1109 369 1075.5 274 c 128,-1,15
 1042 179 1042 179 978.5 113.5 c 128,-1,16
 915 48 915 48 823.5 14 c 128,-1,17
 732 -20 732 -20 615 -20 c 0,18,19
 505 -20 505 -20 416.5 14 c 128,-1,20
 328 48 328 48 265 113 c 128,-1,21
 202 178 202 178 167.5 273.5 c 128,-1,22
 133 369 133 369 133 491 c 2,23,-1
 134 1456 l 1,24,-1
 415 1456 l 1,25,-1
 416 491 l 2,26,27
 417 350 417 350 467.5 278 c 128,-1,28
 518 206 518 206 615 206 c 0,29,30
 718 206 718 206 772.5 278 c 128,-1,31
 827 350 827 350 828 491 c 2,32,-1
 829 1456 l 1,33,-1
 1108 1456 l 1,0,-1
EndSplineSet
EndChar
StartChar: uhorn
Encoding: 432 432 153
Width: 1229
Flags: W
LayerCount: 2
Back
Fore
SplineSet
1375 1178 m 1,0,1
 1375 994 1375 994 1299 894 c 128,-1,2
 1223 794 1223 794 1067 768 c 1,3,-1
 1067 0 l 1,4,-1
 815 0 l 1,5,-1
 799 152 l 1,6,7
 744 71 744 71 666.5 25 c 128,-1,8
 589 -21 589 -21 497 -21 c 0,9,10
 413 -21 413 -21 343 5 c 128,-1,11
 273 31 273 31 223 87.5 c 128,-1,12
 173 144 173 144 145.5 231.5 c 128,-1,13
 118 319 118 319 118 442 c 2,14,-1
 118 1082 l 1,15,-1
 396 1082 l 1,16,-1
 396 440 l 2,17,18
 396 374 396 374 405.5 329 c 128,-1,19
 415 284 415 284 436 256.5 c 128,-1,20
 457 229 457 229 491 217 c 128,-1,21
 525 205 525 205 574 205 c 0,22,23
 657 205 657 205 709 236.5 c 128,-1,24
 761 268 761 268 788 323 c 1,25,-1
 788 1082 l 1,26,-1
 1067 1082 l 1,27,-1
 1067 937 l 1,28,29
 1127 963 1127 963 1152 1022 c 128,-1,30
 1177 1081 1177 1081 1177 1178 c 1,31,-1
 1375 1178 l 1,0,1
EndSplineSet
EndChar
StartChar: uni0237
Encoding: 567 567 154
Width: 1229
Flags: W
LayerCount: 2
Back
Fore
SplineSet
310 1082 m 1,0,-1
 864 1082 l 1,1,-1
 864 -25 l 2,2,3
 864 -133 864 -133 833 -210.5 c 128,-1,4
 802 -288 802 -288 743.5 -338.5 c 128,-1,5
 685 -389 685 -389 600 -413 c 128,-1,6
 515 -437 515 -437 406 -437 c 0,7,8
 361 -437 361 -437 315 -433.5 c 128,-1,9
 269 -430 269 -430 226 -420 c 1,10,-1
 240 -194 l 1,11,12
 252 -197 252 -197 273.5 -199.5 c 128,-1,13
 295 -202 295 -202 318 -203.5 c 128,-1,14
 341 -205 341 -205 361 -205.5 c 128,-1,15
 381 -206 381 -206 392 -206 c 0,16,17
 432 -206 432 -206 467 -197 c 128,-1,18
 502 -188 502 -188 528 -167 c 128,-1,19
 554 -146 554 -146 569 -111.5 c 128,-1,20
 584 -77 584 -77 584 -25 c 2,21,-1
 584 855 l 1,22,-1
 310 855 l 1,23,-1
 310 1082 l 1,0,-1
EndSplineSet
EndChar
StartChar: schwa
Encoding: 601 601 155
Width: 1229
Flags: W
LayerCount: 2
Back
Fore
SplineSet
608 1103 m 0,0,1
 731 1103 731 1103 829.5 1062 c 128,-1,2
 928 1021 928 1021 996.5 949.5 c 128,-1,3
 1065 878 1065 878 1102 781 c 128,-1,4
 1139 684 1139 684 1139 571 c 2,5,-1
 1139 531 l 2,6,7
 1139 412 1139 412 1103 311 c 128,-1,8
 1067 210 1067 210 1001 136.5 c 128,-1,9
 935 63 935 63 842 21.5 c 128,-1,10
 749 -20 749 -20 635 -19 c 0,11,12
 518 -19 518 -19 428.5 16 c 128,-1,13
 339 51 339 51 278.5 114.5 c 128,-1,14
 218 178 218 178 187 268 c 128,-1,15
 156 358 156 358 156 469 c 2,16,-1
 156 627 l 1,17,-1
 857 627 l 1,18,19
 850 679 850 679 830 725 c 128,-1,20
 810 771 810 771 775.5 805.5 c 128,-1,21
 741 840 741 840 692.5 859.5 c 128,-1,22
 644 879 644 879 581 879 c 0,23,24
 524 879 524 879 478.5 872.5 c 128,-1,25
 433 866 433 866 395 855 c 128,-1,26
 357 844 357 844 324 829 c 128,-1,27
 291 814 291 814 260 797 c 1,28,-1
 181 977 l 1,29,30
 211 1001 211 1001 253 1023.5 c 128,-1,31
 295 1046 295 1046 349 1063.5 c 128,-1,32
 403 1081 403 1081 468 1092 c 128,-1,33
 533 1103 533 1103 608 1103 c 0,0,1
635 204 m 0,34,35
 681 204 681 204 718 221.5 c 128,-1,36
 755 239 755 239 782 269.5 c 128,-1,37
 809 300 809 300 826.5 342 c 128,-1,38
 844 384 844 384 853 434 c 1,39,-1
 429 434 l 1,40,-1
 429 409 l 2,41,42
 429 364 429 364 441 326.5 c 128,-1,43
 453 289 453 289 478 262 c 128,-1,44
 503 235 503 235 542 219.5 c 128,-1,45
 581 204 581 204 635 204 c 0,34,35
EndSplineSet
EndChar
StartChar: circumflex
Encoding: 710 710 156
Width: 1229
Flags: W
LayerCount: 2
Back
Fore
SplineSet
874 1273 m 1,0,-1
 874 1245 l 1,1,-1
 653 1245 l 1,2,-1
 499 1372 l 1,3,-1
 346 1245 l 1,4,-1
 129 1245 l 1,5,-1
 129 1275 l 1,6,-1
 419 1516 l 1,7,-1
 580 1516 l 1,8,-1
 874 1273 l 1,0,-1
EndSplineSet
EndChar
StartChar: caron
Encoding: 711 711 157
Width: 1229
Flags: W
LayerCount: 2
Back
Fore
SplineSet
632 1391 m 1,0,-1
 779 1517 l 1,1,-1
 1016 1517 l 1,2,-1
 1016 1498 l 1,3,-1
 720 1245 l 1,4,-1
 545 1245 l 1,5,-1
 249 1497 l 1,6,-1
 249 1517 l 1,7,-1
 486 1517 l 1,8,-1
 632 1391 l 1,0,-1
EndSplineSet
EndChar
StartChar: breve
Encoding: 728 728 158
Width: 1229
Flags: W
LayerCount: 2
Back
Fore
SplineSet
974 1442 m 1,0,1
 974 1377 974 1377 950.5 1323 c 128,-1,2
 927 1269 927 1269 882.5 1230.5 c 128,-1,3
 838 1192 838 1192 775 1170.5 c 128,-1,4
 712 1149 712 1149 634 1149 c 0,5,6
 555 1149 555 1149 492 1170.5 c 128,-1,7
 429 1192 429 1192 384.5 1230.5 c 128,-1,8
 340 1269 340 1269 316.5 1323 c 128,-1,9
 293 1377 293 1377 293 1442 c 1,10,-1
 493 1442 l 1,11,12
 493 1416 493 1416 500.5 1391.5 c 128,-1,13
 508 1367 508 1367 525 1348.5 c 128,-1,14
 542 1330 542 1330 568.5 1319 c 128,-1,15
 595 1308 595 1308 634 1308 c 0,16,17
 672 1308 672 1308 698.5 1319 c 128,-1,18
 725 1330 725 1330 741.5 1348.5 c 128,-1,19
 758 1367 758 1367 765.5 1391.5 c 128,-1,20
 773 1416 773 1416 773 1442 c 1,21,-1
 974 1442 l 1,0,1
EndSplineSet
EndChar
StartChar: dotaccent
Encoding: 729 729 159
Width: 1229
Flags: W
LayerCount: 2
Back
Fore
SplineSet
472 1363 m 0,0,1
 472 1424 472 1424 512 1463.5 c 128,-1,2
 552 1503 552 1503 622 1503 c 256,3,4
 692 1503 692 1503 732 1463.5 c 128,-1,5
 772 1424 772 1424 772 1363 c 0,6,7
 772 1303 772 1303 732 1263.5 c 128,-1,8
 692 1224 692 1224 622 1224 c 256,9,10
 552 1224 552 1224 512 1263.5 c 128,-1,11
 472 1303 472 1303 472 1363 c 0,0,1
EndSplineSet
EndChar
StartChar: ring
Encoding: 730 730 160
Width: 1229
Flags: W
LayerCount: 2
Back
Fore
SplineSet
403 1231 m 256,0,1
 403 1273 403 1273 419.5 1309 c 128,-1,2
 436 1345 436 1345 465 1371 c 128,-1,3
 494 1397 494 1397 533 1412 c 128,-1,4
 572 1427 572 1427 616 1427 c 256,5,6
 660 1427 660 1427 698 1412 c 128,-1,7
 736 1397 736 1397 764 1371 c 128,-1,8
 792 1345 792 1345 808 1309 c 128,-1,9
 824 1273 824 1273 824 1231 c 256,10,11
 824 1189 824 1189 808 1153.5 c 128,-1,12
 792 1118 792 1118 764 1092.5 c 128,-1,13
 736 1067 736 1067 698 1053 c 128,-1,14
 660 1039 660 1039 616 1039 c 256,15,16
 572 1039 572 1039 533 1053 c 128,-1,17
 494 1067 494 1067 465 1092.5 c 128,-1,18
 436 1118 436 1118 419.5 1153.5 c 128,-1,19
 403 1189 403 1189 403 1231 c 256,0,1
517 1231 m 0,20,21
 517 1187 517 1187 545.5 1160 c 128,-1,22
 574 1133 574 1133 616 1133 c 256,23,24
 658 1133 658 1133 684.5 1160 c 128,-1,25
 711 1187 711 1187 711 1231 c 0,26,27
 711 1276 711 1276 684.5 1303.5 c 128,-1,28
 658 1331 658 1331 616 1331 c 256,29,30
 574 1331 574 1331 545.5 1303.5 c 128,-1,31
 517 1276 517 1276 517 1231 c 0,20,21
EndSplineSet
EndChar
StartChar: ogonek
Encoding: 731 731 161
Width: 1229
Flags: W
LayerCount: 2
Back
Fore
SplineSet
748 0 m 1,0,1
 703 -18 703 -18 673 -38 c 128,-1,2
 643 -58 643 -58 625 -80 c 128,-1,3
 607 -102 607 -102 599.5 -126.5 c 128,-1,4
 592 -151 592 -151 592 -178 c 0,5,6
 592 -207 592 -207 607 -226.5 c 128,-1,7
 622 -246 622 -246 659 -246 c 0,8,9
 688 -246 688 -246 708 -239 c 128,-1,10
 728 -232 728 -232 742 -226 c 1,11,-1
 789 -380 l 1,12,13
 761 -395 761 -395 716.5 -409.5 c 128,-1,14
 672 -424 672 -424 603 -424 c 0,15,16
 557 -424 557 -424 516.5 -410.5 c 128,-1,17
 476 -397 476 -397 446 -371 c 128,-1,18
 416 -345 416 -345 398.5 -306.5 c 128,-1,19
 381 -268 381 -268 381 -217 c 0,20,21
 381 -140 381 -140 435 -65 c 128,-1,22
 489 10 489 10 595 60 c 1,23,-1
 748 0 l 1,0,1
EndSplineSet
EndChar
StartChar: tilde
Encoding: 732 732 162
Width: 1229
Flags: W
LayerCount: 2
Back
Fore
SplineSet
856 1511 m 1,0,1
 856 1466 856 1466 840.5 1422 c 128,-1,2
 825 1378 825 1378 796.5 1343.5 c 128,-1,3
 768 1309 768 1309 728.5 1288 c 128,-1,4
 689 1267 689 1267 640 1267 c 0,5,6
 592 1267 592 1267 556.5 1280.5 c 128,-1,7
 521 1294 521 1294 489.5 1310.5 c 128,-1,8
 458 1327 458 1327 427 1340.5 c 128,-1,9
 396 1354 396 1354 357 1354 c 0,10,11
 321 1354 321 1354 294.5 1328 c 128,-1,12
 268 1302 268 1302 268 1256 c 1,13,-1
 128 1286 l 1,14,15
 128 1330 128 1330 143.5 1374 c 128,-1,16
 159 1418 159 1418 187 1453 c 128,-1,17
 215 1488 215 1488 254.5 1510 c 128,-1,18
 294 1532 294 1532 343 1532 c 0,19,20
 383 1532 383 1532 418 1518.5 c 128,-1,21
 453 1505 453 1505 486.5 1488.5 c 128,-1,22
 520 1472 520 1472 554 1458.5 c 128,-1,23
 588 1445 588 1445 626 1445 c 0,24,25
 662 1445 662 1445 689 1470.5 c 128,-1,26
 716 1496 716 1496 716 1542 c 1,27,-1
 856 1511 l 1,0,1
EndSplineSet
EndChar
StartChar: uni02F3
Encoding: 755 755 164
Width: 1229
Flags: W
LayerCount: 2
Back
Fore
SplineSet
441 -222 m 0,0,1
 441 -189 441 -189 454 -161 c 128,-1,2
 467 -133 467 -133 489.5 -112.5 c 128,-1,3
 512 -92 512 -92 542.5 -80.5 c 128,-1,4
 573 -69 573 -69 608 -69 c 0,5,6
 642 -69 642 -69 672 -80.5 c 128,-1,7
 702 -92 702 -92 724 -112.5 c 128,-1,8
 746 -133 746 -133 758.5 -161 c 128,-1,9
 771 -189 771 -189 771 -222 c 256,10,11
 771 -255 771 -255 758.5 -282 c 128,-1,12
 746 -309 746 -309 724 -328.5 c 128,-1,13
 702 -348 702 -348 672 -359 c 128,-1,14
 642 -370 642 -370 608 -370 c 0,15,16
 573 -370 573 -370 542.5 -359 c 128,-1,17
 512 -348 512 -348 489.5 -328.5 c 128,-1,18
 467 -309 467 -309 454 -281.5 c 128,-1,19
 441 -254 441 -254 441 -222 c 0,0,1
551 -222 m 0,20,21
 551 -246 551 -246 567 -261.5 c 128,-1,22
 583 -277 583 -277 608 -277 c 0,23,24
 631 -277 631 -277 646 -261.5 c 128,-1,25
 661 -246 661 -246 661 -222 c 0,26,27
 661 -196 661 -196 646 -179.5 c 128,-1,28
 631 -163 631 -163 608 -163 c 0,29,30
 583 -163 583 -163 567 -179.5 c 128,-1,31
 551 -196 551 -196 551 -222 c 0,20,21
EndSplineSet
EndChar
StartChar: gravecomb
Encoding: 768 768 165
Width: 1229
Flags: W
LayerCount: 2
Back
Fore
SplineSet
-483 1210 m 1,0,-1
 -653 1210 l 1,1,-1
 -872 1560 l 1,2,-1
 -647 1560 l 1,3,-1
 -483 1210 l 1,0,-1
EndSplineSet
EndChar
StartChar: acutecomb
Encoding: 769 769 166
Width: 1229
Flags: W
LayerCount: 2
Back
Fore
SplineSet
-510 1561 m 1,0,-1
 -286 1561 l 1,1,-1
 -490 1209 l 1,2,-1
 -656 1209 l 1,3,-1
 -510 1561 l 1,0,-1
EndSplineSet
EndChar
StartChar: hook
Encoding: 777 777 168
Width: 1229
Flags: W
LayerCount: 2
Back
Fore
SplineSet
-710 1263 m 1,0,-1
 -723 1400 l 1,1,2
 -650 1405 -650 1405 -617.5 1419.5 c 128,-1,3
 -585 1434 -585 1434 -585 1466 c 0,4,5
 -585 1486 -585 1486 -596 1499.5 c 128,-1,6
 -607 1513 -607 1513 -626 1521 c 128,-1,7
 -645 1529 -645 1529 -672 1532.5 c 128,-1,8
 -699 1536 -699 1536 -730 1536 c 1,9,-1
 -723 1669 l 1,10,11
 -539 1669 -539 1669 -446 1616.5 c 128,-1,12
 -353 1564 -353 1564 -353 1474 c 0,13,14
 -353 1439 -353 1439 -366 1413.5 c 128,-1,15
 -379 1388 -379 1388 -400 1370.5 c 128,-1,16
 -421 1353 -421 1353 -448 1343 c 128,-1,17
 -475 1333 -475 1333 -503 1329 c 1,18,-1
 -503 1263 l 1,19,-1
 -710 1263 l 1,0,-1
EndSplineSet
EndChar
StartChar: uni030F
Encoding: 783 783 169
Width: 1229
Flags: W
LayerCount: 2
Back
Fore
SplineSet
-508 1252 m 1,0,-1
 -740 1252 l 1,1,-1
 -1033 1518 l 1,2,-1
 -753 1518 l 1,3,-1
 -508 1252 l 1,0,-1
-178 1252 m 1,4,-1
 -402 1252 l 1,5,-1
 -647 1518 l 1,6,-1
 -374 1518 l 1,7,-1
 -178 1252 l 1,4,-1
EndSplineSet
EndChar
StartChar: dotbelow
Encoding: 803 803 170
Width: 1229
Flags: W
LayerCount: 2
Back
Fore
SplineSet
-755 -224 m 256,0,1
 -755 -194 -755 -194 -744 -168 c 128,-1,2
 -733 -142 -733 -142 -712 -123.5 c 128,-1,3
 -691 -105 -691 -105 -661 -94 c 128,-1,4
 -631 -83 -631 -83 -593 -83 c 0,5,6
 -556 -83 -556 -83 -526 -94 c 128,-1,7
 -496 -105 -496 -105 -475 -123.5 c 128,-1,8
 -454 -142 -454 -142 -442.5 -168 c 128,-1,9
 -431 -194 -431 -194 -431 -224 c 256,10,11
 -431 -254 -431 -254 -442.5 -279.5 c 128,-1,12
 -454 -305 -454 -305 -475 -324 c 128,-1,13
 -496 -343 -496 -343 -526 -353.5 c 128,-1,14
 -556 -364 -556 -364 -593 -364 c 0,15,16
 -631 -364 -631 -364 -661 -353.5 c 128,-1,17
 -691 -343 -691 -343 -712 -324 c 128,-1,18
 -733 -305 -733 -305 -744 -279.5 c 128,-1,19
 -755 -254 -755 -254 -755 -224 c 256,0,1
EndSplineSet
EndChar
StartChar: tonos
Encoding: 900 900 171
Width: 1229
Flags: W
LayerCount: 2
Back
Fore
SplineSet
661 1665 m 1,0,-1
 938 1665 l 1,1,-1
 721 1266 l 1,2,-1
 581 1266 l 1,3,-1
 661 1665 l 1,0,-1
EndSplineSet
EndChar
StartChar: dieresistonos
Encoding: 901 901 172
Width: 1229
Flags: W
LayerCount: 2
Back
Fore
SplineSet
646 1801 m 1,0,-1
 918 1801 l 1,1,-1
 750 1477 l 1,2,-1
 603 1477 l 1,3,-1
 646 1801 l 1,0,-1
259 1353 m 0,4,5
 259 1381 259 1381 269.5 1405 c 128,-1,6
 280 1429 280 1429 298.5 1446.5 c 128,-1,7
 317 1464 317 1464 343 1474 c 128,-1,8
 369 1484 369 1484 401 1484 c 0,9,10
 432 1484 432 1484 458 1474 c 128,-1,11
 484 1464 484 1464 502.5 1446.5 c 128,-1,12
 521 1429 521 1429 531.5 1405 c 128,-1,13
 542 1381 542 1381 542 1353 c 0,14,15
 542 1326 542 1326 531.5 1302 c 128,-1,16
 521 1278 521 1278 502.5 1261 c 128,-1,17
 484 1244 484 1244 458 1234 c 128,-1,18
 432 1224 432 1224 401 1224 c 0,19,20
 369 1224 369 1224 343 1234 c 128,-1,21
 317 1244 317 1244 298.5 1261 c 128,-1,22
 280 1278 280 1278 269.5 1302 c 128,-1,23
 259 1326 259 1326 259 1353 c 0,4,5
808 1355 m 256,24,25
 808 1383 808 1383 818.5 1406.5 c 128,-1,26
 829 1430 829 1430 847.5 1447.5 c 128,-1,27
 866 1465 866 1465 892 1475 c 128,-1,28
 918 1485 918 1485 950 1485 c 0,29,30
 981 1485 981 1485 1007 1475 c 128,-1,31
 1033 1465 1033 1465 1051.5 1447.5 c 128,-1,32
 1070 1430 1070 1430 1080.5 1406.5 c 128,-1,33
 1091 1383 1091 1383 1091 1355 c 256,34,35
 1091 1327 1091 1327 1080.5 1303 c 128,-1,36
 1070 1279 1070 1279 1051.5 1261.5 c 128,-1,37
 1033 1244 1033 1244 1007 1234 c 128,-1,38
 981 1224 981 1224 950 1224 c 0,39,40
 918 1224 918 1224 892 1234 c 128,-1,41
 866 1244 866 1244 847.5 1261.5 c 128,-1,42
 829 1279 829 1279 818.5 1303 c 128,-1,43
 808 1327 808 1327 808 1355 c 256,24,25
EndSplineSet
EndChar
StartChar: Delta
Encoding: 916 916 175
AltUni2: 002206.ffffffff.0
Width: 1229
Flags: W
LayerCount: 2
Back
Fore
SplineSet
523 1456 m 1,0,-1
 807 1456 l 1,1,-1
 1280 0 l 1,2,-1
 35 0 l 1,3,-1
 523 1456 l 1,0,-1
399 226 m 1,4,-1
 918 226 l 1,5,-1
 662 1079 l 1,6,-1
 399 226 l 1,4,-1
EndSplineSet
EndChar
StartChar: Theta
Encoding: 920 920 176
Width: 1229
Flags: W
LayerCount: 2
Back
Fore
SplineSet
818 614 m 1,0,-1
 430 614 l 1,1,-1
 430 837 l 1,2,-1
 818 837 l 1,3,-1
 818 614 l 1,0,-1
1158 621 m 2,4,5
 1158 481 1158 481 1121 363 c 128,-1,6
 1084 245 1084 245 1014 160 c 128,-1,7
 944 75 944 75 843.5 27.5 c 128,-1,8
 743 -20 743 -20 617 -20 c 256,9,10
 491 -20 491 -20 393 27.5 c 128,-1,11
 295 75 295 75 228 160.5 c 128,-1,12
 161 246 161 246 126 363.5 c 128,-1,13
 91 481 91 481 91 621 c 2,14,-1
 91 833 l 2,15,16
 91 973 91 973 126 1091 c 128,-1,17
 161 1209 161 1209 228 1294.5 c 128,-1,18
 295 1380 295 1380 392.5 1428 c 128,-1,19
 490 1476 490 1476 616 1476 c 0,20,21
 743 1476 743 1476 843.5 1428 c 128,-1,22
 944 1380 944 1380 1014 1294.5 c 128,-1,23
 1084 1209 1084 1209 1121 1091 c 128,-1,24
 1158 973 1158 973 1158 833 c 2,25,-1
 1158 621 l 2,4,5
873 835 m 2,26,27
 873 924 873 924 858.5 999 c 128,-1,28
 844 1074 844 1074 813 1128 c 128,-1,29
 782 1182 782 1182 733.5 1212.5 c 128,-1,30
 685 1243 685 1243 616 1243 c 0,31,32
 548 1243 548 1243 502 1212.5 c 128,-1,33
 456 1182 456 1182 428 1128 c 128,-1,34
 400 1074 400 1074 388 999 c 128,-1,35
 376 924 376 924 376 835 c 2,36,-1
 376 621 l 2,37,38
 376 533 376 533 388 458 c 128,-1,39
 400 383 400 383 428 328 c 128,-1,40
 456 273 456 273 502 242 c 128,-1,41
 548 211 548 211 617 211 c 0,42,43
 685 211 685 211 733.5 242 c 128,-1,44
 782 273 782 273 812.5 327.5 c 128,-1,45
 843 382 843 382 858 457 c 128,-1,46
 873 532 873 532 873 621 c 2,47,-1
 873 835 l 2,26,27
EndSplineSet
EndChar
StartChar: Lambda
Encoding: 923 923 177
Width: 1229
Flags: W
LayerCount: 2
Back
Fore
SplineSet
612 1079 m 1,0,-1
 316 0 l 1,1,-1
 23 0 l 1,2,-1
 471 1456 l 1,3,-1
 755 1456 l 1,4,-1
 1204 0 l 1,5,-1
 910 0 l 1,6,-1
 612 1079 l 1,0,-1
EndSplineSet
EndChar
StartChar: Xi
Encoding: 926 926 178
Width: 1229
Flags: W
LayerCount: 2
Back
Fore
SplineSet
121 226 m 1,0,-1
 1096 226 l 1,1,-1
 1096 0 l 1,2,-1
 121 0 l 1,3,-1
 121 226 l 1,0,-1
229 849 m 1,4,-1
 985 849 l 1,5,-1
 985 630 l 1,6,-1
 229 630 l 1,7,-1
 229 849 l 1,4,-1
140 1456 m 1,8,-1
 1060 1456 l 1,9,-1
 1060 1228 l 1,10,-1
 140 1228 l 1,11,-1
 140 1456 l 1,8,-1
EndSplineSet
EndChar
StartChar: Sigma
Encoding: 931 931 180
Width: 1229
Flags: W
LayerCount: 2
Back
Fore
SplineSet
856 724 m 1,0,-1
 488 225 l 1,1,-1
 1144 225 l 1,2,-1
 1144 1 l 1,3,-1
 111 1 l 1,4,-1
 111 152 l 1,5,-1
 559 733 l 1,6,-1
 111 1304 l 1,7,-1
 111 1456 l 1,8,-1
 1115 1456 l 1,9,-1
 1115 1228 l 1,10,-1
 493 1228 l 1,11,-1
 856 741 l 1,12,-1
 856 724 l 1,0,-1
EndSplineSet
EndChar
StartChar: Phi
Encoding: 934 934 181
Width: 1229
Flags: W
LayerCount: 2
Back
Fore
SplineSet
804 1260 m 1,0,1
 906 1249 906 1249 990 1206 c 128,-1,2
 1074 1163 1074 1163 1134.5 1093 c 128,-1,3
 1195 1023 1195 1023 1228.5 928.5 c 128,-1,4
 1262 834 1262 834 1262 720 c 0,5,6
 1262 608 1262 608 1228.5 515.5 c 128,-1,7
 1195 423 1195 423 1134.5 354 c 128,-1,8
 1074 285 1074 285 990 242.5 c 128,-1,9
 906 200 906 200 804 189 c 1,10,-1
 804 0 l 1,11,-1
 524 0 l 1,12,-1
 524 189 l 1,13,14
 422 200 422 200 337.5 242 c 128,-1,15
 253 284 253 284 192.5 352.5 c 128,-1,16
 132 421 132 421 98.5 513.5 c 128,-1,17
 65 606 65 606 65 718 c 0,18,19
 65 832 65 832 98.5 927 c 128,-1,20
 132 1022 132 1022 192.5 1092.5 c 128,-1,21
 253 1163 253 1163 337.5 1206 c 128,-1,22
 422 1249 422 1249 524 1260 c 1,23,-1
 524 1456 l 1,24,-1
 804 1456 l 1,25,-1
 804 1260 l 1,0,1
341 718 m 0,26,27
 341 597 341 597 390 525.5 c 128,-1,28
 439 454 439 454 524 434 c 1,29,-1
 524 1015 l 1,30,31
 439 994 439 994 390 919 c 128,-1,32
 341 844 341 844 341 718 c 0,26,27
984 720 m 0,33,34
 984 845 984 845 936 919.5 c 128,-1,35
 888 994 888 994 804 1015 c 1,36,-1
 804 435 l 1,37,38
 888 455 888 455 936 527 c 128,-1,39
 984 599 984 599 984 720 c 0,33,34
EndSplineSet
EndChar
StartChar: Psi
Encoding: 936 936 182
Width: 1229
Flags: W
LayerCount: 2
Back
Fore
SplineSet
807 575 m 1,0,1
 883 597 883 597 922 671.5 c 128,-1,2
 961 746 961 746 961 890 c 2,3,-1
 961 1456 l 1,4,-1
 1243 1456 l 1,5,-1
 1243 890 l 2,6,7
 1243 764 1243 764 1212 668 c 128,-1,8
 1181 572 1181 572 1124 504.5 c 128,-1,9
 1067 437 1067 437 986.5 397 c 128,-1,10
 906 357 906 357 807 345 c 1,11,-1
 807 0 l 1,12,-1
 527 0 l 1,13,-1
 527 344 l 1,14,15
 423 354 423 354 338.5 392.5 c 128,-1,16
 254 431 254 431 194 499 c 128,-1,17
 134 567 134 567 101.5 664.5 c 128,-1,18
 69 762 69 762 69 890 c 2,19,-1
 69 1456 l 1,20,-1
 350 1456 l 1,21,-1
 350 890 l 2,22,23
 350 746 350 746 396.5 671.5 c 128,-1,24
 443 597 443 597 527 575 c 1,25,-1
 527 1456 l 1,26,-1
 807 1456 l 1,27,-1
 807 575 l 1,0,1
EndSplineSet
EndChar
StartChar: Omega
Encoding: 937 937 183
AltUni2: 002126.ffffffff.0
Width: 1229
Flags: W
LayerCount: 2
Back
Fore
SplineSet
677 272 m 1,0,1
 714 288 714 288 745 327 c 128,-1,2
 776 366 776 366 798.5 431 c 128,-1,3
 821 496 821 496 833 589 c 128,-1,4
 845 682 845 682 845 805 c 2,5,-1
 845 858 l 2,6,7
 845 1052 845 1052 785 1149 c 128,-1,8
 725 1246 725 1246 619 1246 c 0,9,10
 515 1246 515 1246 454.5 1148.5 c 128,-1,11
 394 1051 394 1051 394 858 c 2,12,-1
 394 805 l 2,13,14
 394 681 394 681 406.5 588 c 128,-1,15
 419 495 419 495 442 430 c 128,-1,16
 465 365 465 365 497 326.5 c 128,-1,17
 529 288 529 288 569 272 c 1,18,-1
 569 0 l 1,19,-1
 100 0 l 1,20,-1
 100 228 l 1,21,-1
 368 228 l 1,22,23
 308 271 308 271 256.5 332 c 128,-1,24
 205 393 205 393 167 467.5 c 128,-1,25
 129 542 129 542 107.5 627.5 c 128,-1,26
 86 713 86 713 86 805 c 2,27,-1
 86 856 l 2,28,29
 86 992 86 992 125 1106 c 128,-1,30
 164 1220 164 1220 234 1302.5 c 128,-1,31
 304 1385 304 1385 402 1430.5 c 128,-1,32
 500 1476 500 1476 619 1476 c 256,33,34
 738 1476 738 1476 836.5 1430.5 c 128,-1,35
 935 1385 935 1385 1005.5 1302.5 c 128,-1,36
 1076 1220 1076 1220 1115 1106 c 128,-1,37
 1154 992 1154 992 1154 856 c 2,38,-1
 1154 805 l 2,39,40
 1154 713 1154 713 1132.5 627 c 128,-1,41
 1111 541 1111 541 1073.5 467 c 128,-1,42
 1036 393 1036 393 984.5 332 c 128,-1,43
 933 271 933 271 874 228 c 1,44,-1
 1147 228 l 1,45,-1
 1147 0 l 1,46,-1
 677 0 l 1,47,-1
 677 272 l 1,0,1
EndSplineSet
EndChar
StartChar: alpha
Encoding: 945 945 184
Width: 1229
Flags: W
LayerCount: 2
Back
Fore
SplineSet
1028 1082 m 1,0,-1
 1028 323 l 2,1,2
 1028 258 1028 258 1047.5 233.5 c 128,-1,3
 1067 209 1067 209 1100 209 c 0,4,5
 1125 209 1125 209 1143 214 c 1,6,-1
 1167 5 l 1,7,8
 1135 -11 1135 -11 1105.5 -16 c 128,-1,9
 1076 -21 1076 -21 1041 -21 c 0,10,11
 952 -21 952 -21 887.5 13.5 c 128,-1,12
 823 48 823 48 788 120 c 1,13,14
 739 54 739 54 670 17 c 128,-1,15
 601 -20 601 -20 507 -20 c 0,16,17
 410 -20 410 -20 335.5 19 c 128,-1,18
 261 58 261 58 210 128.5 c 128,-1,19
 159 199 159 199 132.5 296.5 c 128,-1,20
 106 394 106 394 106 511 c 2,21,-1
 106 532 l 2,22,23
 106 657 106 657 132.5 761.5 c 128,-1,24
 159 866 159 866 210 942 c 128,-1,25
 261 1018 261 1018 336 1060 c 128,-1,26
 411 1102 411 1102 509 1102 c 0,27,28
 599 1102 599 1102 666 1066 c 128,-1,29
 733 1030 733 1030 781 965 c 1,30,-1
 837 1082 l 1,31,-1
 1028 1082 l 1,0,-1
384 511 m 2,32,33
 384 445 384 445 394 388.5 c 128,-1,34
 404 332 404 332 427 291 c 128,-1,35
 450 250 450 250 486.5 226.5 c 128,-1,36
 523 203 523 203 577 203 c 0,37,38
 639 203 639 203 682 222.5 c 128,-1,39
 725 242 725 242 751 277 c 1,40,41
 750 288 750 288 750 299.5 c 128,-1,42
 750 311 750 311 750 323 c 2,43,-1
 750 804 l 1,44,45
 723 839 723 839 680.5 858 c 128,-1,46
 638 877 638 877 579 877 c 0,47,48
 526 877 526 877 488.5 849.5 c 128,-1,49
 451 822 451 822 428 775 c 128,-1,50
 405 728 405 728 394.5 665.5 c 128,-1,51
 384 603 384 603 384 532 c 2,52,-1
 384 511 l 2,32,33
EndSplineSet
EndChar
StartChar: beta
Encoding: 946 946 185
Width: 1229
Flags: W
LayerCount: 2
Back
Fore
SplineSet
638 1477 m 0,0,1
 743 1477 743 1477 829 1450 c 128,-1,2
 915 1423 915 1423 975.5 1372.5 c 128,-1,3
 1036 1322 1036 1322 1069 1248.5 c 128,-1,4
 1102 1175 1102 1175 1102 1082 c 0,5,6
 1102 983 1102 983 1052 902.5 c 128,-1,7
 1002 822 1002 822 912 773 c 1,8,9
 1034 730 1034 730 1099.5 638 c 128,-1,10
 1165 546 1165 546 1165 415 c 0,11,12
 1165 311 1165 311 1133.5 229.5 c 128,-1,13
 1102 148 1102 148 1044 92.5 c 128,-1,14
 986 37 986 37 903 8 c 128,-1,15
 820 -21 820 -21 718 -21 c 0,16,17
 646 -21 646 -21 572 -2 c 128,-1,18
 498 17 498 17 435 58 c 1,19,-1
 435 -402 l 1,20,-1
 158 -402 l 1,21,-1
 158 1038 l 2,22,23
 158 1136 158 1136 196 1217 c 128,-1,24
 234 1298 234 1298 299.5 1355.5 c 128,-1,25
 365 1413 365 1413 452 1445 c 128,-1,26
 539 1477 539 1477 638 1477 c 0,0,1
634 859 m 2,27,28
 736 859 736 859 780 913.5 c 128,-1,29
 824 968 824 968 824 1063 c 0,30,31
 824 1100 824 1100 812.5 1134 c 128,-1,32
 801 1168 801 1168 777.5 1194 c 128,-1,33
 754 1220 754 1220 719 1236 c 128,-1,34
 684 1252 684 1252 638 1252 c 0,35,36
 594 1252 594 1252 557 1237 c 128,-1,37
 520 1222 520 1222 493 1194 c 128,-1,38
 466 1166 466 1166 450.5 1126.5 c 128,-1,39
 435 1087 435 1087 435 1038 c 2,40,-1
 435 266 l 1,41,42
 474 236 474 236 530.5 219 c 128,-1,43
 587 202 587 202 658 202 c 0,44,45
 712 202 712 202 755 218.5 c 128,-1,46
 798 235 798 235 827 264 c 128,-1,47
 856 293 856 293 871.5 332.5 c 128,-1,48
 887 372 887 372 887 418 c 0,49,50
 887 471 887 471 873 514.5 c 128,-1,51
 859 558 859 558 831.5 588.5 c 128,-1,52
 804 619 804 619 763 636 c 128,-1,53
 722 653 722 653 669 653 c 2,54,-1
 567 653 l 1,55,-1
 567 859 l 1,56,-1
 634 859 l 2,27,28
EndSplineSet
EndChar
StartChar: gamma
Encoding: 947 947 186
Width: 1229
Flags: W
LayerCount: 2
Back
Fore
SplineSet
916 1082 m 1,0,-1
 1206 1082 l 1,1,-1
 761 19 l 1,2,-1
 761 -417 l 1,3,-1
 483 -417 l 1,4,-1
 483 23 l 1,5,-1
 40 1082 l 1,6,-1
 331 1082 l 1,7,-1
 612 309 l 1,8,-1
 626 244 l 1,9,-1
 643 314 l 1,10,-1
 916 1082 l 1,0,-1
EndSplineSet
EndChar
StartChar: delta
Encoding: 948 948 187
Width: 1229
Flags: W
LayerCount: 2
Back
Fore
SplineSet
237 1251 m 0,0,1
 237 1326 237 1326 264.5 1385 c 128,-1,2
 292 1444 292 1444 344.5 1485.5 c 128,-1,3
 397 1527 397 1527 472.5 1548.5 c 128,-1,4
 548 1570 548 1570 644 1570 c 0,5,6
 723 1570 723 1570 796.5 1548 c 128,-1,7
 870 1526 870 1526 950 1493 c 1,8,-1
 906 1309 l 1,9,10
 886 1315 886 1315 859.5 1324.5 c 128,-1,11
 833 1334 833 1334 801.5 1342 c 128,-1,12
 770 1350 770 1350 735 1356 c 128,-1,13
 700 1362 700 1362 664 1362 c 0,14,15
 589 1362 589 1362 545.5 1333.5 c 128,-1,16
 502 1305 502 1305 502 1258 c 0,17,18
 502 1243 502 1243 508 1226 c 128,-1,19
 514 1209 514 1209 532 1191 c 128,-1,20
 550 1173 550 1173 583 1154 c 128,-1,21
 616 1135 616 1135 669 1116 c 0,22,23
 908 1035 908 1035 1030 893.5 c 128,-1,24
 1152 752 1152 752 1152 542 c 2,25,-1
 1152 522 l 2,26,27
 1152 406 1152 406 1116.5 307 c 128,-1,28
 1081 208 1081 208 1013.5 135.5 c 128,-1,29
 946 63 946 63 848 21.5 c 128,-1,30
 750 -20 750 -20 625 -20 c 0,31,32
 498 -20 498 -20 399 20.5 c 128,-1,33
 300 61 300 61 232 132 c 128,-1,34
 164 203 164 203 128.5 300 c 128,-1,35
 93 397 93 397 93 510 c 2,36,-1
 93 530 l 2,37,38
 93 614 93 614 119.5 687.5 c 128,-1,39
 146 761 146 761 191 818.5 c 128,-1,40
 236 876 236 876 296 915 c 128,-1,41
 356 954 356 954 424 970 c 1,42,-1
 426 983 l 1,43,44
 339 1025 339 1025 288 1092 c 128,-1,45
 237 1159 237 1159 237 1251 c 0,0,1
370 534 m 2,46,47
 370 466 370 466 385 405.5 c 128,-1,48
 400 345 400 345 431 300 c 128,-1,49
 462 255 462 255 510.5 228.5 c 128,-1,50
 559 202 559 202 625 202 c 0,51,52
 690 202 690 202 737 228.5 c 128,-1,53
 784 255 784 255 815 300 c 128,-1,54
 846 345 846 345 860.5 405.5 c 128,-1,55
 875 466 875 466 875 534 c 2,56,-1
 875 554 l 2,57,58
 875 606 875 606 857.5 659 c 128,-1,59
 840 712 840 712 807.5 757 c 128,-1,60
 775 802 775 802 728.5 834 c 128,-1,61
 682 866 682 866 625 877 c 1,62,63
 559 877 559 877 511 850.5 c 128,-1,64
 463 824 463 824 431.5 779.5 c 128,-1,65
 400 735 400 735 385 676.5 c 128,-1,66
 370 618 370 618 370 554 c 2,67,-1
 370 534 l 2,46,47
EndSplineSet
EndChar
StartChar: epsilon
Encoding: 949 949 188
Width: 1229
Flags: W
LayerCount: 2
Back
Fore
SplineSet
655 458 m 2,0,1
 529 458 529 458 469.5 427.5 c 128,-1,2
 410 397 410 397 410 324 c 0,3,4
 410 298 410 298 424 274 c 128,-1,5
 438 250 438 250 467.5 231.5 c 128,-1,6
 497 213 497 213 543.5 201.5 c 128,-1,7
 590 190 590 190 655 190 c 0,8,9
 714 190 714 190 760.5 200.5 c 128,-1,10
 807 211 807 211 838.5 229 c 128,-1,11
 870 247 870 247 886.5 270.5 c 128,-1,12
 903 294 903 294 903 320 c 1,13,-1
 1180 320 l 1,14,15
 1180 231 1180 231 1135.5 167 c 128,-1,16
 1091 103 1091 103 1018.5 61.5 c 128,-1,17
 946 20 946 20 854.5 0 c 128,-1,18
 763 -20 763 -20 669 -20 c 0,19,20
 550 -20 550 -20 451 2 c 128,-1,21
 352 24 352 24 281 66 c 128,-1,22
 210 108 210 108 171 168.5 c 128,-1,23
 132 229 132 229 132 306 c 0,24,25
 132 398 132 398 186.5 461.5 c 128,-1,26
 241 525 241 525 349 557 c 1,27,28
 254 593 254 593 202.5 653.5 c 128,-1,29
 151 714 151 714 151 786 c 0,30,31
 151 863 151 863 187 922 c 128,-1,32
 223 981 223 981 290.5 1020.5 c 128,-1,33
 358 1060 358 1060 453.5 1080.5 c 128,-1,34
 549 1101 549 1101 669 1101 c 0,35,36
 770 1101 770 1101 860 1078.5 c 128,-1,37
 950 1056 950 1056 1017.5 1013.5 c 128,-1,38
 1085 971 1085 971 1124 909.5 c 128,-1,39
 1163 848 1163 848 1163 771 c 1,40,-1
 885 771 l 1,41,42
 885 799 885 799 867.5 821 c 128,-1,43
 850 843 850 843 819 858.5 c 128,-1,44
 788 874 788 874 746.5 882 c 128,-1,45
 705 890 705 890 656 890 c 0,46,47
 590 890 590 890 546.5 879 c 128,-1,48
 503 868 503 868 477 850.5 c 128,-1,49
 451 833 451 833 440.5 810.5 c 128,-1,50
 430 788 430 788 430 765 c 0,51,52
 430 738 430 738 441.5 716.5 c 128,-1,53
 453 695 453 695 479.5 679 c 128,-1,54
 506 663 506 663 549 654.5 c 128,-1,55
 592 646 592 646 655 646 c 2,56,-1
 885 646 l 1,57,-1
 885 458 l 1,58,-1
 655 458 l 2,0,1
EndSplineSet
EndChar
StartChar: zeta
Encoding: 950 950 189
Width: 1229
Flags: W
LayerCount: 2
Back
Fore
SplineSet
1068 1456 m 1,0,-1
 1068 1296 l 1,1,-1
 652 868 l 1,2,3
 587 809 587 809 537 759.5 c 128,-1,4
 487 710 487 710 453 660.5 c 128,-1,5
 419 611 419 611 401.5 556.5 c 128,-1,6
 384 502 384 502 384 434 c 0,7,8
 384 387 384 387 395 354.5 c 128,-1,9
 406 322 406 322 427.5 299 c 128,-1,10
 449 276 449 276 482.5 261.5 c 128,-1,11
 516 247 516 247 561 238 c 2,12,-1
 748 201 l 2,13,14
 812 186 812 186 865 167.5 c 128,-1,15
 918 149 918 149 956 120 c 128,-1,16
 994 91 994 91 1014.5 49 c 128,-1,17
 1035 7 1035 7 1035 -54 c 0,18,19
 1035 -97 1035 -97 1014 -144 c 128,-1,20
 993 -191 993 -191 960.5 -236 c 128,-1,21
 928 -281 928 -281 888.5 -321 c 128,-1,22
 849 -361 849 -361 810 -388 c 1,23,-1
 668 -278 l 1,24,25
 716 -227 716 -227 739 -184 c 128,-1,26
 762 -141 762 -141 760 -110 c 0,27,28
 761 -93 761 -93 755.5 -77.5 c 128,-1,29
 750 -62 750 -62 736 -49 c 128,-1,30
 722 -36 722 -36 699.5 -26.5 c 128,-1,31
 677 -17 677 -17 643 -11 c 2,32,-1
 466 20 l 2,33,34
 370 38 370 38 302 70.5 c 128,-1,35
 234 103 234 103 190.5 150 c 128,-1,36
 147 197 147 197 127 258 c 128,-1,37
 107 319 107 319 107 394 c 0,38,39
 107 474 107 474 129.5 546.5 c 128,-1,40
 152 619 152 619 196 690 c 128,-1,41
 240 761 240 761 306.5 833 c 128,-1,42
 373 905 373 905 461 985 c 1,43,-1
 692 1232 l 1,44,-1
 80 1232 l 1,45,-1
 80 1456 l 1,46,-1
 1068 1456 l 1,0,-1
EndSplineSet
EndChar
StartChar: eta
Encoding: 951 951 190
Width: 1229
Flags: W
LayerCount: 2
Back
Fore
SplineSet
387 1082 m 1,0,-1
 400 925 l 1,1,2
 456 1008 456 1008 539.5 1055 c 128,-1,3
 623 1102 623 1102 729 1102 c 0,4,5
 812 1102 812 1102 880.5 1079 c 128,-1,6
 949 1056 949 1056 997.5 1005.5 c 128,-1,7
 1046 955 1046 955 1073 875.5 c 128,-1,8
 1100 796 1100 796 1100 682 c 2,9,-1
 1100 -415 l 1,10,-1
 820 -415 l 1,11,-1
 820 682 l 2,12,13
 820 782 820 782 771 829.5 c 128,-1,14
 722 877 722 877 628 877 c 0,15,16
 553 877 553 877 498.5 854 c 128,-1,17
 444 831 444 831 407 791 c 1,18,-1
 407 0 l 1,19,-1
 129 0 l 1,20,-1
 129 1082 l 1,21,-1
 387 1082 l 1,0,-1
EndSplineSet
EndChar
StartChar: theta
Encoding: 952 952 191
Width: 1229
Flags: W
LayerCount: 2
Back
Fore
SplineSet
1095 521 m 2,0,1
 1095 388 1095 388 1062.5 287 c 128,-1,2
 1030 186 1030 186 970.5 117.5 c 128,-1,3
 911 49 911 49 826.5 14 c 128,-1,4
 742 -21 742 -21 637 -21 c 256,5,6
 532 -21 532 -21 447 14 c 128,-1,7
 362 49 362 49 302 117.5 c 128,-1,8
 242 186 242 186 209 287 c 128,-1,9
 176 388 176 388 176 521 c 2,10,-1
 176 926 l 2,11,12
 176 1059 176 1059 208.5 1162 c 128,-1,13
 241 1265 241 1265 301 1335 c 128,-1,14
 361 1405 361 1405 445.5 1441 c 128,-1,15
 530 1477 530 1477 635 1477 c 256,16,17
 740 1477 740 1477 825 1441 c 128,-1,18
 910 1405 910 1405 970 1335 c 128,-1,19
 1030 1265 1030 1265 1062.5 1162 c 128,-1,20
 1095 1059 1095 1059 1095 926 c 2,21,-1
 1095 521 l 2,0,1
818 633 m 1,22,-1
 455 633 l 1,23,-1
 455 474 l 2,24,25
 455 395 455 395 466.5 343 c 128,-1,26
 478 291 478 291 500.5 259.5 c 128,-1,27
 523 228 523 228 557.5 215 c 128,-1,28
 592 202 592 202 637 202 c 0,29,30
 681 202 681 202 715 215 c 128,-1,31
 749 228 749 228 772 259.5 c 128,-1,32
 795 291 795 291 806.5 343 c 128,-1,33
 818 395 818 395 818 474 c 2,34,-1
 818 633 l 1,22,-1
455 848 m 1,35,-1
 818 848 l 1,36,-1
 818 976 l 2,37,38
 818 1054 818 1054 806.5 1106.5 c 128,-1,39
 795 1159 795 1159 772 1191.5 c 128,-1,40
 749 1224 749 1224 714.5 1238 c 128,-1,41
 680 1252 680 1252 635 1252 c 256,42,43
 590 1252 590 1252 556 1238 c 128,-1,44
 522 1224 522 1224 499.5 1191.5 c 128,-1,45
 477 1159 477 1159 466 1106.5 c 128,-1,46
 455 1054 455 1054 455 976 c 2,47,-1
 455 848 l 1,35,-1
EndSplineSet
EndChar
StartChar: iota
Encoding: 953 953 192
Width: 1229
Flags: W
LayerCount: 2
Back
Fore
SplineSet
179 1082 m 1,0,-1
 743 1082 l 1,1,-1
 743 360 l 2,2,3
 743 306 743 306 755 276 c 128,-1,4
 767 246 767 246 787 231 c 128,-1,5
 807 216 807 216 834 212.5 c 128,-1,6
 861 209 861 209 891 209 c 0,7,8
 936 209 936 209 975.5 224 c 128,-1,9
 1015 239 1015 239 1042 256 c 1,10,-1
 1087 55 l 1,11,12
 1055 31 1055 31 1024 16 c 128,-1,13
 993 1 993 1 962.5 -7 c 128,-1,14
 932 -15 932 -15 901 -18 c 128,-1,15
 870 -21 870 -21 838 -21 c 0,16,17
 746 -21 746 -21 676 -1 c 128,-1,18
 606 19 606 19 558.5 64 c 128,-1,19
 511 109 511 109 486.5 180.5 c 128,-1,20
 462 252 462 252 462 355 c 2,21,-1
 462 855 l 1,22,-1
 179 855 l 1,23,-1
 179 1082 l 1,0,-1
EndSplineSet
EndChar
StartChar: lambda
Encoding: 955 955 193
Width: 1229
Flags: W
LayerCount: 2
Back
Fore
SplineSet
333 0 m 1,0,-1
 32 0 l 1,1,-1
 417 1056 l 1,2,-1
 387 1130 l 2,3,4
 374 1163 374 1163 355.5 1196.5 c 128,-1,5
 337 1230 337 1230 312.5 1257 c 128,-1,6
 288 1284 288 1284 258.5 1300.5 c 128,-1,7
 229 1317 229 1317 193 1317 c 0,8,9
 176 1317 176 1317 156 1315 c 128,-1,10
 136 1313 136 1313 116 1311 c 1,11,-1
 110 1519 l 1,12,13
 126 1523 126 1523 146 1527.5 c 128,-1,14
 166 1532 166 1532 187.5 1535 c 128,-1,15
 209 1538 209 1538 230.5 1540 c 128,-1,16
 252 1542 252 1542 272 1542 c 0,17,18
 345 1542 345 1542 401.5 1514 c 128,-1,19
 458 1486 458 1486 499.5 1445 c 128,-1,20
 541 1404 541 1404 568.5 1355.5 c 128,-1,21
 596 1307 596 1307 613 1267 c 2,22,-1
 960 383 l 2,23,24
 970 352 970 352 984 320.5 c 128,-1,25
 998 289 998 289 1016.5 264 c 128,-1,26
 1035 239 1035 239 1057.5 223.5 c 128,-1,27
 1080 208 1080 208 1106 208 c 0,28,29
 1114 208 1114 208 1118.5 208 c 128,-1,30
 1123 208 1123 208 1127 208.5 c 128,-1,31
 1131 209 1131 209 1136 209.5 c 128,-1,32
 1141 210 1141 210 1150 211 c 1,33,-1
 1144 -7 l 1,34,35
 1124 -13 1124 -13 1101.5 -15.5 c 128,-1,36
 1079 -18 1079 -18 1059 -18 c 0,37,38
 984 -18 984 -18 926 6 c 128,-1,39
 868 30 868 30 825 70.5 c 128,-1,40
 782 111 782 111 751.5 163.5 c 128,-1,41
 721 216 721 216 701 272 c 2,42,-1
 543 713 l 1,43,-1
 514 574 l 1,44,-1
 333 0 l 1,0,-1
EndSplineSet
EndChar
StartChar: xi
Encoding: 958 958 194
Width: 1229
Flags: W
LayerCount: 2
Back
Fore
SplineSet
1050 1210 m 1,0,1
 1013 1219 1013 1219 984.5 1226 c 128,-1,2
 956 1233 956 1233 930 1237.5 c 128,-1,3
 904 1242 904 1242 879 1244.5 c 128,-1,4
 854 1247 854 1247 825 1247 c 0,5,6
 744 1247 744 1247 688.5 1236 c 128,-1,7
 633 1225 633 1225 599 1205.5 c 128,-1,8
 565 1186 565 1186 550.5 1159 c 128,-1,9
 536 1132 536 1132 536 1101 c 0,10,11
 536 1067 536 1067 550.5 1038.5 c 128,-1,12
 565 1010 565 1010 599.5 989 c 128,-1,13
 634 968 634 968 692 956 c 128,-1,14
 750 944 750 944 836 944 c 2,15,-1
 985 944 l 1,16,-1
 985 714 l 1,17,-1
 842 714 l 2,18,19
 641 714 641 714 547.5 649 c 128,-1,20
 454 584 454 584 454 456 c 0,21,22
 454 402 454 402 477 362 c 128,-1,23
 500 322 500 322 541 293.5 c 128,-1,24
 582 265 582 265 637.5 246.5 c 128,-1,25
 693 228 693 228 759 217 c 2,26,-1
 858 195 l 2,27,28
 919 181 919 181 971.5 164.5 c 128,-1,29
 1024 148 1024 148 1063 120.5 c 128,-1,30
 1102 93 1102 93 1124 50.5 c 128,-1,31
 1146 8 1146 8 1146 -59 c 0,32,33
 1146 -102 1146 -102 1125 -149.5 c 128,-1,34
 1104 -197 1104 -197 1071.5 -242 c 128,-1,35
 1039 -287 1039 -287 999 -326.5 c 128,-1,36
 959 -366 959 -366 920 -393 c 1,37,-1
 785 -284 l 1,38,39
 833 -233 833 -233 852 -192.5 c 128,-1,40
 871 -152 871 -152 871 -114 c 0,41,42
 871 -46 871 -46 753 -16 c 2,43,-1
 691 0 l 2,44,45
 566 31 566 31 470 63 c 128,-1,46
 374 95 374 95 308.5 143 c 128,-1,47
 243 191 243 191 209.5 263.5 c 128,-1,48
 176 336 176 336 176 448 c 0,49,50
 176 590 176 590 259.5 685.5 c 128,-1,51
 343 781 343 781 501 827 c 1,52,53
 384 865 384 865 321 932 c 128,-1,54
 258 999 258 999 258 1096 c 0,55,56
 258 1185 258 1185 294.5 1255.5 c 128,-1,57
 331 1326 331 1326 400 1375 c 128,-1,58
 469 1424 469 1424 569.5 1450 c 128,-1,59
 670 1476 670 1476 798 1476 c 0,60,61
 845 1476 845 1476 885 1473 c 128,-1,62
 925 1470 925 1470 960 1463.5 c 128,-1,63
 995 1457 995 1457 1027.5 1448 c 128,-1,64
 1060 1439 1060 1439 1093 1427 c 1,65,-1
 1050 1210 l 1,0,1
EndSplineSet
EndChar
StartChar: pi
Encoding: 960 960 195
Width: 1229
Flags: W
LayerCount: 2
Back
Fore
SplineSet
1198 868 m 1,0,-1
 1044 868 l 1,1,-1
 1044 322 l 2,2,3
 1044 283 1044 283 1049.5 260 c 128,-1,4
 1055 237 1055 237 1066.5 225.5 c 128,-1,5
 1078 214 1078 214 1095.5 210.5 c 128,-1,6
 1113 207 1113 207 1137 207 c 0,7,8
 1168 207 1168 207 1188 213.5 c 128,-1,9
 1208 220 1208 220 1228 230 c 1,10,-1
 1273 40 l 1,11,12
 1211 1 1211 1 1159.5 -9 c 128,-1,13
 1108 -19 1108 -19 1058 -19 c 0,14,15
 984 -19 984 -19 929 -2.5 c 128,-1,16
 874 14 874 14 838 52.5 c 128,-1,17
 802 91 802 91 784 153 c 128,-1,18
 766 215 766 215 766 306 c 2,19,-1
 766 868 l 1,20,-1
 512 868 l 1,21,-1
 512 0 l 1,22,-1
 234 0 l 1,23,-1
 234 868 l 1,24,-1
 100 868 l 1,25,-1
 100 1082 l 1,26,-1
 1198 1082 l 1,27,-1
 1198 868 l 1,0,-1
EndSplineSet
EndChar
StartChar: rho
Encoding: 961 961 196
Width: 1229
Flags: W
LayerCount: 2
Back
Fore
SplineSet
1119 511 m 2,0,1
 1119 394 1119 394 1092 296.5 c 128,-1,2
 1065 199 1065 199 1012 128.5 c 128,-1,3
 959 58 959 58 881 18.5 c 128,-1,4
 803 -21 803 -21 701 -21 c 0,5,6
 605 -21 605 -21 533.5 12.5 c 128,-1,7
 462 46 462 46 411 108 c 1,8,-1
 411 -416 l 1,9,-1
 133 -416 l 1,10,-1
 133 576 l 2,11,12
 133 693 133 693 169 790 c 128,-1,13
 205 887 205 887 271.5 956 c 128,-1,14
 338 1025 338 1025 431.5 1063.5 c 128,-1,15
 525 1102 525 1102 641 1102 c 0,16,17
 759 1102 759 1102 848.5 1060 c 128,-1,18
 938 1018 938 1018 998 942 c 128,-1,19
 1058 866 1058 866 1088.5 761.5 c 128,-1,20
 1119 657 1119 657 1119 532 c 2,21,-1
 1119 511 l 2,0,1
841 532 m 2,22,23
 841 603 841 603 830 665.5 c 128,-1,24
 819 728 819 728 793.5 775 c 128,-1,25
 768 822 768 822 727.5 849.5 c 128,-1,26
 687 877 687 877 629 877 c 256,27,28
 571 877 571 877 530 850.5 c 128,-1,29
 489 824 489 824 462.5 779.5 c 128,-1,30
 436 735 436 735 423.5 676.5 c 128,-1,31
 411 618 411 618 411 554 c 1,32,-1
 410 553 l 1,33,-1
 411 553 l 1,34,-1
 411 309 l 1,35,36
 441 258 441 258 493 230 c 128,-1,37
 545 202 545 202 626 202 c 0,38,39
 685 202 685 202 726 225.5 c 128,-1,40
 767 249 767 249 792.5 290.5 c 128,-1,41
 818 332 818 332 829.5 388.5 c 128,-1,42
 841 445 841 445 841 511 c 2,43,-1
 841 532 l 2,22,23
EndSplineSet
EndChar
StartChar: sigma1
Encoding: 962 962 197
Width: 1229
Flags: W
LayerCount: 2
Back
Fore
SplineSet
603 1102 m 0,0,1
 709 1102 709 1102 797.5 1073.5 c 128,-1,2
 886 1045 886 1045 950 991 c 128,-1,3
 1014 937 1014 937 1049 859 c 128,-1,4
 1084 781 1084 781 1084 682 c 1,5,-1
 822 682 l 1,6,7
 822 722 822 722 809 758 c 128,-1,8
 796 794 796 794 769 820 c 128,-1,9
 742 846 742 846 700.5 861.5 c 128,-1,10
 659 877 659 877 603 877 c 0,11,12
 536 877 536 877 490.5 850 c 128,-1,13
 445 823 445 823 417 778 c 128,-1,14
 389 733 389 733 377 675 c 128,-1,15
 365 617 365 617 365 555 c 2,16,-1
 365 525 l 2,17,18
 365 391 365 391 427 312 c 128,-1,19
 489 233 489 233 632 217 c 1,20,21
 735 201 735 201 811 180.5 c 128,-1,22
 887 160 887 160 937.5 128.5 c 128,-1,23
 988 97 988 97 1013.5 50.5 c 128,-1,24
 1039 4 1039 4 1041 -63 c 0,25,26
 1041 -129 1041 -129 1014.5 -184.5 c 128,-1,27
 988 -240 988 -240 944.5 -285.5 c 128,-1,28
 901 -331 901 -331 845.5 -366.5 c 128,-1,29
 790 -402 790 -402 731 -427 c 1,30,-1
 609 -274 l 1,31,32
 631 -267 631 -267 659 -250 c 128,-1,33
 687 -233 687 -233 711 -210 c 128,-1,34
 735 -187 735 -187 751.5 -159 c 128,-1,35
 768 -131 768 -131 767 -101 c 0,36,37
 767 -56 767 -56 720.5 -30.5 c 128,-1,38
 674 -5 674 -5 586 3 c 1,39,40
 330 47 330 47 208 176.5 c 128,-1,41
 86 306 86 306 86 525 c 2,42,-1
 86 555 l 2,43,44
 86 669 86 669 119.5 768.5 c 128,-1,45
 153 868 153 868 218 942 c 128,-1,46
 283 1016 283 1016 380 1059 c 128,-1,47
 477 1102 477 1102 603 1102 c 0,0,1
EndSplineSet
EndChar
StartChar: sigma
Encoding: 963 963 198
Width: 1229
Flags: W
LayerCount: 2
Back
Fore
SplineSet
1158 856 m 1,0,-1
 904 856 l 1,1,2
 942 825 942 825 974.5 786.5 c 128,-1,3
 1007 748 1007 748 1030.5 704 c 128,-1,4
 1054 660 1054 660 1067 611 c 128,-1,5
 1080 562 1080 562 1080 510 c 2,6,-1
 1080 489 l 2,7,8
 1080 383 1080 383 1047.5 290 c 128,-1,9
 1015 197 1015 197 952 128 c 128,-1,10
 889 59 889 59 797 19 c 128,-1,11
 705 -21 705 -21 587 -21 c 0,12,13
 465 -21 465 -21 370.5 20.5 c 128,-1,14
 276 62 276 62 211 136 c 128,-1,15
 146 210 146 210 112.5 310.5 c 128,-1,16
 79 411 79 411 79 530 c 2,17,-1
 79 551 l 2,18,19
 79 665 79 665 112.5 762 c 128,-1,20
 146 859 146 859 210.5 930 c 128,-1,21
 275 1001 275 1001 369.5 1041.5 c 128,-1,22
 464 1082 464 1082 585 1082 c 2,23,-1
 1158 1082 l 1,24,-1
 1158 856 l 1,0,-1
358 530 m 2,25,26
 358 462 358 462 370 402.5 c 128,-1,27
 382 343 382 343 409 298.5 c 128,-1,28
 436 254 436 254 480 228 c 128,-1,29
 524 202 524 202 587 202 c 0,30,31
 645 202 645 202 686 228 c 128,-1,32
 727 254 727 254 753 298.5 c 128,-1,33
 779 343 779 343 790.5 402.5 c 128,-1,34
 802 462 802 462 802 530 c 2,35,-1
 802 551 l 2,36,37
 802 613 802 613 790.5 668.5 c 128,-1,38
 779 724 779 724 753.5 765.5 c 128,-1,39
 728 807 728 807 687 831.5 c 128,-1,40
 646 856 646 856 586 856 c 0,41,42
 524 856 524 856 480.5 831.5 c 128,-1,43
 437 807 437 807 410 765.5 c 128,-1,44
 383 724 383 724 370.5 668.5 c 128,-1,45
 358 613 358 613 358 551 c 2,46,-1
 358 530 l 2,25,26
EndSplineSet
EndChar
StartChar: tau
Encoding: 964 964 199
Width: 1229
Flags: W
LayerCount: 2
Back
Fore
SplineSet
1034 851 m 1,0,-1
 693 851 l 1,1,-1
 693 380 l 2,2,3
 693 320 693 320 704.5 285 c 128,-1,4
 716 250 716 250 736.5 232.5 c 128,-1,5
 757 215 757 215 784.5 210 c 128,-1,6
 812 205 812 205 845 205 c 0,7,8
 896 205 896 205 931.5 216.5 c 128,-1,9
 967 228 967 228 1002 243 c 1,10,-1
 1034 34 l 1,11,12
 1002 17 1002 17 972 6.5 c 128,-1,13
 942 -4 942 -4 912 -10 c 128,-1,14
 882 -16 882 -16 851.5 -18.5 c 128,-1,15
 821 -21 821 -21 787 -21 c 0,16,17
 699 -21 699 -21 630 0.5 c 128,-1,18
 561 22 561 22 513 70 c 128,-1,19
 465 118 465 118 440 195 c 128,-1,20
 415 272 415 272 415 383 c 2,21,-1
 415 851 l 1,22,-1
 65 851 l 1,23,-1
 65 1082 l 1,24,-1
 1034 1082 l 1,25,-1
 1034 851 l 1,0,-1
EndSplineSet
EndChar
StartChar: upsilon
Encoding: 965 965 200
Width: 1229
Flags: W
LayerCount: 2
Back
Fore
SplineSet
404 1082 m 1,0,-1
 404 457 l 2,1,2
 404 385 404 385 419.5 336.5 c 128,-1,3
 435 288 435 288 462 258 c 128,-1,4
 489 228 489 228 526.5 215 c 128,-1,5
 564 202 564 202 609 202 c 0,6,7
 669 202 669 202 711 234 c 128,-1,8
 753 266 753 266 779.5 317.5 c 128,-1,9
 806 369 806 369 818 434.5 c 128,-1,10
 830 500 830 500 830 566 c 0,11,12
 828 700 828 700 799 828.5 c 128,-1,13
 770 957 770 957 725 1082 c 1,14,-1
 994 1082 l 1,15,16
 1017 1036 1017 1036 1037.5 980.5 c 128,-1,17
 1058 925 1058 925 1074 860.5 c 128,-1,18
 1090 796 1090 796 1099 722 c 128,-1,19
 1108 648 1108 648 1108 566 c 0,20,21
 1108 444 1108 444 1082 337 c 128,-1,22
 1056 230 1056 230 998.5 150.5 c 128,-1,23
 941 71 941 71 847.5 25 c 128,-1,24
 754 -21 754 -21 619 -21 c 0,25,26
 505 -21 505 -21 413.5 7 c 128,-1,27
 322 35 322 35 258 93.5 c 128,-1,28
 194 152 194 152 160 243 c 128,-1,29
 126 334 126 334 126 459 c 2,30,-1
 126 1082 l 1,31,-1
 404 1082 l 1,0,-1
EndSplineSet
EndChar
StartChar: phi
Encoding: 966 966 201
Width: 1229
Flags: W
LayerCount: 2
Back
Fore
SplineSet
510 -9 m 1,0,1
 390 12 390 12 307 67 c 128,-1,2
 224 122 224 122 173 200 c 128,-1,3
 122 278 122 278 99.5 373.5 c 128,-1,4
 77 469 77 469 77 571 c 0,5,6
 77 655 77 655 93.5 731.5 c 128,-1,7
 110 808 110 808 140 875 c 128,-1,8
 170 942 170 942 212 997.5 c 128,-1,9
 254 1053 254 1053 305 1094 c 1,10,-1
 493 942 l 1,11,12
 458 903 458 903 433 858 c 128,-1,13
 408 813 408 813 391 765 c 128,-1,14
 374 717 374 717 365 667.5 c 128,-1,15
 356 618 356 618 355 571 c 0,16,17
 355 513 355 513 363 460.5 c 128,-1,18
 371 408 371 408 389 364 c 128,-1,19
 407 320 407 320 436.5 286 c 128,-1,20
 466 252 466 252 510 231 c 1,21,-1
 510 802 l 2,22,23
 510 867 510 867 533 920.5 c 128,-1,24
 556 974 556 974 596.5 1012.5 c 128,-1,25
 637 1051 637 1051 692 1072.5 c 128,-1,26
 747 1094 747 1094 810 1094 c 0,27,28
 919 1094 919 1094 998 1047 c 128,-1,29
 1077 1000 1077 1000 1128.5 924 c 128,-1,30
 1180 848 1180 848 1204.5 751.5 c 128,-1,31
 1229 655 1229 655 1229 556 c 256,32,33
 1229 457 1229 457 1206 363.5 c 128,-1,34
 1183 270 1183 270 1131 193.5 c 128,-1,35
 1079 117 1079 117 995 63 c 128,-1,36
 911 9 911 9 789 -11 c 1,37,-1
 789 -478 l 1,38,-1
 510 -478 l 1,39,-1
 510 -9 l 1,0,1
789 227 m 1,40,41
 834 247 834 247 865 280.5 c 128,-1,42
 896 314 896 314 915 357.5 c 128,-1,43
 934 401 934 401 942 451.5 c 128,-1,44
 950 502 950 502 950 556 c 0,45,46
 949 623 949 623 941.5 680.5 c 128,-1,47
 934 738 934 738 920 780 c 128,-1,48
 906 822 906 822 886 846 c 128,-1,49
 866 870 866 870 840 870 c 256,50,51
 814 870 814 870 801.5 852 c 128,-1,52
 789 834 789 834 789 806 c 2,53,-1
 789 227 l 1,40,41
EndSplineSet
EndChar
StartChar: psi
Encoding: 968 968 202
Width: 1229
Flags: W
LayerCount: 2
Back
Fore
SplineSet
784 1082 m 1,0,-1
 784 227 l 1,1,2
 834 248 834 248 869 283.5 c 128,-1,3
 904 319 904 319 925.5 366.5 c 128,-1,4
 947 414 947 414 956.5 471 c 128,-1,5
 966 528 966 528 966 591 c 0,6,7
 965 718 965 718 944.5 841 c 128,-1,8
 924 964 924 964 895 1082 c 1,9,-1
 1156 1082 l 1,10,11
 1191 993 1191 993 1217.5 871 c 128,-1,12
 1244 749 1244 749 1244 591 c 0,13,14
 1244 483 1244 483 1220 383 c 128,-1,15
 1196 283 1196 283 1142 201.5 c 128,-1,16
 1088 120 1088 120 1000 64 c 128,-1,17
 912 8 912 8 784 -11 c 1,18,-1
 784 -478 l 1,19,-1
 506 -478 l 1,20,-1
 506 -9 l 1,21,22
 405 9 405 9 324 53 c 128,-1,23
 243 97 243 97 186.5 170.5 c 128,-1,24
 130 244 130 244 99.5 348 c 128,-1,25
 69 452 69 452 69 590 c 2,26,-1
 69 1082 l 1,27,-1
 349 1082 l 1,28,-1
 349 587 l 2,29,30
 349 510 349 510 360.5 451 c 128,-1,31
 372 392 372 392 392.5 348.5 c 128,-1,32
 413 305 413 305 442 276 c 128,-1,33
 471 247 471 247 506 230 c 1,34,-1
 506 1082 l 1,35,-1
 784 1082 l 1,0,-1
EndSplineSet
EndChar
StartChar: omega
Encoding: 969 969 203
Width: 1229
Flags: W
LayerCount: 2
Back
Fore
SplineSet
422 1082 m 1,0,1
 378 957 378 957 352.5 828.5 c 128,-1,2
 327 700 327 700 325 566 c 0,3,4
 325 496 325 496 328 430.5 c 128,-1,5
 331 365 331 365 338 314.5 c 128,-1,6
 345 264 345 264 357.5 233.5 c 128,-1,7
 370 203 370 203 388 203 c 256,8,9
 406 203 406 203 421.5 218 c 128,-1,10
 437 233 437 233 449 267 c 128,-1,11
 461 301 461 301 468 355.5 c 128,-1,12
 475 410 475 410 475 489 c 2,13,-1
 475 834 l 1,14,-1
 767 834 l 1,15,-1
 767 489 l 2,16,17
 767 410 767 410 774 355.5 c 128,-1,18
 781 301 781 301 792.5 267 c 128,-1,19
 804 233 804 233 819.5 218 c 128,-1,20
 835 203 835 203 853 203 c 0,21,22
 872 203 872 203 884.5 233.5 c 128,-1,23
 897 264 897 264 904.5 314 c 128,-1,24
 912 364 912 364 915 429.5 c 128,-1,25
 918 495 918 495 918 566 c 0,26,27
 916 700 916 700 889.5 828.5 c 128,-1,28
 863 957 863 957 820 1082 c 1,29,-1
 1088 1082 l 1,30,31
 1110 1036 1110 1036 1129.5 980.5 c 128,-1,32
 1149 925 1149 925 1163.5 860.5 c 128,-1,33
 1178 796 1178 796 1186.5 722 c 128,-1,34
 1195 648 1195 648 1195 566 c 0,35,36
 1195 444 1195 444 1178.5 337 c 128,-1,37
 1162 230 1162 230 1123 150.5 c 128,-1,38
 1084 71 1084 71 1020.5 25.5 c 128,-1,39
 957 -20 957 -20 864 -20 c 0,40,41
 783 -20 783 -20 721.5 27 c 128,-1,42
 660 74 660 74 620 165 c 1,43,44
 581 74 581 74 519.5 27 c 128,-1,45
 458 -20 458 -20 378 -20 c 0,46,47
 284 -20 284 -20 220.5 25.5 c 128,-1,48
 157 71 157 71 118 150.5 c 128,-1,49
 79 230 79 230 62.5 337 c 128,-1,50
 46 444 46 444 46 566 c 0,51,52
 46 648 46 648 55 722 c 128,-1,53
 64 796 64 796 78.5 860.5 c 128,-1,54
 93 925 93 925 112.5 980.5 c 128,-1,55
 132 1036 132 1036 153 1082 c 1,56,-1
 422 1082 l 1,0,1
EndSplineSet
EndChar
StartChar: uni03D1
Encoding: 977 977 204
Width: 1229
GlyphClass: 2
Flags: W
LayerCount: 2
Back
Fore
SplineSet
1231 582 m 1,0,1
 1205 574 1205 574 1176 566.5 c 128,-1,2
 1147 559 1147 559 1115 553 c 1,3,-1
 1115 455 l 2,4,5
 1115 346 1115 346 1080 258.5 c 128,-1,6
 1045 171 1045 171 981.5 109 c 128,-1,7
 918 47 918 47 828 13.5 c 128,-1,8
 738 -20 738 -20 629 -20 c 0,9,10
 521 -20 521 -20 432 15.5 c 128,-1,11
 343 51 343 51 280 114.5 c 128,-1,12
 217 178 217 178 182.5 265 c 128,-1,13
 148 352 148 352 148 455 c 2,14,-1
 148 711 l 1,15,-1
 414 712 l 1,16,-1
 414 455 l 2,17,18
 414 402 414 402 429.5 357.5 c 128,-1,19
 445 313 445 313 474.5 280.5 c 128,-1,20
 504 248 504 248 546 230 c 128,-1,21
 588 212 588 212 642 212 c 0,22,23
 729 212 729 212 777 276 c 128,-1,24
 825 340 825 340 825 455 c 2,25,-1
 825 552 l 1,26,27
 725 572 725 572 641.5 617.5 c 128,-1,28
 558 663 558 663 497.5 729 c 128,-1,29
 437 795 437 795 403.5 879 c 128,-1,30
 370 963 370 963 370 1060 c 2,31,-1
 370 1082 l 2,32,33
 370 1174 370 1174 398 1247 c 128,-1,34
 426 1320 426 1320 476.5 1371 c 128,-1,35
 527 1422 527 1422 596.5 1449 c 128,-1,36
 666 1476 666 1476 749 1476 c 0,37,38
 834 1476 834 1476 901.5 1448 c 128,-1,39
 969 1420 969 1420 1016.5 1367 c 128,-1,40
 1064 1314 1064 1314 1089.5 1237 c 128,-1,41
 1115 1160 1115 1160 1115 1062 c 2,42,-1
 1115 794 l 1,43,44
 1173 803 1173 803 1222 815 c 1,45,-1
 1231 582 l 1,0,1
634 1071 m 2,46,47
 634 980 634 980 682.5 909.5 c 128,-1,48
 731 839 731 839 825 806 c 1,49,-1
 825 1088 l 2,50,51
 825 1162 825 1162 803 1195.5 c 128,-1,52
 781 1229 781 1229 736 1229 c 256,53,54
 691 1229 691 1229 662.5 1197 c 128,-1,55
 634 1165 634 1165 634 1095 c 2,56,-1
 634 1071 l 2,46,47
EndSplineSet
EndChar
StartChar: uni03D2
Encoding: 978 978 205
Width: 1229
Flags: W
LayerCount: 2
Back
Fore
SplineSet
836 1198 m 2,0,1
 891 1347 891 1347 971 1413.5 c 128,-1,2
 1051 1480 1051 1480 1154 1480 c 0,3,4
 1188 1480 1188 1480 1221 1474 c 128,-1,5
 1254 1468 1254 1468 1281 1456 c 1,6,-1
 1258 1237 l 1,7,8
 1254 1239 1254 1239 1238.5 1240.5 c 128,-1,9
 1223 1242 1223 1242 1210 1242 c 0,10,11
 1175 1242 1175 1242 1147.5 1224.5 c 128,-1,12
 1120 1207 1120 1207 1104 1173 c 2,13,-1
 810 487 l 1,14,-1
 810 0 l 1,15,-1
 531 0 l 1,16,-1
 531 499 l 1,17,-1
 242 1173 l 2,18,19
 225 1208 225 1208 196.5 1225 c 128,-1,20
 168 1242 168 1242 135 1242 c 0,21,22
 123 1242 123 1242 107.5 1240.5 c 128,-1,23
 92 1239 92 1239 89 1237 c 2,24,-1
 66 1457 l 1,25,26
 92 1469 92 1469 124.5 1474.5 c 128,-1,27
 157 1480 157 1480 192 1480 c 0,28,29
 243 1480 243 1480 288 1465.5 c 128,-1,30
 333 1451 333 1451 372.5 1418 c 128,-1,31
 412 1385 412 1385 445.5 1332.5 c 128,-1,32
 479 1280 479 1280 507 1204 c 2,33,-1
 659 796 l 1,34,-1
 672 732 l 1,35,-1
 686 795 l 1,36,-1
 836 1198 l 2,0,1
EndSplineSet
EndChar
